<svg width="400" height="500" viewBox="0 0 400 500" fill="none" xmlns="http://www.w3.org/2000/svg">
<g clip-path="url(#clip0_168_14)">
<path d="M400 0H0V500H400V0Z" fill="white"/>
<path d="M163.833 383.27C160.907 384.84 157.984 385.41 154.847 385.41C145.289 385.41 138.654 378.777 138.654 369.434C138.654 359.946 145.289 353.454 154.988 353.454C160.053 353.454 164.261 355.239 167.898 359.089L175.317 352.242C170.466 346.608 163.191 343.612 154.419 343.612C138.513 343.612 126.959 354.382 126.959 369.431C126.959 384.48 138.513 395.25 154.204 395.25C161.338 395.25 168.898 393.04 174.389 388.902V368.647H163.833V383.268V383.27ZM184.302 394.396H195.428V341.478H184.302V394.396ZM224.029 394.968C236.226 394.968 245.068 386.766 245.068 375.209C245.068 363.655 236.223 355.453 224.029 355.453C211.83 355.453 202.917 363.653 202.917 375.209C202.917 386.763 211.833 394.968 224.029 394.968ZM224.029 385.838C218.465 385.838 214.186 381.844 214.186 375.209C214.186 368.574 218.465 364.583 224.029 364.583C229.591 364.583 233.799 368.574 233.799 375.209C233.799 381.844 229.591 385.838 224.029 385.838ZM275.166 355.455C270.386 355.455 266.462 356.952 263.612 360.09V341.475H252.484V394.393H263.113V389.973C265.893 393.328 270.033 394.968 275.166 394.968C285.936 394.968 294.28 387.265 294.28 375.209C294.28 363.156 285.936 355.453 275.166 355.453V355.455ZM273.241 385.838C267.677 385.838 263.469 381.844 263.469 375.209C263.469 368.574 267.677 364.583 273.241 364.583C278.802 364.583 283.011 368.574 283.011 375.209C283.011 381.844 278.802 385.838 273.241 385.838ZM316.531 355.455C310.397 355.455 304.191 357.096 299.985 360.09L303.979 367.864C306.758 365.651 310.967 364.298 315.034 364.298C321.024 364.298 323.876 367.077 323.876 371.858H315.034C303.336 371.858 298.559 376.565 298.559 383.341C298.559 389.973 303.906 394.965 312.895 394.965C318.529 394.965 322.52 393.108 324.589 389.616V394.393H335.004V372.498C335.004 360.873 328.228 355.453 316.531 355.453V355.455ZM315.676 387.479C311.755 387.479 309.402 385.624 309.402 382.842C309.402 380.277 311.042 378.352 316.249 378.352H323.879V382.273C322.596 385.768 319.389 387.481 315.679 387.481L315.676 387.479ZM345.061 394.396H356.187V341.478H345.061V394.396Z" fill="#FA666A"/>
<path d="M82.8197 437.14C89.1126 437.14 94.3238 434.87 97.7275 430.693L92.362 425.74C89.9405 428.58 86.8946 430.022 83.2845 430.022C76.5241 430.022 71.728 425.273 71.728 418.465C71.728 411.655 76.5267 406.911 83.2845 406.911C86.8946 406.911 89.9405 408.356 92.362 411.14L97.7275 406.188C94.3238 402.06 89.1124 399.793 82.8718 399.793C71.6262 399.793 63.2671 407.58 63.2671 418.465C63.2671 429.35 71.6236 437.14 82.8169 437.14H82.8197ZM115.992 436.936C124.814 436.936 131.208 431.004 131.208 422.645C131.208 414.288 124.814 408.353 115.992 408.353C107.171 408.353 100.721 414.286 100.721 422.645C100.721 431.001 107.171 436.936 115.992 436.936ZM115.992 430.33C111.967 430.33 108.871 427.441 108.871 422.645C108.871 417.846 111.967 414.957 115.992 414.957C120.015 414.957 123.058 417.849 123.058 422.645C123.058 427.443 120.015 430.33 115.992 430.33ZM144.262 412.428V408.766H136.574V436.521H144.622V423.418C144.622 418.102 147.564 415.678 151.996 415.678C152.616 415.678 153.133 415.73 153.804 415.782V408.353C149.523 408.353 146.221 409.748 144.262 412.428ZM175.008 408.353C171.293 408.353 168.302 409.542 166.29 411.966V408.766H158.603V446.526H166.651V433.579C168.712 435.847 171.552 436.934 175.005 436.934C182.795 436.934 188.829 431.362 188.829 422.642C188.829 413.923 182.795 408.351 175.005 408.351L175.008 408.353ZM173.615 430.33C169.592 430.33 166.547 427.441 166.547 422.645C166.547 417.846 169.592 414.957 173.615 414.957C177.638 414.957 180.681 417.849 180.681 422.645C180.681 427.443 177.638 430.33 173.615 430.33ZM207.404 436.936C216.229 436.936 222.623 431.004 222.623 422.645C222.623 414.288 216.229 408.353 207.404 408.353C198.583 408.353 192.136 414.286 192.136 422.645C192.136 431.001 198.583 436.936 207.404 436.936ZM207.404 430.33C203.382 430.33 200.286 427.441 200.286 422.645C200.286 417.846 203.382 414.957 207.404 414.957C211.427 414.957 214.473 417.849 214.473 422.645C214.473 427.443 211.427 430.33 207.404 430.33ZM235.674 412.428V408.766H227.989V436.521H236.034V423.418C236.034 418.102 238.976 415.678 243.411 415.678C244.03 415.678 244.548 415.73 245.219 415.782V408.353C240.938 408.353 237.633 409.748 235.674 412.428ZM261.057 408.353C256.621 408.353 252.131 409.542 249.09 411.707L251.979 417.331C253.991 415.73 257.037 414.751 259.975 414.751C264.309 414.751 266.37 416.765 266.37 420.221H259.975C251.512 420.221 248.058 423.627 248.058 428.525C248.058 433.324 251.927 436.936 258.429 436.936C262.504 436.936 265.393 435.594 266.89 433.065V436.523H274.424V420.688C274.424 412.277 269.521 408.356 261.062 408.356L261.057 408.353ZM260.438 431.516C257.601 431.516 255.9 430.173 255.9 428.162C255.9 426.304 257.089 424.909 260.853 424.909H266.373V427.749C265.446 430.278 263.123 431.516 260.441 431.516H260.438ZM297.427 429.504C296.552 430.173 295.363 430.536 294.177 430.536C292.012 430.536 290.719 429.246 290.719 426.874V415.576H297.633V409.388H290.719V402.627H282.673V409.388H278.392V415.576H282.673V426.976C282.673 433.582 286.492 436.934 293.044 436.934C295.52 436.934 297.944 436.367 299.598 435.178L297.429 429.504H297.427ZM330.445 422.744C330.445 413.821 324.153 408.351 316 408.351C307.539 408.351 301.194 414.335 301.194 422.642C301.194 430.894 307.434 436.934 317.029 436.934C322.034 436.934 325.903 435.385 328.484 432.446L324.202 427.804C322.293 429.609 320.177 430.487 317.235 430.487C313.006 430.487 310.065 428.371 309.292 424.912H330.289C330.338 424.243 330.443 423.366 330.443 422.747L330.445 422.744ZM316.052 414.44C319.662 414.44 322.293 416.71 322.862 420.218H309.192C309.759 416.657 312.39 414.44 316.055 414.44H316.052ZM345.147 436.934C353.454 436.934 358.25 433.269 358.25 428.109C358.25 417.175 341.485 421.764 341.485 417.018C341.485 415.573 343.034 414.44 346.644 414.44C349.173 414.44 351.907 414.954 354.64 416.503L357.323 410.777C354.692 409.228 350.46 408.353 346.641 408.353C338.543 408.353 333.797 412.068 333.797 417.331C333.797 428.42 350.562 423.771 350.562 428.319C350.562 429.868 349.17 430.847 345.455 430.847C342.049 430.847 338.282 429.76 335.808 428.164L333.128 433.943C335.706 435.643 340.453 436.936 345.144 436.936L345.147 436.934Z" fill="url(#paint0_linear_168_14)"/>
<path d="M129.883 341.567C130.147 341.883 130.251 342.249 130.199 342.669C130.147 343.087 129.938 343.429 129.57 343.693C128.943 344.114 128.337 344.085 127.759 343.615C125.244 342.724 107.567 342.643 74.7311 343.38C71.3222 357.7 67.8584 373.224 64.345 389.958C60.1497 410.153 57.6028 424.024 56.7147 431.579C56.8192 431.579 56.9237 431.602 57.0282 431.657C57.4462 431.762 57.7334 432.01 57.8927 432.402C58.0495 432.796 58.0495 433.175 57.8927 433.543C57.6289 434.384 57.407 435.001 57.2241 435.393C57.0413 435.787 56.7669 436.179 56.3986 436.573C56.0329 436.968 55.6409 437.164 55.2178 437.164C55.061 437.164 54.8783 437.138 54.6693 437.086C53.9875 436.877 53.5801 436.325 53.4468 435.432C53.3162 434.541 53.3815 433.334 53.6453 431.814C53.8543 429.612 54.3245 426.435 55.0611 422.295C56.3725 414.427 58.3394 404.198 60.9621 391.612C64.4755 374.617 68.0178 358.565 71.5834 343.458C68.0178 343.51 63.5847 343.615 58.2871 343.772C49.894 343.981 44.965 344.085 43.4969 344.085C43.0764 344.085 42.7236 343.944 42.4337 343.654C42.1437 343.367 42 343.011 42 342.591C42 342.33 42.0653 342.082 42.1959 341.844C42.3291 341.609 42.5121 341.426 42.7472 341.295C42.9823 341.162 43.2303 341.099 43.4941 341.099C44.9622 341.099 49.8654 340.966 58.2062 340.705C63.3993 340.6 68.1196 340.496 72.3697 340.391C74.0467 333.466 75.5435 327.592 76.8523 322.769C76.9568 322.349 77.1945 322.035 77.5602 321.821C77.9259 321.612 78.3073 321.56 78.7017 321.667C79.0936 321.771 79.3966 322.007 79.6056 322.372C79.8145 322.741 79.8667 323.132 79.7622 323.553C78.5031 328.224 77.0613 333.809 75.4365 340.313C91.1725 339.892 103.053 339.736 111.078 339.843C119.103 339.947 124.152 340.117 126.223 340.352C128.295 340.587 129.515 340.995 129.88 341.572L129.883 341.567ZM110.056 369.813C110.474 369.708 110.856 369.761 111.198 369.97C111.538 370.179 111.759 370.495 111.864 370.915C111.971 371.333 111.919 371.728 111.71 372.096C109.978 374.875 108.324 377.354 106.749 379.53C105.177 381.709 103.826 383.464 102.7 384.802C101.569 386.142 100.485 387.268 99.4324 388.187C98.3823 389.104 97.5465 389.762 96.9169 390.154C96.2874 390.546 95.6577 390.81 95.0281 390.94C94.3986 391.071 93.965 391.123 93.7299 391.097C93.4922 391.071 93.2179 391.032 92.9044 390.98C90.4385 390.35 89.0488 387.542 88.7353 382.558C88.6831 381.456 88.5525 380.526 88.341 379.768C88.132 379.008 87.949 378.509 87.7922 378.271C87.6355 378.036 87.5049 377.919 87.4004 377.919H87.3195C86.9016 377.919 86.3242 378.245 85.5902 378.903C84.8562 379.557 83.9627 380.62 82.9152 382.09C81.8651 383.558 80.7655 385.343 79.6109 387.44C78.4563 389.538 77.1841 392.189 75.7944 395.386C74.4047 398.586 73.0542 402.05 71.7429 405.773C71.5339 406.455 71.0637 406.797 70.3271 406.797H70.0136C69.7497 406.744 69.5275 406.64 69.3447 406.483C69.1592 406.326 69.0184 406.131 68.9113 405.893C68.8068 405.658 68.7804 405.436 68.8327 405.224C68.9372 403.074 70.3166 396.165 72.9628 384.494C75.6116 372.825 77.7901 363.434 79.4959 356.329C81.199 349.221 82.526 343.777 83.4691 340C85.2532 332.761 87.3089 326.586 89.6443 321.471C91.977 316.356 93.9832 313.645 95.6628 313.329C96.5536 313.172 97.2354 313.433 97.7082 314.115C98.8628 315.69 98.1916 319.752 95.7021 326.312C93.2101 332.868 89.344 340.893 84.0961 350.388C80.0576 367.015 76.9358 380.364 74.7337 390.434C77.0429 385.557 79.321 381.685 81.5805 378.83C83.8349 375.97 85.9061 374.672 87.7948 374.935C90.1536 375.249 91.4651 377.715 91.7289 382.331C91.9902 385.847 92.617 387.733 93.6174 387.996C93.7742 388.049 93.9964 388.049 94.2838 387.996C94.5711 387.942 95.1613 387.628 96.0547 387.051C96.9454 386.474 97.9173 385.619 98.9674 384.494C100.018 383.365 101.444 381.594 103.254 379.183C105.064 376.772 107.018 373.859 109.116 370.448C109.325 370.134 109.638 369.925 110.061 369.821L110.056 369.813ZM95.1065 317.725C92.22 321.871 89.5216 328.715 87.0035 338.262C91.6193 328.979 94.3228 322.132 95.1065 317.725ZM134.76 372.485C128.833 380.774 123.431 386.649 118.551 390.11C116.61 391.473 114.698 392.155 112.81 392.155C111.339 392.155 110.056 391.761 108.954 390.975C108.324 390.502 107.76 389.87 107.261 389.086C106.765 388.3 106.331 387.197 105.963 385.779C105.597 384.363 105.532 382.5 105.767 380.194C106.002 377.887 106.592 375.262 107.535 372.326V372.247C109.006 367.475 110.79 363.698 112.888 360.918C114.986 358.139 116.874 356.723 118.551 356.671C119.761 356.618 120.544 357.141 120.91 358.243C121.487 359.766 120.806 361.916 118.867 364.696C116.926 367.475 114.066 370.463 110.289 373.663C109.662 375.711 109.212 377.597 108.951 379.329C108.69 381.061 108.596 382.438 108.677 383.459C108.755 384.483 108.938 385.374 109.225 386.134C109.515 386.894 109.777 387.432 110.012 387.746C110.247 388.062 110.498 388.323 110.759 388.532C112.331 389.687 114.351 389.371 116.817 387.589C121.43 384.334 126.571 378.723 132.237 370.751C132.498 370.435 132.838 370.239 133.261 370.16C133.679 370.082 134.06 370.16 134.402 370.398C134.745 370.631 134.94 370.96 134.993 371.383C135.045 371.801 134.964 372.167 134.755 372.483L134.76 372.485ZM118.003 359.975C116.166 361.132 114.356 363.622 112.574 367.451C115.618 364.406 117.425 361.916 118.003 359.975Z" fill="#AE368A"/>
<path fill-rule="evenodd" clip-rule="evenodd" d="M185.928 181.243L210.091 206.046L251.309 192.734C243.499 198.826 233.961 204.21 224.975 210.108C216.932 215.393 218.844 212.465 215.744 222.415L210.718 239.585C217.115 235.1 222.329 227.743 228.967 224.705L253.694 249.563L290.448 172.346L185.928 181.243Z" fill="url(#paint1_linear_168_14)"/>
<path fill-rule="evenodd" clip-rule="evenodd" d="M192.129 122.33C208.782 122.215 220.832 125.995 232.59 135.122C241.832 142.303 250.421 153.896 253.412 167.179L279.302 165.312C280.597 151.049 262.774 125.488 249.577 115.071C218.176 90.2806 172.154 89.7817 141.024 115.405C112.712 138.698 102.141 175.549 114.64 210.913C123.908 237.14 160.958 277.697 181.077 298.652C183.948 301.641 185.674 303.574 188.156 306.082C190.094 308.043 193.305 311.876 195.522 313.302C199.746 310.624 245.523 260.276 248.091 255.028L227.726 235.128L195.645 261.797L200.261 245.82L194.825 241.925C194.506 241.871 192.179 241.831 191.703 241.829C157.789 241.424 132.594 208.633 135.859 176.011C138.649 148.073 162.143 123.584 192.129 122.327V122.33Z" fill="#FA666A"/>
<path fill-rule="evenodd" clip-rule="evenodd" d="M175.6 69.354C181.851 67.784 202.234 68.2856 210.126 68.5102C224.07 68.9047 221.807 80.4638 221.993 92.0829L246.195 102.892C246.075 80.2757 251.979 52.735 229.088 50.4101C223.048 49.7963 163.677 49.8642 160.914 50.6635C151.648 51.8495 145.227 58.9077 144.807 68.6565C144.331 79.7533 144.864 91.7642 144.776 102.989L169.04 92.0725C169.2 81.7934 166.977 73.6406 175.6 69.3566V69.354Z" fill="#FA666A"/>
</g>
<defs>
<linearGradient id="paint0_linear_168_14" x1="97.3984" y1="423.159" x2="358.25" y2="423.159" gradientUnits="userSpaceOnUse">
<stop stop-color="#3E396D"/>
<stop offset="0.988" stop-color="#AE368A"/>
<stop offset="1" stop-color="#AE368A"/>
</linearGradient>
<linearGradient id="paint1_linear_168_14" x1="198.02" y1="210.957" x2="290.448" y2="210.957" gradientUnits="userSpaceOnUse">
<stop stop-color="#3E396D"/>
<stop offset="0.988" stop-color="#AE368A"/>
<stop offset="1" stop-color="#AE368A"/>
</linearGradient>
<clipPath id="clip0_168_14">
<rect width="400" height="500" fill="white"/>
</clipPath>
</defs>
</svg>
