<svg width="400" height="500" viewBox="0 0 400 500" fill="none" xmlns="http://www.w3.org/2000/svg">
<rect width="400" height="500" fill="white"/>
<g clip-path="url(#clip0_33_32)">
<path fill-rule="evenodd" clip-rule="evenodd" d="M60.5084 392.059C61.2927 392.059 61.9683 391.968 62.5237 391.782C63.0819 391.598 63.5371 391.346 63.8892 391.026C64.2442 390.705 64.4989 390.324 64.665 389.884C64.8282 389.443 64.9112 388.962 64.9112 388.441C64.9112 387.405 64.5533 386.586 63.8377 385.99C63.1191 385.395 62.0113 385.1 60.5084 385.1H56.1514V392.059H60.5084ZM229.527 379.942V373.744H232.161C232.822 373.744 233.306 373.798 233.603 373.91C233.907 374.024 234.145 374.219 234.325 374.505C234.505 374.789 234.597 375.115 234.597 375.479C234.597 375.945 234.462 376.332 234.187 376.632C233.913 376.933 233.509 377.125 232.965 377.205C233.234 377.362 233.457 377.534 233.632 377.723C233.81 377.915 234.044 378.25 234.342 378.731L235.101 379.939H233.603L232.707 378.587C232.384 378.107 232.164 377.803 232.043 377.677C231.926 377.554 231.8 377.468 231.665 377.422C231.534 377.377 231.322 377.354 231.033 377.354H230.778V379.942H229.524H229.527ZM232.307 371.05C233.904 371.05 235.353 371.697 236.4 372.745C237.451 373.792 238.098 375.241 238.098 376.838C238.098 378.436 237.448 379.881 236.4 380.932C235.353 381.985 233.904 382.632 232.307 382.632C230.704 382.632 229.258 381.985 228.21 380.935C227.165 379.884 226.515 378.439 226.515 376.841C226.515 375.244 227.165 373.792 228.21 372.748C229.258 371.7 230.706 371.053 232.307 371.053V371.05ZM235.902 373.243C234.983 372.324 233.709 371.754 232.307 371.754C230.901 371.754 229.627 372.324 228.705 373.243C227.787 374.165 227.217 375.439 227.217 376.841C227.217 378.247 227.787 379.518 228.705 380.44C229.627 381.361 230.901 381.928 232.307 381.928C233.709 381.928 234.983 381.361 235.902 380.44C236.824 379.518 237.391 378.247 237.391 376.841C237.391 375.439 236.821 374.165 235.902 373.243ZM230.778 376.369H231.706C232.307 376.369 232.679 376.34 232.828 376.292C232.977 376.243 233.094 376.154 233.18 376.028C233.266 375.905 233.306 375.748 233.306 375.562C233.306 375.353 233.249 375.187 233.137 375.055C233.025 374.926 232.868 374.846 232.667 374.812C232.567 374.797 232.261 374.789 231.754 374.789H230.778V376.366V376.369ZM326.377 394.518V379.755H328.078C328.476 379.755 328.722 379.944 328.819 380.322L329.022 381.731C329.566 381.081 330.17 380.548 330.835 380.139C331.496 379.727 332.272 379.524 333.165 379.524C334.144 379.524 334.937 379.79 335.547 380.328C336.156 380.863 336.603 381.596 336.883 382.518C337.095 381.994 337.373 381.545 337.711 381.167C338.049 380.789 338.429 380.48 338.844 380.236C339.262 379.993 339.706 379.816 340.178 379.698C340.648 379.581 341.123 379.524 341.607 379.524C342.391 379.524 343.093 379.644 343.708 379.89C344.324 380.139 344.842 380.5 345.268 380.975C345.695 381.45 346.018 382.034 346.242 382.733C346.465 383.431 346.576 384.224 346.576 385.117V394.518H343.728V385.117C343.728 384.012 343.491 383.179 343.01 382.618C342.532 382.054 341.827 381.774 340.908 381.774C340.502 381.774 340.115 381.842 339.746 381.983C339.377 382.123 339.059 382.338 338.781 382.618C338.504 382.899 338.286 383.248 338.129 383.666C337.968 384.081 337.885 384.565 337.885 385.12V394.521H335.037V385.12C335.037 383.975 334.808 383.133 334.353 382.592C333.898 382.048 333.231 381.776 332.346 381.776C331.736 381.776 331.17 381.937 330.646 382.257C330.122 382.578 329.644 383.013 329.206 383.566V394.521H326.375L326.377 394.518ZM322.455 382.297C322.375 382.423 322.295 382.512 322.206 382.564C322.121 382.618 322.009 382.647 321.872 382.647C321.717 382.647 321.548 382.595 321.359 382.486C321.17 382.381 320.941 382.263 320.675 382.137C320.412 382.011 320.094 381.894 319.736 381.788C319.375 381.682 318.952 381.628 318.456 381.628C318.05 381.628 317.681 381.676 317.348 381.776C317.014 381.88 316.73 382.02 316.495 382.197C316.264 382.378 316.083 382.589 315.957 382.836C315.831 383.082 315.768 383.351 315.768 383.629C315.768 383.998 315.88 384.301 316.097 384.545C316.315 384.788 316.601 384.994 316.953 385.169C317.308 385.343 317.709 385.498 318.161 385.638C318.611 385.779 319.072 385.927 319.541 386.085C320.014 386.239 320.472 386.414 320.924 386.612C321.373 386.812 321.777 387.058 322.129 387.353C322.481 387.648 322.768 388.006 322.985 388.424C323.203 388.839 323.309 389.348 323.309 389.949C323.309 390.636 323.188 391.272 322.942 391.859C322.696 392.446 322.332 392.955 321.851 393.379C321.371 393.803 320.778 394.14 320.068 394.381C319.361 394.624 318.554 394.744 317.643 394.744C316.624 394.744 315.685 394.576 314.824 394.238C313.962 393.897 313.241 393.468 312.659 392.944L313.326 391.853C313.404 391.719 313.501 391.61 313.618 391.538C313.733 391.467 313.89 391.432 314.082 391.432C314.268 391.432 314.454 391.501 314.649 391.636C314.844 391.77 315.075 391.916 315.347 392.076C315.619 392.237 315.949 392.383 316.335 392.512C316.722 392.643 317.208 392.712 317.789 392.712C318.273 392.712 318.694 392.649 319.055 392.526C319.412 392.406 319.713 392.24 319.951 392.033C320.188 391.825 320.363 391.587 320.477 391.315C320.595 391.043 320.652 390.757 320.652 390.456C320.652 390.07 320.546 389.746 320.329 389.489C320.111 389.234 319.828 389.013 319.473 388.83C319.118 388.644 318.711 388.487 318.256 388.349C317.801 388.215 317.334 388.069 316.862 387.914C316.387 387.759 315.923 387.579 315.468 387.376C315.013 387.173 314.609 386.915 314.257 386.606C313.905 386.294 313.618 385.919 313.401 385.472C313.183 385.028 313.072 384.485 313.072 383.846C313.072 383.274 313.192 382.727 313.429 382.203C313.667 381.679 314.011 381.221 314.46 380.823C314.909 380.425 315.468 380.108 316.132 379.87C316.796 379.632 317.552 379.515 318.405 379.515C319.384 379.515 320.268 379.67 321.058 379.979C321.849 380.288 322.521 380.714 323.085 381.255L322.461 382.286L322.455 382.297ZM309.639 379.755V394.518H306.808V379.755H309.639ZM310.177 375.192C310.177 375.453 310.123 375.699 310.017 375.939C309.911 376.177 309.771 376.383 309.593 376.564C309.413 376.741 309.201 376.884 308.958 376.984C308.715 377.087 308.463 377.139 308.202 377.139C307.942 377.139 307.695 377.087 307.461 376.984C307.229 376.884 307.026 376.744 306.845 376.564C306.665 376.383 306.525 376.177 306.424 375.939C306.324 375.702 306.27 375.456 306.27 375.192C306.27 374.92 306.324 374.663 306.424 374.425C306.525 374.188 306.668 373.979 306.845 373.801C307.023 373.624 307.226 373.48 307.461 373.38C307.693 373.28 307.939 373.231 308.202 373.231C308.463 373.231 308.717 373.28 308.958 373.38C309.201 373.48 309.413 373.624 309.593 373.801C309.771 373.979 309.911 374.188 310.017 374.425C310.123 374.663 310.177 374.92 310.177 375.192ZM298.698 382.589C299.173 381.622 299.746 380.86 300.413 380.308C301.08 379.755 301.884 379.481 302.826 379.481C303.147 379.481 303.45 379.515 303.736 379.587C304.023 379.661 304.269 379.773 304.484 379.916L304.295 382.051C304.226 382.312 304.066 382.443 303.814 382.443C303.679 382.443 303.473 382.415 303.204 382.36C302.932 382.309 302.643 382.283 302.334 382.283C301.879 382.283 301.475 382.346 301.126 382.478C300.776 382.61 300.467 382.801 300.19 383.059C299.915 383.317 299.666 383.631 299.454 384.004C299.242 384.376 299.042 384.802 298.858 385.278V394.518H296.027V379.755H297.653C297.965 379.755 298.177 379.81 298.289 379.921C298.4 380.03 298.478 380.231 298.526 380.511L298.701 382.589H298.698ZM292.057 379.755V394.518H290.356C289.967 394.518 289.715 394.329 289.6 393.951L289.397 392.469C289.077 392.806 288.745 393.118 288.395 393.399C288.046 393.68 287.674 393.92 287.276 394.118C286.878 394.315 286.457 394.472 286.011 394.581C285.567 394.693 285.086 394.75 284.574 394.75C283.761 394.75 283.048 394.616 282.435 394.344C281.82 394.072 281.302 393.691 280.884 393.201C280.466 392.712 280.151 392.125 279.939 391.438C279.727 390.751 279.618 389.99 279.618 389.156V379.755H282.467V389.156C282.467 390.213 282.71 391.032 283.194 391.618C283.678 392.205 284.419 392.5 285.415 392.5C286.142 392.5 286.818 392.325 287.451 391.982C288.08 391.638 288.67 391.166 289.223 390.568V379.755H292.057ZM269.536 379.524C270.621 379.524 271.603 379.698 272.479 380.05C273.355 380.402 274.102 380.912 274.717 381.576C275.333 382.24 275.802 383.039 276.132 383.972C276.461 384.908 276.627 385.959 276.627 387.121C276.627 388.283 276.461 389.334 276.132 390.273C275.802 391.212 275.333 392.013 274.717 392.672C274.102 393.33 273.358 393.834 272.479 394.186C271.603 394.541 270.621 394.719 269.536 394.719C268.439 394.719 267.458 394.541 266.582 394.186C265.706 393.831 264.953 393.33 264.334 392.672C263.716 392.013 263.241 391.215 262.906 390.273C262.571 389.334 262.402 388.28 262.402 387.121C262.402 385.959 262.571 384.908 262.906 383.972C263.241 383.036 263.716 382.24 264.334 381.576C264.956 380.912 265.706 380.402 266.582 380.05C267.458 379.695 268.442 379.524 269.536 379.524ZM269.536 392.514C270.93 392.514 271.972 392.045 272.659 391.106C273.346 390.167 273.693 388.844 273.693 387.138C273.693 385.432 273.349 384.107 272.659 383.162C271.972 382.217 270.93 381.748 269.536 381.748C268.119 381.748 267.071 382.217 266.378 383.162C265.686 384.107 265.336 385.432 265.336 387.138C265.336 388.844 265.686 390.167 266.378 391.106C267.071 392.045 268.122 392.514 269.536 392.514ZM264.346 376.24H257.722V394.518H254.641V376.24H247.986V373.655H264.346V376.24ZM221.583 383.331C221.119 382.721 220.618 382.295 220.08 382.054C219.542 381.811 218.938 381.691 218.271 381.691C216.971 381.691 215.969 382.154 215.257 383.09C214.544 384.027 214.186 385.389 214.186 387.184C214.186 388.123 214.269 388.925 214.429 389.586C214.59 390.25 214.821 390.791 215.128 391.215C215.431 391.636 215.806 391.945 216.25 392.145C216.696 392.346 217.2 392.446 217.761 392.446C218.583 392.446 219.296 392.263 219.897 391.896C220.498 391.527 221.059 391.009 221.583 390.342V383.34V383.331ZM224.431 373.071V394.518H222.717C222.319 394.518 222.073 394.329 221.975 393.951L221.729 392.251C221.099 392.998 220.386 393.594 219.588 394.043C218.789 394.493 217.862 394.722 216.817 394.722C215.972 394.722 215.214 394.556 214.529 394.226C213.845 393.897 213.261 393.413 212.777 392.778C212.294 392.142 211.919 391.358 211.658 390.419C211.398 389.48 211.266 388.401 211.266 387.178C211.266 386.082 211.412 385.066 211.704 384.127C211.993 383.188 212.417 382.375 212.969 381.685C213.522 380.998 214.189 380.454 214.973 380.062C215.757 379.67 216.645 379.475 217.633 379.475C218.523 379.475 219.284 379.621 219.908 379.91C220.535 380.199 221.091 380.611 221.586 381.144V373.065H224.434L224.431 373.071ZM206.457 385.495C206.457 384.931 206.379 384.413 206.219 383.941C206.059 383.465 205.821 383.053 205.512 382.707C205.2 382.358 204.822 382.086 204.378 381.894C203.932 381.699 203.419 381.602 202.838 381.602C201.644 381.602 200.711 381.945 200.027 382.632C199.343 383.319 198.908 384.276 198.722 385.495H206.454H206.457ZM208.795 392.411C208.446 392.818 208.045 393.164 207.587 393.462C207.132 393.757 206.648 394 206.133 394.183C205.621 394.369 205.091 394.504 204.544 394.593C203.998 394.679 203.454 394.722 202.921 394.722C201.902 394.722 200.963 394.547 200.096 394.203C199.228 393.86 198.478 393.356 197.843 392.692C197.207 392.028 196.715 391.206 196.36 390.221C196.005 389.24 195.827 388.109 195.827 386.832C195.827 385.804 195.988 384.845 196.308 383.961C196.629 383.076 197.087 382.306 197.685 381.645C198.281 380.986 199.008 380.468 199.87 380.09C200.731 379.712 201.702 379.524 202.775 379.524C203.677 379.524 204.51 379.67 205.271 379.964C206.033 380.259 206.686 380.692 207.238 381.253C207.791 381.817 208.226 382.509 208.541 383.331C208.856 384.155 209.013 385.094 209.013 386.151C209.013 386.586 208.964 386.878 208.867 387.027C208.77 387.178 208.589 387.256 208.329 387.256H198.653C198.682 388.137 198.808 388.902 199.031 389.554C199.254 390.21 199.563 390.757 199.955 391.192C200.348 391.627 200.814 391.953 201.355 392.165C201.899 392.377 202.503 392.486 203.17 392.486C203.8 392.486 204.347 392.414 204.808 392.268C205.269 392.122 205.667 391.965 205.999 391.793C206.334 391.624 206.614 391.47 206.843 391.324C207.072 391.178 207.27 391.106 207.444 391.106C207.676 391.106 207.856 391.192 207.98 391.366L208.795 392.414V392.411ZM194.047 380.946C194.047 381.15 194.013 381.35 193.941 381.545C193.867 381.739 193.772 381.902 193.655 382.037L185.911 392.297H193.786V394.521H182.585V393.33C182.585 393.193 182.619 393.03 182.685 392.841C182.754 392.652 182.848 392.477 182.974 392.314L190.763 381.983H183.034V379.758H194.047V380.949V380.946ZM177.177 387.966C176.023 388.006 175.047 388.092 174.243 388.232C173.438 388.372 172.786 388.561 172.282 388.793C171.778 389.025 171.415 389.297 171.191 389.612C170.968 389.927 170.856 390.282 170.856 390.668C170.856 391.034 170.922 391.352 171.042 391.616C171.163 391.882 171.329 392.099 171.535 392.268C171.744 392.437 171.987 392.563 172.268 392.64C172.548 392.718 172.852 392.758 173.184 392.758C173.619 392.758 174.02 392.715 174.383 392.629C174.747 392.54 175.084 392.417 175.405 392.257C175.726 392.096 176.029 391.902 176.318 391.67C176.61 391.438 176.897 391.172 177.177 390.871V387.966ZM168.867 381.819C169.691 381.035 170.587 380.448 171.552 380.062C172.517 379.675 173.57 379.481 174.724 379.481C175.565 379.481 176.313 379.615 176.962 379.893C177.612 380.168 178.159 380.557 178.606 381.049C179.049 381.545 179.39 382.134 179.616 382.821C179.845 383.511 179.957 384.27 179.957 385.103V394.518H178.691C178.411 394.518 178.196 394.47 178.05 394.378C177.904 394.286 177.79 394.118 177.701 393.866L177.398 392.572C177.02 392.921 176.647 393.227 176.278 393.493C175.912 393.76 175.528 393.986 175.127 394.178C174.727 394.367 174.294 394.51 173.839 394.61C173.384 394.707 172.88 394.756 172.328 394.756C171.747 394.756 171.206 394.673 170.696 394.513C170.186 394.352 169.743 394.112 169.365 393.783C168.987 393.453 168.692 393.041 168.472 392.549C168.254 392.054 168.142 391.478 168.142 390.82C168.142 390.239 168.303 389.677 168.618 389.139C168.933 388.604 169.445 388.123 170.158 387.697C170.871 387.27 171.798 386.921 172.949 386.649C174.097 386.377 175.505 386.222 177.183 386.185V385.111C177.183 383.998 176.945 383.165 176.473 382.612C175.998 382.063 175.299 381.785 174.38 381.785C173.759 381.785 173.241 381.862 172.82 382.02C172.399 382.174 172.036 382.343 171.729 382.532C171.423 382.721 171.157 382.896 170.928 383.05C170.699 383.205 170.464 383.285 170.221 383.285C170.026 383.285 169.86 383.231 169.723 383.125C169.582 383.019 169.468 382.893 169.379 382.747L168.87 381.831L168.867 381.819ZM165.091 373.655V394.521H162.388V379.67C162.388 379.446 162.397 379.209 162.414 378.96C162.429 378.708 162.443 378.45 162.463 378.19L155.518 390.934C155.275 391.409 154.903 391.647 154.399 391.647H153.961C153.457 391.647 153.09 391.409 152.859 390.934L145.782 378.147C145.839 378.688 145.868 379.197 145.868 379.672V394.524H143.151V373.658H145.447C145.719 373.658 145.931 373.681 146.083 373.735C146.231 373.79 146.375 373.938 146.509 374.182L153.483 386.677C153.617 386.929 153.743 387.198 153.861 387.479C153.978 387.759 154.087 388.04 154.195 388.321C154.399 387.748 154.636 387.198 154.908 386.666L161.75 374.185C161.876 373.941 162.016 373.792 162.165 373.738C162.317 373.684 162.526 373.661 162.795 373.661H165.091V373.655ZM136.667 394.753C135.476 394.753 134.56 394.421 133.916 393.751C133.272 393.084 132.946 392.128 132.946 390.888V382.054H131.231C131.065 382.054 130.93 382 130.819 381.9C130.707 381.799 130.65 381.648 130.65 381.444V380.296L133.046 379.964L133.684 375.562C133.724 375.398 133.802 375.267 133.913 375.175C134.025 375.084 134.165 375.041 134.34 375.041H135.777V379.996H139.962V382.06H135.777V390.705C135.777 391.286 135.923 391.716 136.209 392.002C136.495 392.288 136.859 392.434 137.306 392.434C137.566 392.434 137.795 392.4 137.984 392.334C138.173 392.265 138.333 392.188 138.468 392.105C138.602 392.022 138.72 391.95 138.817 391.882C138.914 391.816 139.003 391.782 139.078 391.782C139.175 391.782 139.252 391.799 139.307 391.845C139.361 391.887 139.413 391.962 139.47 392.056L140.314 393.422C139.848 393.846 139.295 394.178 138.657 394.41C138.016 394.644 137.354 394.759 136.664 394.759L136.667 394.753ZM128.079 379.758V394.521H126.379C125.989 394.521 125.738 394.332 125.623 393.954L125.42 392.471C125.099 392.809 124.767 393.121 124.418 393.402C124.069 393.682 123.696 393.923 123.299 394.12C122.901 394.318 122.48 394.475 122.033 394.584C121.589 394.696 121.109 394.753 120.596 394.753C119.783 394.753 119.07 394.618 118.458 394.347C117.842 394.075 117.324 393.694 116.906 393.204C116.488 392.715 116.173 392.128 115.961 391.441C115.75 390.754 115.641 389.992 115.641 389.159V379.758H118.489V389.159C118.489 390.216 118.733 391.034 119.216 391.621C119.7 392.208 120.442 392.503 121.438 392.503C122.165 392.503 122.84 392.328 123.473 391.985C124.103 391.641 124.693 391.169 125.245 390.571V379.758H128.079ZM112.718 384.09C112.718 385.65 112.472 387.078 111.974 388.381C111.476 389.683 110.766 390.808 109.855 391.75C108.945 392.695 107.854 393.43 106.586 393.954C105.318 394.478 103.91 394.739 102.361 394.739C100.818 394.739 99.4151 394.478 98.1412 393.954C96.8673 393.43 95.7767 392.695 94.872 391.75C93.9674 390.805 93.2603 389.68 92.7565 388.381C92.2527 387.078 92.0008 385.65 92.0008 384.09C92.0008 382.538 92.2527 381.109 92.7565 379.804C93.2603 378.496 93.9674 377.368 94.872 376.423C95.7767 375.479 96.8673 374.743 98.1412 374.216C99.4151 373.689 100.818 373.426 102.361 373.426C103.91 373.426 105.318 373.687 106.586 374.216C107.857 374.746 108.945 375.481 109.855 376.423C110.766 377.368 111.473 378.496 111.974 379.804C112.472 381.112 112.718 382.541 112.718 384.09ZM109.552 384.09C109.552 382.85 109.383 381.736 109.045 380.749C108.705 379.761 108.226 378.922 107.602 378.235C106.978 377.548 106.223 377.019 105.335 376.652C104.448 376.283 103.454 376.1 102.361 376.1C101.264 376.1 100.277 376.286 99.3894 376.652C98.5019 377.019 97.7433 377.548 97.1135 378.235C96.4837 378.922 95.9999 379.761 95.6593 380.749C95.3215 381.736 95.1526 382.85 95.1526 384.09C95.1526 385.341 95.3215 386.454 95.6593 387.439C95.9999 388.421 96.4837 389.26 97.1135 389.947C97.7433 390.634 98.5019 391.157 99.3894 391.521C100.277 391.885 101.264 392.068 102.361 392.068C103.454 392.068 104.448 391.882 105.335 391.521C106.223 391.157 106.978 390.634 107.602 389.947C108.226 389.26 108.707 388.421 109.045 387.439C109.383 386.454 109.552 385.341 109.552 384.09ZM83.9051 379.758L75.7092 398.809C75.6233 399.021 75.506 399.187 75.36 399.302C75.214 399.419 75.0021 399.476 74.7216 399.476H72.6118L75.3142 393.591L69.2567 379.758H71.7244C71.9677 379.758 72.1566 379.818 72.2912 379.933C72.4257 380.05 72.5231 380.179 72.5832 380.325L76.3333 389.191C76.4106 389.414 76.4879 389.637 76.5594 389.864C76.6339 390.093 76.6911 390.319 76.7398 390.542C76.8085 390.31 76.8801 390.075 76.9574 389.849C77.0346 389.62 77.1177 389.397 77.2035 389.177L80.8191 380.328C80.8878 380.165 80.9937 380.027 81.1397 379.921C81.2857 379.816 81.4489 379.761 81.635 379.761H83.9022L83.9051 379.758ZM56.1514 376.083V382.91H59.7097C61.2298 382.91 62.3634 382.601 63.1048 381.985C63.8463 381.37 64.2127 380.543 64.2127 379.495C64.2127 378.304 63.8577 377.437 63.1535 376.893C62.4464 376.352 61.3471 376.08 59.8528 376.08H56.1485L56.1514 376.083ZM59.8557 373.658C61.1639 373.658 62.289 373.784 63.2222 374.036C64.1583 374.288 64.9226 374.651 65.5238 375.126C66.125 375.602 66.5715 376.174 66.8549 376.847C67.1412 377.52 67.2815 378.284 67.2815 379.137C67.2815 379.641 67.2042 380.125 67.0496 380.591C66.895 381.055 66.6574 381.487 66.3397 381.891C66.019 382.292 65.6183 382.655 65.1316 382.976C64.6478 383.294 64.0753 383.56 63.4169 383.775C66.4484 384.376 67.9657 385.959 67.9657 388.527C67.9657 389.417 67.8025 390.227 67.4704 390.957C67.1412 391.687 66.6603 392.323 66.0334 392.855C65.4036 393.388 64.6278 393.8 63.7088 394.089C62.7871 394.378 61.7422 394.524 60.5713 394.524H53.0597V373.658H59.8585H59.8557Z" fill="#5F6266"/>
<path d="M39.399 286.541C38.6718 285.198 37.6155 284.176 36.2386 283.449C34.8759 282.742 33.2671 282.37 31.4121 282.37C28.1973 282.37 25.6352 283.432 23.7143 285.533C21.7677 287.631 20.8144 290.44 20.8144 293.958C20.8144 297.702 21.8221 300.637 23.8517 302.735C25.8871 304.836 28.6753 305.881 32.2251 305.881C34.644 305.881 36.7138 305.263 38.3884 304.026C40.0688 302.806 41.2883 301.026 42.0613 298.71H29.5027V291.413H51.0358V300.617C50.2915 303.09 49.0548 305.386 47.3086 307.507C45.5423 309.625 43.3151 311.357 40.6099 312.666C37.9104 313.974 34.8502 314.626 31.4607 314.626C27.453 314.626 23.8632 313.762 20.7199 311.993C17.5767 310.244 15.1205 307.805 13.3686 304.679C11.6051 301.553 10.7177 297.966 10.7177 293.958C10.7177 289.947 11.6023 286.36 13.3686 283.217C15.1177 280.071 17.5567 277.618 20.6827 275.866C23.8088 274.102 27.3785 273.232 31.4063 273.232C36.2672 273.232 40.3608 274.397 43.7016 276.75C47.0395 279.115 49.2466 282.367 50.343 286.535H39.3932L39.4018 286.541H39.399ZM370.675 307.172H355.5L353.063 314.343H342.712L357.406 273.696H368.871L383.585 314.343H373.111L370.672 307.172H370.675ZM368.13 299.526L363.097 284.634L358.116 299.526H368.133H368.13ZM316.481 313.304C314.117 312.331 312.239 310.919 310.827 309.013C309.41 307.123 308.672 304.842 308.603 302.197H319.146C319.289 303.697 319.819 304.848 320.701 305.641C321.585 306.419 322.748 306.823 324.182 306.823C325.613 306.823 326.798 306.488 327.643 305.798C328.49 305.125 328.934 304.189 328.934 302.99C328.934 301.999 328.579 301.172 327.909 300.516C327.236 299.846 326.409 299.317 325.418 298.89C324.445 298.467 323.034 297.974 321.23 297.445C318.597 296.635 316.461 295.819 314.798 295.009C313.135 294.198 311.706 292.993 310.507 291.422C309.304 289.833 308.706 287.769 308.706 285.221C308.706 281.442 310.086 278.471 312.823 276.335C315.559 274.2 319.146 273.12 323.543 273.12C327.943 273.12 331.633 274.2 334.373 276.335C337.115 278.471 338.578 281.459 338.773 285.275H328.052C327.981 283.967 327.505 282.942 326.604 282.184C325.722 281.422 324.588 281.053 323.197 281.053C321.998 281.053 321.041 281.374 320.3 282.009C319.573 282.645 319.201 283.563 319.201 284.763C319.201 286.071 319.819 287.096 321.056 287.835C322.292 288.562 324.219 289.352 326.853 290.202C329.469 291.084 331.605 291.931 333.248 292.744C334.891 293.554 336.302 294.742 337.502 296.277C338.684 297.831 339.285 299.809 339.285 302.248C339.285 304.684 338.704 306.665 337.519 308.555C336.354 310.444 334.639 311.961 332.395 313.078C330.15 314.189 327.523 314.758 324.462 314.758C321.402 314.758 318.826 314.283 316.475 313.313L316.481 313.304ZM302.577 273.702V314.349H292.669V273.702H302.577ZM288.57 273.702L274.156 314.349H261.752L247.339 273.702H257.865L267.953 304.381L278.075 273.702H288.57ZM220.424 306.697H233.389V314.349H210.516V273.702H220.424V306.697ZM193.145 307.172H177.97L175.534 314.343H165.165L179.88 273.696H191.347L206.062 314.343H195.567L193.148 307.172H193.145ZM190.586 299.526L185.553 284.634L180.572 299.526H190.589H190.586ZM159.955 296.998C161.384 298.836 162.091 300.934 162.091 303.287C162.091 306.677 160.908 309.382 158.538 311.357C156.156 313.355 152.85 314.34 148.596 314.34H129.659V273.693H147.961C152.094 273.693 155.329 274.629 157.656 276.518C160.01 278.408 161.172 280.987 161.172 284.219C161.172 286.621 160.536 288.599 159.283 290.191C158.029 291.782 156.368 292.873 154.284 293.491C156.637 293.984 158.527 295.155 159.955 296.989V296.998ZM139.57 290.139H146.051C147.677 290.139 148.914 289.784 149.796 289.06C150.66 288.353 151.087 287.296 151.087 285.899C151.087 284.502 150.663 283.463 149.796 282.719C148.914 281.992 147.677 281.623 146.051 281.623H139.57V290.136V290.139ZM150.714 305.225C151.616 304.464 152.077 303.37 152.077 301.939C152.077 300.505 151.602 299.394 150.66 298.584C149.707 297.774 148.399 297.385 146.753 297.385H139.564V306.356H146.861C148.522 306.356 149.813 305.967 150.712 305.225H150.714ZM92.8682 312.084C89.6878 310.318 87.1629 307.828 85.2907 304.65C83.4156 301.47 82.4824 297.886 82.4824 293.909C82.4824 289.933 83.4185 286.369 85.2907 283.186C87.1629 280.022 89.6878 277.552 92.8682 275.786C96.0658 274.002 99.564 273.118 103.38 273.118C107.196 273.118 110.711 273.999 113.892 275.786C117.089 277.549 119.597 280.028 121.415 283.186C123.253 286.366 124.169 289.936 124.169 293.909C124.169 297.883 123.25 301.47 121.395 304.65C119.543 307.83 117.032 310.321 113.872 312.084C110.691 313.868 107.21 314.752 103.377 314.752C99.544 314.752 96.0629 313.871 92.8653 312.084H92.8682ZM111.164 302.472C113.125 300.316 114.098 297.456 114.098 293.904C114.098 290.351 113.125 287.44 111.164 285.298C109.22 283.163 106.623 282.081 103.374 282.081C100.128 282.081 97.4771 283.143 95.5305 285.261C93.5867 287.397 92.6163 290.259 92.6163 293.901C92.6163 297.542 93.5896 300.345 95.5305 302.503C97.4743 304.639 100.102 305.718 103.374 305.718C106.643 305.718 109.22 304.621 111.164 302.466V302.472ZM66.4399 306.694H79.4078V314.346H56.5321V273.699H66.4399V306.694Z" fill="#59C2B9"/>
<path d="M135.468 355.746C133.913 355.056 132.694 354.083 131.795 352.829C130.913 351.592 130.47 350.127 130.47 348.449H135.559C135.665 349.703 136.161 350.748 137.042 351.541C137.907 352.351 139.144 352.76 140.732 352.76C142.324 352.76 143.647 352.351 144.568 351.561C145.487 350.782 145.948 349.76 145.948 348.506C145.948 347.533 145.668 346.743 145.101 346.125C144.537 345.506 143.81 345.045 142.965 344.707C142.118 344.373 140.95 344 139.45 343.608C137.56 343.116 136.023 342.601 134.841 342.091C133.659 341.581 132.651 340.783 131.806 339.689C130.976 338.61 130.553 337.161 130.553 335.364C130.553 333.683 130.976 332.22 131.806 330.984C132.654 329.73 133.822 328.757 135.322 328.104C136.822 327.431 138.557 327.096 140.529 327.096C143.337 327.096 145.653 327.803 147.437 329.197C149.237 330.614 150.225 332.535 150.42 334.974H145.155C145.084 333.912 144.574 333.013 143.655 332.275C142.736 331.513 141.537 331.144 140.034 331.144C138.671 331.144 137.563 331.499 136.696 332.189C135.831 332.879 135.405 333.887 135.405 335.189C135.405 336.091 135.668 336.815 136.215 337.379C136.745 337.943 137.434 338.404 138.282 338.739C139.109 339.074 140.243 339.429 141.688 339.818C143.615 340.348 145.187 340.88 146.386 341.41C147.606 341.936 148.63 342.752 149.478 343.846C150.325 344.957 150.749 346.425 150.749 348.263C150.749 349.729 150.342 351.126 149.567 352.434C148.774 353.742 147.603 354.787 146.103 355.577C144.585 356.37 142.785 356.777 140.732 356.777C138.789 356.777 137.022 356.422 135.468 355.752L135.465 355.749L135.468 355.746ZM262.791 340.27C262.102 341.579 260.991 342.652 259.454 343.468C257.916 344.295 255.955 344.705 253.571 344.705H248.309V356.47H243.557V327.466H253.571C255.798 327.466 257.687 327.855 259.225 328.611C260.762 329.369 261.924 330.411 262.686 331.719C263.447 333.028 263.831 334.491 263.831 336.099C263.831 337.582 263.476 338.962 262.786 340.27H262.791ZM257.619 339.583C258.5 338.773 258.961 337.602 258.961 336.102C258.961 332.942 257.161 331.35 253.574 331.35H248.309V340.82H253.571C255.371 340.82 256.734 340.411 257.616 339.583H257.619ZM208.283 354.861C206.004 353.59 204.221 351.824 202.893 349.563C201.567 347.301 200.915 344.739 200.915 341.893C200.915 339.048 201.567 336.523 202.893 334.259C204.218 332.014 206.002 330.251 208.283 328.98C210.545 327.726 213.035 327.091 215.717 327.091C218.4 327.091 220.945 327.726 223.206 328.98C225.488 330.251 227.268 332.017 228.577 334.259C229.885 336.52 230.538 339.065 230.538 341.893C230.538 344.719 229.885 347.298 228.577 349.563C227.268 351.824 225.485 353.59 223.206 354.861C220.945 356.132 218.454 356.768 215.717 356.768C212.981 356.768 210.539 356.132 208.283 354.861ZM220.862 351.309C222.362 350.444 223.53 349.19 224.394 347.564C225.242 345.921 225.665 344.049 225.665 341.893C225.665 339.738 225.239 337.883 224.394 336.277C223.53 334.651 222.359 333.414 220.862 332.553C219.359 331.705 217.644 331.261 215.72 331.261C213.794 331.261 212.099 331.705 210.596 332.553C209.096 333.417 207.914 334.651 207.064 336.277C206.216 337.886 205.793 339.758 205.793 341.893C205.793 344.029 206.219 345.918 207.064 347.564C207.911 349.19 209.096 350.444 210.596 351.309C212.099 352.191 213.811 352.634 215.72 352.634C217.63 352.634 219.356 352.191 220.862 351.309ZM187.901 327.463V356.467H183.132V343.783H169.491V356.467H164.722V327.463H169.491V339.895H183.132V327.463H187.901Z" fill="#0A7BB4"/>
<path d="M282.366 187.795L314.36 176.906C314.932 176.642 315.514 176.31 316.163 175.792C317.119 175.03 318.096 174.329 319.069 173.571L312.204 162.987L316.086 161.722C316.556 161.562 317.766 162.518 318.161 162.841C320.764 165.008 323.111 167.968 325.673 170.247L350.161 160.803L326.286 132.036C329.483 130.645 333.674 133.135 336.288 134.979C338.67 136.659 340.785 138.735 343.224 140.358C344.455 140.412 347.776 138.551 348.698 138.878C349.382 139.132 349.874 141.028 349.382 141.712L346.33 142.705L352.001 147.257L357.761 145.777C358.356 146.086 359.009 148.339 358.374 148.559L355.325 149.553H355.333L363.137 155.816C365.052 155.055 367.002 154.408 368.934 153.703C373.7 151.986 376.391 150.975 381.593 150.904C394.235 150.706 388.04 157.167 381.45 160.926C376.629 163.654 371.502 164.467 366.318 166.199L363.899 175.643L366.947 174.633C370.758 178.228 364.926 178.134 362.596 179.382L360.664 186.372C360.901 187.002 363.338 185.522 364.093 185.811C364.672 186.009 365.213 187.85 364.944 188.285C364.508 189.026 360.592 189.948 359.582 190.217C357.993 195.003 357.18 201.865 353.496 205.567C352.771 206.308 351.961 207.067 350.856 206.941L353.169 169.958L327.832 176.785C327.417 177.112 326.44 185.654 326.025 187.114C325.848 187.764 325.43 189.189 324.706 189.427L321.239 190.563L320.532 177.741C319.109 178.148 317.034 177.504 315.677 177.575C304.784 181.074 282.507 188.222 282.504 188.222C282.387 188.259 282.263 188.196 282.223 188.079C282.186 187.961 282.252 187.838 282.361 187.798L282.366 187.795Z" fill="#F37B56"/>
<path fill-rule="evenodd" clip-rule="evenodd" d="M232.705 220.971L232.856 219.76C233.449 219.623 234.17 219.256 234.374 220.51C234.462 221.062 234.52 221.415 234.52 222.027H232.856C232.816 221.555 232.705 221.489 232.705 220.968V220.971ZM136.561 202.859H143.563C143.658 202.859 143.732 202.933 143.732 203.028C143.732 203.122 143.655 203.199 143.563 203.199H136.561C136.467 203.199 136.392 203.125 136.392 203.028C136.392 202.933 136.47 202.859 136.561 202.859ZM142.959 216.783L155.976 216.771L155.933 217.129H142.959C142.868 217.129 142.788 217.052 142.788 216.957C142.788 216.863 142.865 216.786 142.959 216.786V216.783ZM139.891 212.045H143.383C143.478 212.045 143.555 212.119 143.555 212.214C143.555 212.308 143.478 212.386 143.383 212.386H139.891C139.796 212.386 139.722 212.308 139.722 212.214C139.722 212.119 139.796 212.045 139.891 212.045ZM147.291 212.039L156.537 212.028L156.494 212.386H147.291C147.202 212.386 147.119 212.308 147.119 212.211C147.119 212.117 147.196 212.039 147.291 212.039ZM60.0961 226.112V222.597C60.2822 221.664 61.0866 222.03 64.0295 222.03C64.1239 221.629 64.5304 220.736 64.7337 220.312C65.0257 219.711 65.2003 219.25 65.4894 218.649C65.7814 218.048 65.9561 217.587 66.2481 216.986L69.981 208.767C71.5183 205.467 73.1357 202.183 74.5327 198.796C74.8018 198.147 75.005 197.82 75.2913 197.133C75.5432 196.524 75.8352 196.189 75.984 195.556H75.0766V192.229H77.6473V187.841H77.0432V185.874H81.1283L84.4175 173.281C84.5377 172.715 84.595 171.999 84.9099 171.504C84.7295 171.057 85.2477 171.269 84.4576 171.2V168.478H85.8174C85.8317 167.774 86.1208 166.5 86.2267 165.861C86.5874 163.709 87.3289 160.402 87.3289 158.341H86.7248V156.223C88.222 156.223 88.2564 156.523 88.5197 154.84C88.7717 153.223 89.1581 151.685 89.2955 150.019H88.0846V148.053H89.5961L90.5036 141.549H89.2927V139.582C91.4139 139.582 90.704 139.422 91.0017 137.054C91.1191 136.112 91.2593 135.328 91.2593 134.134H90.0484V132.319H91.5628C91.5628 131.669 91.8548 128.417 92.018 128.082H90.6553C90.6553 126.173 90.2488 126.116 92.1697 126.116C92.1697 123.98 92.622 121.879 92.622 119.761H91.5628V117.946H92.7737V114.164H91.5628V112.197H92.7737V108.416H91.5628V106.601C93.2947 106.601 92.7737 106.652 92.7737 102.819C91.0818 102.819 91.5628 102.504 91.5628 100.853H92.7737V97.071H91.5628V95.256C93.2918 95.256 92.7737 95.1072 92.7737 92.5308H91.7145V84.3607H93.5294C93.5294 82.4799 93.2804 82.5457 95.4961 82.5457C95.685 80.2699 96.4666 76.8833 96.8559 74.5273C96.9962 73.6742 97.1193 72.7668 97.3082 71.9566L98.7138 79.9292C98.8197 80.5705 99.1088 81.8415 99.1231 82.5457H101.09V84.3607C101.608 84.3607 103.056 84.0372 103.056 84.813V92.5279H101.997V95.2532H103.208V97.0681H101.997V100.85H103.208C103.208 102.501 103.692 102.816 101.997 102.816V106.598H103.056V108.413H101.997V112.195H103.056V114.161H101.997V117.943H103.056V119.758H101.997C102.043 121.899 102.45 123.969 102.45 126.113H103.961V128.08H102.75C102.75 129.634 103.054 130.762 103.054 132.316H104.565V134.131H103.354C103.354 135.643 103.649 138.242 103.958 139.579H105.321V141.546H104.11C104.227 141.789 105.017 147.474 105.017 148.05H106.529V150.016H105.318C105.776 151.977 105.919 154.256 106.377 156.217C108.573 156.217 108.04 156.374 108.04 158.335H107.285C107.285 160.165 108.098 163.94 108.43 165.964C108.581 166.88 108.799 167.542 108.799 168.472H110.311V171.194H109.706C110.122 172.065 111.204 177.421 111.519 178.609L113.485 185.869H117.722V187.835H116.966C116.966 193.031 116.202 192.224 119.537 192.224V195.55H118.629L122.626 204.413L131.46 216.683H128.99C128.895 216.683 128.821 216.76 128.821 216.854C128.821 216.949 128.898 217.023 128.99 217.023H129.43L129.367 217.032L130.492 217.023H131.039C131.526 217.035 131.818 217.046 131.987 217.272L135.11 221.475L135.267 221.42L128.915 212.494L128.99 212.383H137.329C137.423 212.383 137.5 212.305 137.5 212.211C137.5 212.117 137.426 212.042 137.329 212.042H129.213L131.898 207.9H139.719C139.813 207.9 139.888 207.823 139.888 207.728C139.888 207.634 139.813 207.559 139.719 207.559H132.118L138.454 197.789H143.744C143.838 197.789 143.913 197.714 143.913 197.617C143.913 197.523 143.838 197.448 143.744 197.448H138.674L143.438 190.105L145.504 193.203H143.417C143.326 193.203 143.249 193.277 143.249 193.372C143.249 193.466 143.326 193.543 143.417 193.543H145.731L151.94 202.859H148.834C148.739 202.859 148.665 202.933 148.665 203.028C148.665 203.122 148.739 203.199 148.834 203.199H152.166L155.071 207.559H148.55C148.456 207.559 148.381 207.634 148.381 207.728C148.381 207.823 148.456 207.9 148.55 207.9H155.3L156.749 210.075C156.778 208.744 157.07 207.402 157.216 206.154C157.347 205.017 157.656 203.357 157.656 202.206C158.83 201.585 159.881 199.589 160.728 198.47C161.238 197.792 161.604 197.222 162.111 196.524C162.592 195.857 163.13 195.324 163.491 194.577C163.745 194.047 163.954 192.579 164.1 191.857C164.298 190.864 164.435 190.022 164.627 189.058C165.074 186.833 165.114 185.866 166.176 183.951L174.549 168.876C174.79 168.443 175.969 166.958 174.75 166.958C174.271 166.958 174.177 167.49 173.994 167.865L171.675 172.05C169.857 175.457 167.745 178.806 165.975 182.236L164.853 184.288C163.96 185.768 163.176 191.502 162.818 193.297C162.563 194.585 159.97 197.852 159.059 199.071C158.653 199.615 158.149 200.514 157.656 200.843C157.387 197.594 155.04 186.221 155.292 184.569C155.721 181.729 156.683 177.744 156.901 175.125C156.056 174.558 155.607 174.163 155.965 173.144L157.983 166.829C158.458 165.06 160.511 166.588 162.466 159.512C162.592 159.051 163.797 156.518 162.649 156.518C161.985 156.518 161.773 158.421 161.61 158.959C161.344 159.827 161.072 160.56 160.777 161.456C160.502 162.292 160.17 163.251 159.666 163.826C159.197 164.358 158.404 165.083 157.656 165.143C157.614 163.19 155.993 160.66 155.993 158.942V153.798C154.694 153.798 153.692 153.658 153.088 152.922C151.381 150.844 152.438 147.062 153.423 144.875C154.376 142.762 154.078 143.418 153.182 140.272C151.88 135.694 152.512 134.252 152.512 129.746C152.512 128.432 152.352 127.57 152.358 126.422C152.366 125.122 152.2 124.447 152.209 123.242C152.22 121.023 152.212 118.802 152.212 116.583C149.306 115.907 149.942 115.452 149.942 112.65H151.152C150.646 111.694 150.265 110.623 150.846 109.621L151.39 108.954C152.272 108.152 152.24 108.636 153.125 108.267C154.027 107.892 154.33 105.642 154.33 104.783C155.026 104.969 155.478 105.696 155.959 106.18C157.047 107.274 157.605 108.774 157.313 110.34C157.158 111.158 157.224 110.74 157.385 111.553C157.519 112.229 157.373 111.82 157.353 112.65C157.825 112.65 158.713 112.432 158.713 113.105C158.713 114.923 159.222 115.404 157.591 116.068C157.078 116.274 156.758 116.477 156.291 116.583C156.291 117.823 156.451 118.498 156.446 119.606C156.417 125.978 157.021 127.848 157.888 134.045C158.031 135.062 158.117 135.941 158.249 136.865C158.366 137.698 158.558 138.709 158.558 139.579C159.712 139.579 160.244 139.731 161.432 139.731C161.853 139.731 162.171 139.782 162.274 139.361C162.285 139.316 162.314 139.304 162.34 139.276C162.202 138.76 161.985 138.694 161.618 138.331L159.311 135.795C160.287 136.024 161.438 136.768 162.363 137.134C162.609 137.232 162.64 137.22 162.892 137.36C163.207 137.532 163.09 137.475 163.247 137.612C163.651 137.343 164.055 136.974 164.458 136.705C164.203 136.172 163.15 132.949 163.098 132.319C163.642 132.946 164.132 133.522 164.676 134.22C165.217 134.91 165.655 135.399 166.121 136.101C166.571 135.886 166.545 135.949 167.181 135.949C167.541 134.398 167.725 132.666 168.088 131.108C168.704 132.082 168.523 134.552 169.024 135.617C169.302 136.204 169.605 135.923 170.358 136.098C171.243 134.775 172.339 133.516 173.384 132.316C173.33 132.955 172.923 133.937 172.714 134.672C172.485 135.477 172.199 136.089 172.021 136.854C172.651 137.003 172.769 137.146 173.081 137.609C173.733 137.266 174.429 136.997 175.147 136.65C175.789 136.338 176.479 135.955 177.166 135.795C176.516 136.768 174.93 138.019 174.292 138.972C174.458 139.284 174.5 139.33 174.592 139.728C176.175 139.728 177.206 139.576 178.829 139.576C178.219 140.106 176.149 140.933 175.402 141.294C172.582 142.651 174.171 141.42 173.29 144.174C173.086 144.812 172.817 145.419 172.528 145.983L171.601 147.629C170.312 149.716 167.679 150.632 166.027 148.596C165.506 147.955 165.268 147.271 165.062 146.384C164.681 146.384 164.155 146.309 164.155 146.684C164.155 149.716 168.978 152.807 171.85 148.934C172.262 148.376 173.516 146.163 173.836 145.928C174.134 147.214 174.744 148.233 174.744 149.862C174.744 150.912 174.649 151.147 174.921 152.255C175.419 154.279 175.889 154.053 177.472 155.301C177.927 155.662 177.824 155.464 178.013 156.12L178.918 159.449C179.447 161.313 181.755 162.432 182.756 163.932L178.875 171.094C178.591 171.655 178.399 171.882 178.113 172.451C177.675 173.327 176.776 174.295 177.005 175.277C178.044 175.277 178.076 174.641 178.468 173.863C178.697 173.407 178.792 173.319 179.024 172.903L181.445 168.366C181.666 167.954 181.8 167.799 182.004 167.41C182.161 167.109 182.29 166.806 182.462 166.508C182.811 165.907 183.051 165.406 183.412 164.736C183.632 164.324 183.767 164.169 183.97 163.783C184.357 163.036 184.82 161.693 185.479 161.209C185.951 161.335 185.888 161.413 186.329 161.725L190.383 164.479C190.995 164.885 191.422 165.22 191.986 165.598L187.895 172.7C187.403 173.556 186.169 175.348 185.865 176.267C185.153 178.426 185.888 184.809 181.096 184.809L182.559 197.743C182.676 198.682 181.377 199.793 181.096 200.843C178.726 200.294 177.126 199.761 175.411 201.965L164.931 215.537C164.679 215.872 162.523 218.24 163.851 218.24C164.335 218.24 165.426 216.548 165.709 216.164C169.061 211.673 172.448 207.184 175.986 202.844C176.539 202.166 177.043 201.296 178.222 201.296C179.318 201.296 180.372 201.817 181.4 201.903C181.4 203.368 183.243 217.123 183.564 219.557C183.655 220.261 183.819 221.148 183.819 222.024H191.081C191.081 221.028 191.193 220.536 191.233 219.754C191.27 219.021 191.204 218.22 191.227 217.481C191.253 216.677 191.39 216.342 191.387 215.369L191.665 208.687C192.14 204.459 191.551 199.352 192.1 195.356C192.284 194.027 192.066 192.25 192.14 190.858C192.18 190.108 192.298 189.705 192.295 188.743L192.438 179.659C192.45 178.786 192.604 178.52 192.598 177.553C192.587 174.332 192.747 171.647 192.747 168.472C192.747 163.826 194.061 162.635 191.886 161.015C191.37 160.631 191.038 160.465 190.509 160.122C188.582 158.888 187.663 158.822 187.606 156.217C188.261 156.217 188.582 156.071 189.175 155.974C189.739 155.879 190.345 155.913 190.935 155.919C192.304 155.931 192.793 155.621 193.955 155.309C193.955 154.416 194.113 153.944 194.107 152.89L194.104 147.746C194.098 146.684 194.253 146.235 194.262 145.333C194.305 141.958 194.199 138.485 194.622 135.405C194.854 133.719 195.16 132.594 195.407 131.045C195.928 127.77 194.728 118.847 196.981 117.339C197.654 118.613 197.184 120.866 197.021 122.071C196.724 124.275 197.113 130.118 196.829 133.527C197.442 133.939 198.037 134.724 198.516 135.322C198.73 135.591 198.716 135.626 198.982 135.912L200.044 137.123C203.165 140.481 206.305 144.557 208.81 148.324C209.531 149.409 211.69 152.716 211.804 154.104C212.425 154.053 213.505 153.566 214.091 153.366C216.487 152.55 221.486 153.002 221.486 154.256C221.486 155.481 219.485 154.743 218.583 155.893C218.076 156.538 217.658 157.193 216.986 157.625C216.676 157.826 216.493 157.731 216.493 158.192C216.493 159.898 217.89 162.973 218.526 164.481C219.104 165.861 219.499 167.39 220.172 168.735C220.638 169.672 221.354 170.215 221.503 171.338C221.924 174.53 222.299 173.951 222.823 175.918C223.166 177.209 223.458 178.443 224.108 179.625C224.743 180.779 224.514 180.438 224.514 181.792C224.514 183.384 225.13 183.974 225.485 185.359C225.66 186.046 225.605 187.81 225.811 188.966C226.221 191.265 226.066 190.257 226.178 192.536C226.226 193.584 226.939 194.786 226.939 195.556C226.939 196.412 226.636 197.053 226.636 197.823C226.636 198.693 227.091 199.827 227.091 200.546C227.091 201.341 226.636 202.263 226.636 203.271C226.636 204.419 227.291 204.536 226.916 205.962C226.739 206.643 226.327 207.76 226.415 208.47C226.553 209.583 226.69 210.367 226.398 211.195C225.139 214.787 226.355 214.475 225.471 216.625C225.153 217.395 224.214 219.056 225.038 219.694C225.244 219.854 225.325 219.84 225.559 219.929C226.613 220.338 226.335 221.02 226.335 222.027H231.631C231.239 220.353 229.126 200.689 228.863 198.622C228.379 194.814 227.953 190.913 227.517 186.956C227.423 186.086 226.905 183.364 226.979 182.499C227.068 181.451 228.296 182.754 228.253 181.56C228.196 179.851 227.695 178.308 227.695 176.49C227.108 176.539 227.3 176.625 226.636 176.642L226.484 174.979C229.739 174.979 237.07 173.465 240.554 173.465C240.568 174.132 240.706 174.172 240.7 174.956L239.795 175.131C239.795 177.129 240.251 178.552 240.251 180.576C241.018 180.576 241.029 180.472 241.613 180.424C241.968 181.944 242.046 183.939 242.283 185.654C243.007 190.855 243.408 195.934 244.075 201.258C244.278 202.884 246.451 220.066 246.451 222.027H247.662V197.065C248.527 197.065 248.71 197.216 249.629 197.216H252.2V195.25H250.081V171.043H255.526V168.924C253.376 168.924 252.403 169.471 252.689 167.61C253.033 165.372 252.804 143.784 252.804 139.728H257.192V137.913C256.685 137.913 255.377 138.211 255.377 137.458V105.387C255.377 102.212 256.519 102.061 258.102 101.302V222.024H259.917V99.3354C259.917 98.4164 259.35 98.1244 258.406 98.1244V79.0647C258.406 78.8128 258.741 78.3633 258.921 78.2173C259.19 77.9998 259.517 77.8881 259.92 77.8566C259.92 72.7496 259.768 68.009 259.768 63.0308L260.676 62.8791V59.2492H261.735V80.579H260.072V82.2423C261.303 81.5896 262.643 82.2795 262.643 83.9055V113.709H260.828V114.92H265.213C265.213 118.713 264.984 130.791 265.325 133.267C265.663 135.732 265.365 142.204 265.365 145.327C265.365 149.135 266.215 148.808 262.643 148.808V150.32H267.936V177.55H264.303V179.817C269.49 179.817 269.622 179.325 269.61 180.862L269.599 191.013C269.593 192.164 269.753 192.725 269.756 193.73L269.751 202.358H267.028V204.173H271.566V221.721C272.092 221.844 272.075 222.024 272.625 222.024H291.533C291.533 226.759 291.965 231.036 289.821 235.287C289.34 236.238 288.785 237.085 288.183 237.886C287.814 238.379 287.574 238.556 287.207 239.029C286.3 240.2 284.997 241.096 283.755 241.931C280.752 243.95 277.706 244.562 273.678 244.562H78.0738C75.1453 244.562 72.2855 244.104 70.2558 243.151C68.6985 242.421 67.3416 241.637 66.0849 240.517C65.6125 240.099 65.3034 239.948 64.8768 239.458C61.3901 235.453 60.0732 231.603 60.0732 226.109L60.0961 226.112ZM235.278 220.667L235.43 219.457C236.727 219.153 237.093 219.242 237.093 222.027H235.43C235.416 221.343 235.278 221.426 235.278 220.665V220.667ZM237.849 220.063L238.001 219.156C238.822 218.964 239.337 218.672 239.566 220.161C239.647 220.685 239.681 221.455 239.816 222.03H238.001C238.001 221.168 237.849 220.982 237.849 220.063ZM240.422 219.459C240.422 219.11 240.474 219.282 240.574 218.855C241.49 218.641 241.931 218.389 242.16 219.992C242.24 220.55 242.378 221.578 242.389 222.033H240.574C240.574 220.937 240.422 220.519 240.422 219.462V219.459ZM242.993 219.308C242.993 218.898 243.065 218.89 243.145 218.549C244.141 218.317 244.522 218.108 244.748 219.82C244.857 220.633 244.96 221.217 244.96 222.03H243.297C243.119 221.271 242.993 220.244 242.993 219.308ZM220.301 219.308H217.275C217.289 218.623 217.426 218.706 217.426 217.948V217.493H220.452C220.452 218.377 220.301 218.549 220.301 219.308ZM212.282 219.611H198.215V217.796C199.226 217.796 199.789 217.642 200.937 217.644L212.737 217.493C212.72 218.334 212.357 218.761 212.282 219.611ZM216.671 219.308H215.311C215.417 218.852 215.571 217.982 215.614 217.493H217.126C217.069 218.183 216.814 218.701 216.671 219.308ZM215.612 216.886C215.612 215.964 215.763 215.781 215.763 214.919H217.278C217.278 215.661 217.209 215.555 217.578 215.978C217.681 215.535 217.73 215.517 217.73 214.919L220.753 215.105V216.889L217.716 216.74C216.997 216.688 216.519 216.889 215.612 216.889V216.886ZM212.889 216.886H198.215C198.215 214.782 198.209 215.071 201.393 215.071H209.259C210.742 215.071 211.627 214.919 213.041 214.919C213.041 215.781 212.892 215.967 212.892 216.886H212.889ZM103.93 221.689C103.52 222.001 103.867 221.961 103.214 222.033L79.3076 222.03C79.5853 220.845 81.26 218.351 81.9957 217.455C82.6341 216.68 83.0348 216.267 83.7333 215.56C87.4062 211.853 92.4445 210.078 97.7634 210.078C102.667 210.078 105.69 211.77 109.26 214.163L107.491 216.66H112.712C112.807 216.66 112.881 216.734 112.881 216.829C112.881 216.923 112.807 217 112.712 217H107.247L105.063 220.083H108.309C108.404 220.083 108.478 220.158 108.478 220.255C108.478 220.35 108.404 220.424 108.309 220.424H104.82L103.924 221.689H103.93ZM231.8 212.801C231.857 212.761 233.123 211.515 233.532 213.184L234.07 218.094L232.407 218.246C232.212 217.415 232.184 216.508 232.078 215.549C231.98 214.661 231.803 213.866 231.803 212.801H231.8ZM216.067 214.312C216.067 211.876 215.706 212.632 217.578 212.194C217.578 214.63 217.939 213.877 216.067 214.312ZM235.126 212.045C236.335 212.045 236.123 213.265 236.292 214.51C236.438 215.595 236.641 216.711 236.641 217.79C235.375 217.79 235.71 217.882 234.978 217.942C234.938 216.127 233.687 212.042 235.129 212.042L235.126 212.045ZM236.941 212.197C238.756 210.98 238.636 212.492 238.862 214.209C239.005 215.3 239.211 216.408 239.211 217.49C237.943 217.49 238.278 217.581 237.545 217.642C237.405 215.933 236.941 213.974 236.941 212.197ZM221.056 214.315H218.03L217.999 213.064C218.068 212.615 218.088 212.758 218.182 212.348L221.208 212.5C221.208 213.259 221.056 213.431 221.056 214.315ZM240.422 211.441C241.459 211.441 241.347 213.03 241.453 213.889C241.585 214.956 241.782 216.11 241.782 217.189L240.119 217.341C239.913 214.882 238.802 211.441 240.42 211.441H240.422ZM242.841 211.14C243.929 211.14 243.898 212.409 244.024 213.588C244.141 214.653 244.353 215.89 244.353 216.889L242.69 217.04C242.61 216.087 242.401 214.71 242.28 213.82C242.163 212.924 241.756 211.143 242.841 211.143V211.14ZM212.889 214.318L198.215 214.47V212.655C203.419 212.655 208.131 212.503 213.344 212.503C213.204 212.792 212.984 213.92 212.892 214.318H212.889ZM218.182 209.781C219.362 209.781 219.969 209.932 221.208 209.932V211.596H218.182V209.781ZM216.367 211.143V209.781L217.876 209.603L217.879 211.598H216.216C216.319 211.412 216.367 211.438 216.367 211.146V211.143ZM198.212 212.202V210.236C200.972 210.236 203.199 210.093 205.933 210.09C206.806 210.09 206.963 209.952 207.739 209.929L213.493 209.783C213.493 212.357 213.705 211.905 210.167 211.902C208.655 211.899 207.745 212.054 206.233 212.054L200.179 212.051C199.277 212.045 198.888 212.188 198.215 212.205L198.212 212.202ZM218.483 207.21L221.506 207.396L221.509 209.179H221.053C219.96 209.179 219.539 209.028 218.483 209.028V207.213V207.21ZM216.516 207.21H218.179V209.025H216.516V207.21ZM198.209 209.477V207.966C198.736 207.825 198.438 207.805 198.859 207.708L213.791 207.21C213.791 209.165 214.346 209.334 210.462 209.328L198.206 209.477H198.209ZM231.039 205.999C231.039 205.59 231.11 205.581 231.19 205.243C232.604 204.905 232.667 205.243 232.859 207.508C232.959 208.69 233.157 209.474 233.157 210.84C232.315 210.84 232.149 210.974 231.494 210.992C231.494 209.277 231.039 207.837 231.039 205.999ZM221.658 204.788V206.603H216.516C216.519 206.506 216.648 205.046 216.671 204.943C216.84 204.155 217.343 204.631 219.848 204.631C220.724 204.631 220.902 204.788 221.658 204.788ZM198.209 207.055V205.24L205.933 204.946C207.172 204.842 208.609 205.031 209.849 204.931C211.094 204.828 212.328 204.788 213.791 204.788V206.603C213.144 206.603 212.457 206.577 211.818 206.597C211.043 206.62 210.888 206.758 210.012 206.758L198.206 207.055H198.209ZM241.324 204.636C241.324 204.038 242.094 203.766 242.535 204.012C243.053 204.299 243.016 205.129 243.093 205.741C243.259 207.035 243.328 208.495 243.591 209.632C242.724 209.632 242.435 209.766 241.776 209.783C241.776 208.02 241.324 206.569 241.324 204.639V204.636ZM235.876 210.536C235.009 210.536 234.72 210.674 234.062 210.688C234.062 208.08 232.77 205.046 234.262 204.828C235.991 204.576 235.212 209.151 235.874 210.536H235.876ZM236.784 204.485C238.015 204.485 237.906 205.796 238.001 206.901C238.098 208.083 238.298 208.867 238.298 210.233C237.46 210.233 237.293 210.367 236.635 210.385C236.635 209.308 236.432 208.183 236.286 207.101C236.246 206.815 235.785 204.485 236.784 204.485ZM239.355 204.181C240.62 204.181 240.434 205.429 240.566 206.6C240.694 207.771 240.869 208.59 240.869 209.929C240.027 209.929 239.861 210.064 239.206 210.081C239.206 208.192 238.058 204.181 239.355 204.181ZM216.814 203.878V202.063C217.618 202.063 217.661 201.925 218.325 201.911V203.271C218.325 203.886 217.461 203.875 216.814 203.875V203.878ZM201.384 204.333C203.688 204.333 208.18 203.122 213.943 203.122C213.871 203.981 213.92 203.892 211.375 204.032C210.407 204.087 209.019 204.31 208.045 204.336L202.895 204.636C202.125 204.688 201.699 204.757 201.384 204.33V204.333ZM218.632 202.215C219.871 202.215 220.538 202.366 221.658 202.366V203.878C220.461 203.878 219.883 203.726 218.783 203.726C218.783 203.274 218.818 202.627 218.632 202.212V202.215ZM218.632 199.489C219.725 199.489 220.716 199.793 221.809 199.793C221.872 200.526 221.961 200.191 221.961 201.459L218.632 201.307V199.492V199.489ZM216.817 199.489H218.328V201.304H216.817V199.489ZM213.943 201.304C211.369 201.304 208.678 201.762 206.07 201.754C205.191 201.751 205.04 201.894 204.264 201.914L198.209 202.212V200.397C200.966 200.397 203.577 200.185 206.385 200.099L212.434 199.796C214.761 199.798 214 199.252 213.945 201.307L213.943 201.304ZM230.128 198.278C231.602 197.291 231.78 198.144 231.957 199.778C232.075 200.855 232.398 202.481 232.398 203.574C230.205 203.574 230.772 204.43 230.46 201.882C230.309 200.66 230.128 199.575 230.128 198.278ZM234.969 203.271C234.127 203.271 234.07 203.423 233.306 203.423C233.094 202.509 232.997 201.167 232.879 200.219C232.753 199.22 232.361 197.64 233.472 197.557C234.703 197.465 234.568 199.856 234.789 201.636C234.869 202.275 234.969 202.693 234.969 203.274V203.271ZM237.54 202.967C235.41 202.967 235.842 203.809 235.587 201.138C235.504 200.279 235.063 198.109 235.476 197.566C235.799 197.136 236.415 197.148 236.747 197.551C237.062 197.935 237.039 198.685 237.116 199.309L237.54 202.967ZM237.995 197.219C238.619 196.921 238.733 196.921 239.355 197.219C239.612 197.757 240.113 201.771 240.113 202.667C239.346 202.667 239.289 202.819 238.447 202.819C238.192 201.722 237.757 198.238 237.995 197.219ZM216.817 197.067C217.157 196.987 217.166 196.916 217.572 196.916H218.328V198.579H216.817V197.065V197.067ZM242.687 202.363C240.474 202.363 241.041 203.199 240.734 200.534C240.64 199.73 240.216 197.497 240.62 196.962C240.946 196.532 241.559 196.544 241.891 196.947C242.206 197.331 242.183 198.081 242.26 198.702C242.375 199.658 242.684 201.402 242.684 202.363H242.687ZM213.945 198.882C212.938 198.882 211 199.023 210.121 199.143L198.212 199.79C198.212 197.64 198.043 197.963 199.698 197.795L214.097 197.065C214.097 197.949 213.945 198.124 213.945 198.88V198.882ZM218.635 197.371V196.919C219.539 196.919 220.882 197.191 221.66 197.371C222.116 199.315 222.207 198.713 218.786 198.43C218.746 197.958 218.635 197.892 218.635 197.371ZM198.06 197.219C198.06 195.101 197.611 195.456 201.541 195.252C202.761 195.19 204.341 194.938 205.626 194.949C207.731 194.966 210.796 194.497 213.945 194.497C213.945 195.25 214.097 195.544 214.097 196.463C213.336 196.463 213.044 196.612 212.288 196.621C208.601 196.667 205.704 196.878 202.148 197.07C201.461 197.108 200.714 197.03 200.027 197.067C199.303 197.108 198.982 197.219 198.063 197.219H198.06ZM216.82 194.8C216.82 194.331 216.994 194.417 217.406 194.325C217.613 194.279 218.105 194.213 218.334 194.193V196.312H216.822V194.8H216.82ZM218.635 194.5C219.857 194.5 220.613 194.651 221.66 194.651V196.466C220.747 196.446 219.688 196.088 218.786 196.014C218.786 195.43 218.812 194.9 218.635 194.502V194.5ZM216.82 191.777H218.179C218.179 192.662 218.331 192.834 218.331 193.592H216.82V191.777ZM213.945 193.137V193.893C212.551 193.893 211.572 194.19 210.318 194.199C209.047 194.208 207.928 194.299 206.528 194.339C205.752 194.362 205.598 194.5 204.722 194.502C204.081 194.502 203.419 194.454 202.792 194.54C201.026 194.777 199.907 194.8 198.06 194.8C198.06 192.688 197.557 193.045 201.69 192.834C202.867 192.773 204.564 192.521 205.77 192.527C208.18 192.539 211.117 192.078 214.094 192.078C214.054 192.55 213.943 192.613 213.943 193.137H213.945ZM218.483 191.777C220.04 191.777 221.809 191.926 221.809 193.44C221.809 194.056 221.145 193.775 220.452 193.744C219.662 193.707 219.508 193.589 218.635 193.589C218.635 192.427 218.5 192.393 218.483 191.774V191.777ZM229.979 190.718C231.13 190.718 231.05 191.54 231.187 193.143C231.279 194.21 231.497 195.215 231.497 196.315C230.729 196.315 230.672 196.466 229.83 196.466C229.782 194.325 228.565 190.718 229.982 190.718H229.979ZM232.553 190.415C233.741 190.415 233.586 191.245 233.764 192.836C233.884 193.918 234.067 194.792 234.067 196.014C233.3 196.014 233.243 196.166 232.404 196.166C232.404 193.921 231.122 190.417 232.556 190.417L232.553 190.415ZM198.063 192.381V190.566C198.77 190.566 199.16 190.44 200.03 190.417L205.927 189.962C207.768 189.936 211.933 189.398 213.794 189.358V191.477C212.989 191.477 212.517 191.508 211.936 191.588L200.047 192.258C199.389 192.33 198.939 192.387 198.06 192.387L198.063 192.381ZM235.126 190.111C236.269 190.111 236.203 190.913 236.34 192.527C236.432 193.595 236.638 194.537 236.638 195.708C235.871 195.708 235.813 195.859 234.975 195.859C234.932 193.97 233.77 190.111 235.126 190.111ZM216.519 190.412C216.519 189.799 216.682 189.052 217.275 189.052C217.896 189.052 218.182 189.882 218.182 190.563V191.167H216.519V190.412ZM237.697 189.808C238.888 189.808 238.731 190.638 238.908 192.227C239.023 193.272 239.211 194.265 239.211 195.404C238.444 195.404 238.387 195.556 237.545 195.556C237.545 193.312 236.263 189.808 237.697 189.808ZM218.486 189.355C219.075 189.404 220.157 189.539 220.767 189.647C221.529 189.779 221.514 189.905 221.514 191.474C221.208 191.328 219.032 191.019 218.489 191.019V189.355H218.486ZM240.271 189.507C241.462 189.507 241.301 190.337 241.482 191.929C241.599 192.971 241.782 193.964 241.782 195.106C241.124 195.121 240.958 195.258 240.119 195.258C240.119 193.054 238.851 189.507 240.271 189.507ZM198.063 189.811V188.147L213.052 187.223C213.639 187.288 213.502 187.177 213.645 187.692C213.656 187.732 213.791 188.68 213.797 188.751L205.993 189.269C204.659 189.47 199.503 189.476 198.063 189.811ZM218.182 186.785C218.961 186.785 219.877 186.956 220.613 187.077C221.311 187.191 221.357 187.211 221.512 189.052C220.744 188.874 219.064 188.597 218.182 188.597V186.782V186.785ZM216.367 187.237V186.785H217.879V188.6H216.519C216.505 187.915 216.367 187.998 216.367 187.24V187.237ZM218.03 184.363C218.695 184.377 221.056 184.609 221.056 185.27V186.329C220.361 186.329 218.669 186.026 218.03 185.877V184.366V184.363ZM94.1306 176.344H100.486C101.09 176.344 100.938 177.043 101.136 178.417C101.239 179.124 101.396 180.221 101.499 180.928L102.152 185.874H92.4703L93.1401 180.948C93.2632 180.123 93.3949 179.253 93.4836 178.569C93.5409 178.122 93.5953 177.61 93.6268 177.349C93.6926 176.808 93.5495 176.344 94.1335 176.344H94.1306ZM228.468 184.059C228.468 183.115 229.687 183.536 229.979 183.607L230.735 189.052C230.14 189.066 230.071 189.204 228.92 189.204C228.92 187.354 228.465 185.934 228.465 184.059H228.468ZM198.06 187.538V185.723C200.454 185.723 203.253 185.433 205.366 185.162C206.617 184.998 207.699 184.878 208.947 184.809C210.739 184.712 211.81 184.306 213.339 184.663C214.498 187.08 212.116 186.433 209.079 186.759L202.446 187.234C201.038 187.251 199.543 187.538 198.06 187.538ZM231.039 183.756C231.039 183.126 231.6 183.152 231.946 183.152C232.896 183.152 232.788 184.712 232.919 185.66C233.057 186.673 233.231 187.821 233.309 188.748C232.71 188.763 232.645 188.9 231.494 188.9C231.494 187.077 231.039 185.654 231.039 183.756ZM216.061 184.363H217.572V186.178H216.213C216.213 185.293 216.061 185.121 216.061 184.363ZM234.213 182.848L235.121 183L235.876 188.445C235.052 188.514 235.464 188.597 234.062 188.597C234.062 186.53 232.982 182.848 234.213 182.848ZM236.784 182.548L237.691 182.7C237.892 183.558 237.983 184.44 238.098 185.316C238.224 186.258 238.376 187.291 238.447 188.144C237.852 188.156 237.783 188.296 236.632 188.296C236.632 186.258 235.556 182.548 236.784 182.548ZM238.751 182.848C238.751 182.222 239.312 182.244 239.658 182.244C240.574 182.244 240.528 183.819 240.651 184.729C240.792 185.76 240.941 186.922 241.018 187.841C240.191 187.91 240.606 187.993 239.203 187.993C239.203 186.143 238.748 184.726 238.748 182.848H238.751ZM198.058 185.119V183.304C201.321 183.304 206.285 182.574 209.253 182.548C210.424 182.539 211.867 182.244 213.032 182.244C213.138 182.7 213.296 183.57 213.336 184.059L201.879 184.855C200.823 184.995 199.306 185.116 198.058 185.116V185.119ZM217.421 183.455H216.061V181.941C216.662 181.892 216.425 181.789 216.817 181.789C218.197 181.789 219.482 181.984 220.598 182.242C220.658 182.974 220.75 182.639 220.75 183.908C219.619 183.908 219.078 183.607 217.876 183.607C217.842 183.198 217.804 183.195 217.724 182.848C217.481 183.129 217.53 183.032 217.421 183.455ZM201.235 182.396C201.799 181.907 205.128 181.314 205.864 181.128C209.148 180.301 209.631 180.278 212.883 180.278C212.883 180.876 212.932 180.893 213.032 181.337C211.189 181.337 205.034 182.396 201.232 182.396H201.235ZM215.577 179.224L216.968 179.221C216.968 180.384 216.934 180.034 217.272 180.281V179.221C219.339 180.212 220.449 178.426 220.449 181.489C219.691 181.489 219.279 181.366 218.566 181.257C217.017 181.025 217.936 181.025 217.123 180.43V181.034H215.76L215.58 179.224H215.577ZM198.06 180.278V178.463C199.775 178.463 208.24 177.532 210.642 177.278C211.3 177.209 212.039 177.1 212.583 177.1C212.583 178.36 212.697 178.337 211.286 178.678C207.728 179.536 207.261 179.422 204.026 179.888L198.063 180.275L198.06 180.278ZM216.668 178.615L215.457 178.463C215.443 177.804 215.305 177.638 215.305 176.8H216.364L216.817 176.951C217.902 176.951 218.606 177.255 219.691 177.255C219.705 177.945 219.94 178.426 219.991 179.07C219.267 179.07 217.552 178.909 217.117 178.314L216.662 177.558V178.617L216.668 178.615ZM198.06 178.011V176.044L205.157 175.426C207.404 175.237 209.889 174.867 212.128 174.684C212.128 175.443 212.279 175.614 212.279 176.499L198.06 178.011ZM214.853 174.381C215.826 174.381 215.715 174.312 216.064 174.833C216.871 174.295 217.916 174.515 218.884 174.887C219.533 175.136 219.545 175.672 219.545 176.496C218.577 176.496 218.096 176.344 217.289 176.173C216.015 175.904 216.155 176.319 215.007 176.344C215.007 175.426 214.856 175.131 214.856 174.378L214.853 174.381ZM94.1306 171.203H100.486C100.486 172.076 100.62 174.272 100.786 174.988H93.9789C93.9789 173.516 94.1306 172.654 94.1306 171.203ZM198.06 175.592C198.06 173.17 197.78 173.688 200.19 173.487L211.675 172.262C211.675 174.618 212.554 174.069 209.835 174.355L200.073 175.334C199.526 175.403 198.636 175.457 198.063 175.592H198.06ZM214.549 173.928L214.369 172.116C215.612 172.108 214.867 172.179 215.305 171.962C215.629 172.445 215.554 172.068 215.609 172.717C215.626 172.689 215.663 172.609 215.672 172.629L215.76 172.113C216.782 172.113 217.822 172.488 218.786 172.569C218.898 173.047 218.978 173.605 219.087 174.083C218.411 174.083 217.681 173.894 217.094 173.808C215.726 173.605 216.155 173.442 215.76 172.872C215.543 173.811 215.735 173.931 214.549 173.931V173.928ZM198.06 173.17C198.06 170.536 198.132 171.512 204.327 170.665C204.441 170.648 210.92 169.846 211.068 169.995C211.194 170.256 211.36 171.412 211.372 171.81C210.055 171.81 209.159 171.99 208.028 172.099L198.058 173.173L198.06 173.17ZM213.945 169.692C215.643 169.692 218.635 169.319 218.635 171.959C218.297 171.882 218.176 171.807 217.81 171.724C217.509 171.655 217.2 171.63 216.905 171.569C216.138 171.415 215.783 171.403 215.609 170.751H215.305C215.162 171.283 215.302 171.203 214.094 171.203C214.08 170.536 213.943 170.496 213.943 169.692H213.945ZM198.06 170.751C198.06 168.713 197.597 169.236 200.791 168.793C203.929 168.358 207.447 167.725 210.616 167.725C211.157 170.041 211.446 169.102 205.409 169.929L198.06 170.751ZM213.794 167.273C214.598 167.273 214.398 167.622 214.398 168.484L214.549 167.273C216.13 167.273 217.876 167.588 217.876 169.088C217.876 169.68 217.515 169.5 217.149 169.394C216.728 169.274 216.436 169.173 215.924 169.07C214.278 168.741 214.844 168.807 213.639 169.088C213.585 168.443 212.921 167.273 213.791 167.273H213.794ZM198.06 168.332C198.06 166.073 197.717 166.766 203.912 165.864C205.346 165.658 208.896 165.011 210.161 165.306C210.161 165.836 210.298 166.628 210.464 166.969C209.345 166.969 208.412 167.164 207.424 167.258L199.695 168.151C199.1 168.217 198.524 168.32 198.058 168.329L198.06 168.332ZM212.735 164.851C213.545 164.851 213.631 164.811 214.249 165C216.067 165.558 216.88 164.782 217.424 167.121C216.576 167.121 215.964 166.941 215.251 166.72C214.947 166.628 214.595 166.465 214.338 166.422C213.831 166.339 213.734 166.503 213.19 166.517C213.173 165.712 213.064 165.343 212.735 164.851ZM198.06 165.91C198.06 163.86 197.957 164.327 199.24 164.215L203.668 163.651C204.713 163.531 205.555 163.434 206.637 163.291C209.677 162.89 209.543 162.549 209.709 164.544C208.724 164.544 207.708 164.733 206.82 164.834L198.06 165.907V165.91ZM212.279 162.732C212.823 162.778 212.666 162.873 212.969 162.775C213.278 162.675 213.092 162.707 213.221 162.621C213.364 162.529 213.195 162.538 213.493 162.429L214.263 162.718C215.901 163.205 216.367 163.027 216.367 164.696C215.68 164.682 214.879 164.439 214.378 164.261C212.952 163.754 213.719 164.138 212.431 164.244C212.382 163.648 212.279 163.537 212.279 162.732ZM198.06 163.488C198.06 161.556 197.94 161.902 199.085 161.791L208.801 160.465C208.818 161.292 209.102 161.533 209.102 162.432C206.394 162.432 200.216 163.491 198.06 163.491V163.488ZM211.22 160.01C211.521 160.016 211.99 159.835 212.279 160.917L212.431 160.313C214.094 160.313 215.869 160.697 215.912 162.581C215.093 162.512 213.871 162.105 212.946 161.917C212.391 161.802 211.876 161.851 211.578 161.467C211.38 161.209 211.234 160.434 211.223 160.007L211.22 160.01ZM198.06 161.37C198.613 160.983 205.337 159.177 206.293 159.014C207.522 158.802 208.38 158.59 208.498 160.007C205.927 160.007 200.127 161.367 198.06 161.367V161.37ZM211.524 157.892C212.168 157.943 213.221 158.298 213.779 158.51C214.61 158.828 214.787 159.223 215.005 160.159C214.346 160.104 213.399 159.855 212.786 159.655C211.77 159.323 211.939 159.037 210.92 158.799C211.174 158.315 211.26 158.29 211.524 157.892ZM198.06 158.951C198.06 156.913 197.29 157.514 202.294 156.684C203.067 156.555 203.929 156.389 204.607 156.271C205.36 156.14 206.251 155.928 206.986 155.928C207.167 156.2 207.181 156.142 207.33 156.492C207.481 156.847 207.43 156.955 207.59 157.29C205.747 157.717 200.05 158.954 198.06 158.954V158.951ZM191.857 158.043C190.486 158.043 189.676 158.158 188.531 157.892L188.356 156.99C189.112 156.595 191.327 156.529 192.464 156.529C192.985 156.529 193.806 156.526 194.033 156.935C194.485 157.748 192.836 158.043 191.857 158.043ZM210.765 155.773C211.489 155.79 212.288 156.048 212.872 156.237C213.622 156.483 213.92 156.718 213.943 157.74C213.336 157.74 212.265 157.519 211.773 157.336C211.02 157.056 210.791 156.718 210.762 155.773H210.765ZM199.42 140.647C199.958 141.007 201.198 142.854 201.541 143.518C202.108 144.614 202.649 145.742 203.202 146.847L204.779 150.265C205.168 151.201 206.053 152.842 206.079 153.958C203.935 153.958 201.936 154.562 199.724 154.562C199.724 153.228 199.563 152.455 199.569 151.236L199.42 140.647ZM158.724 140.192C162.022 141.775 160.007 140.632 162.961 142.611C162.961 143.429 163.21 144.497 163.159 144.812C163.027 145.608 162.532 145.659 162.509 146.696C161.301 146.375 162.019 145.236 160.502 143.561C159.635 142.602 158.813 143.226 158.727 140.192H158.724Z" fill="url(#paint0_linear_33_32)"/>
</g>
<defs>
<linearGradient id="paint0_linear_33_32" x1="270.521" y1="230.089" x2="110.992" y2="75.0426" gradientUnits="userSpaceOnUse">
<stop stop-color="#0061AB"/>
<stop offset="1" stop-color="#41BFC4"/>
</linearGradient>
<clipPath id="clip0_33_32">
<rect width="387.633" height="387.756" fill="white" transform="translate(6 25)"/>
</clipPath>
</defs>
</svg>
