<svg width="400" height="500" viewBox="0 0 400 500" fill="none" xmlns="http://www.w3.org/2000/svg">
<rect width="400" height="500" fill="white"/>
<g clip-path="url(#clip0_33_32)">
<path d="M236.433 476.728C237.386 475.921 238.337 475.118 239.215 474.311L239.868 474.53C239.72 475.475 239.424 476.389 238.99 477.241C238.624 477.681 237.452 477.46 236.704 477.535C236.582 477.277 236.491 477.007 236.433 476.728Z" fill="white"/>
<path d="M145.231 472.114C147.357 472.479 148.673 472.626 149.992 472.845C150.044 473.061 150.145 473.262 150.286 473.433C148.98 473.946 147.575 474.458 146.256 475.046C145.857 474.09 145.515 473.11 145.231 472.114Z" fill="white"/>
<path d="M259.364 459.809C261.343 458.199 263.609 454.91 267.13 457.026C270.794 459.312 267.348 462.375 267.201 465.377C268.425 463.572 269.745 461.836 271.156 460.174C272.381 458.879 273.788 457.768 275.333 456.876C276.146 456.389 277.11 456.218 278.041 456.393C278.973 456.569 279.808 457.08 280.388 457.83C281.694 459.368 281.195 460.906 280.316 462.519C278.317 466.126 276.579 469.872 275.114 473.727C280.666 470.432 283.977 464.936 288.519 460.687C288.75 460.754 288.969 460.853 289.172 460.981C289.101 461.634 289.244 462.447 288.879 462.96C284.777 468.822 280.6 474.608 276.352 480.395C275.589 481.364 274.571 482.1 273.413 482.521C272.822 482.904 272.137 483.118 271.434 483.139C270.73 483.16 270.034 482.987 269.422 482.639C268.809 482.291 268.304 481.782 267.962 481.167C267.619 480.552 267.452 479.855 267.479 479.151C267.588 476.581 267.955 474.028 268.576 471.532C268.906 470.534 269.125 469.502 269.229 468.456C267.616 471.238 266.081 474.008 264.468 476.806C263.724 478.154 262.891 479.451 261.976 480.689C261.023 481.995 260.073 483.546 258.022 482.449C257.155 482.059 256.457 481.372 256.054 480.511C255.651 479.651 255.569 478.675 255.824 477.76C256.412 475.049 257.13 472.411 257.875 469.775C258.175 468.98 258.25 468.118 258.094 467.284C256.849 469.409 255.53 471.46 254.283 473.583C252.745 476.075 251.278 478.563 249.74 481.055C248.862 482.521 247.618 483.471 245.857 482.665C245.469 482.476 245.124 482.21 244.842 481.884C244.56 481.557 244.347 481.177 244.217 480.766C244.087 480.355 244.042 479.921 244.085 479.492C244.128 479.063 244.257 478.647 244.466 478.269L249.959 463.985C250.178 463.473 250.325 463.032 250.766 461.935C247.249 464.939 244.172 467.427 241.243 470.138C240.969 470.486 240.77 470.887 240.658 471.316C240.546 471.744 240.522 472.192 240.59 472.629C240.781 474.077 240.66 475.549 240.235 476.946C239.811 478.343 239.092 479.632 238.127 480.729C237.163 481.825 235.975 482.702 234.644 483.301C233.312 483.901 231.868 484.208 230.408 484.203C229.463 484.229 228.531 483.97 227.735 483.461C226.938 482.951 226.313 482.214 225.94 481.345C225.531 480.574 225.417 479.681 225.619 478.831C225.821 477.982 226.325 477.236 227.038 476.731C229.053 475.655 230.584 473.852 231.318 471.689C232.053 469.525 231.936 467.163 230.992 465.083C230.914 464.499 230.914 463.909 230.992 463.326C230.339 464.204 229.967 464.717 229.601 465.23C226.084 470.066 222.714 475.118 218.906 479.735C217.435 481.278 215.555 482.37 213.485 482.884C213.047 483.02 212.584 483.051 212.131 482.976C211.679 482.901 211.251 482.721 210.88 482.45C210.51 482.18 210.208 481.827 209.999 481.419C209.789 481.011 209.678 480.56 209.674 480.101C209.319 477.934 209.369 475.719 209.821 473.57C211.061 468.009 213.403 462.754 216.708 458.114C216.967 457.652 217.327 457.255 217.763 456.954C218.198 456.653 218.697 456.456 219.221 456.379C219.744 456.301 220.279 456.344 220.783 456.505C221.287 456.666 221.748 456.94 222.129 457.307C222.587 457.536 222.986 457.867 223.296 458.275C223.606 458.682 223.818 459.155 223.917 459.657C224.016 460.159 223.999 460.677 223.867 461.172C223.735 461.666 223.491 462.124 223.155 462.509C221.398 465.448 219.713 468.371 218.1 471.372C217.738 472.16 217.419 472.966 217.146 473.789C217.293 473.936 217.512 474.083 217.659 474.23C219.563 472.398 221.613 470.566 223.445 468.59C225.131 466.833 226.597 464.854 228.279 463.097C229.085 462.219 229.523 460.459 231.502 461.265C231.721 461.337 232.38 460.459 232.746 459.959C233.609 458.72 234.778 457.726 236.138 457.071C237.499 456.417 239.005 456.125 240.512 456.223C241.083 456.327 241.624 456.559 242.093 456.902C242.563 457.245 242.949 457.689 243.222 458.202C243.437 459.512 243.284 460.856 242.781 462.085C242.709 462.526 241.828 462.669 241.315 463.038L239.849 460.099C239.071 461.241 238.432 462.471 237.945 463.763C237.726 464.642 238.31 465.742 238.598 467.205C240.796 465.814 242.843 464.642 244.678 463.322C247.973 461.519 251.025 459.304 253.76 456.729C254.309 456.372 254.938 456.158 255.591 456.107C256.243 456.055 256.898 456.168 257.496 456.435C258.632 456.876 258.851 458.636 259.364 459.809ZM231.528 479.076C231.6 479.37 231.675 479.589 231.747 479.882C232.553 479.811 233.651 480.029 234.033 479.588C234.531 478.765 234.831 477.837 234.911 476.878L234.258 476.659C233.432 477.463 232.478 478.269 231.528 479.076Z" fill="#5F6266"/>
<path d="M154.757 467.349C157.101 464.932 158.933 462.882 160.837 460.903C162.081 459.658 162.081 459.658 163.254 461.268C163.985 460.243 164.72 459.289 165.451 458.329C165.624 457.954 165.877 457.621 166.193 457.356C166.509 457.09 166.88 456.898 167.28 456.792C167.679 456.687 168.097 456.672 168.503 456.747C168.909 456.823 169.293 456.987 169.628 457.229C170.023 457.44 170.369 457.733 170.643 458.088C170.916 458.444 171.112 458.853 171.216 459.289C171.32 459.725 171.33 460.178 171.246 460.618C171.162 461.058 170.986 461.476 170.729 461.843C168.972 465.285 167.212 468.802 165.527 472.319C165.071 473.419 164.679 474.544 164.354 475.689C164.501 475.836 164.72 475.983 164.867 476.13C165.491 475.506 166.077 474.845 166.624 474.151C168.746 470.781 170.801 467.411 172.923 464.028C174.229 461.977 175.562 459.926 177.025 458.022C178.05 456.716 179.311 455.896 180.979 457.216C181.363 457.448 181.697 457.755 181.961 458.118C182.224 458.481 182.413 458.893 182.515 459.329C182.617 459.766 182.631 460.219 182.556 460.662C182.481 461.104 182.318 461.527 182.077 461.905C180.392 465.057 178.782 468.205 177.178 471.428C176.766 472.216 176.661 473.13 176.884 473.991C177.859 473.268 178.789 472.485 179.667 471.646C182.524 468.57 185.306 465.347 188.239 462.343C188.981 461.736 189.825 461.266 190.731 460.952C190.874 461.08 190.997 461.228 191.096 461.393C191.609 460.367 192.05 459.342 192.563 458.316C193.66 455.972 195.42 455.021 197.399 455.753C199.744 456.631 199.084 458.538 198.571 460.442C199.493 459.331 200.58 458.367 201.794 457.585C203.436 456.778 205.239 456.352 207.068 456.341C207.582 456.371 208.08 456.525 208.52 456.79C208.96 457.055 209.33 457.423 209.596 457.863C209.863 458.302 210.019 458.8 210.051 459.313C210.082 459.826 209.989 460.339 209.779 460.808C208.812 463.122 207.529 465.292 205.968 467.254C205.289 467.982 204.383 468.458 203.398 468.604C202.414 468.751 201.409 468.559 200.547 468.061C200.278 467.828 200.071 467.532 199.943 467.2C199.816 466.868 199.772 466.51 199.815 466.157C200.296 464.908 200.616 463.603 200.769 462.274C199.391 464.049 198.119 465.902 196.958 467.826C195.126 471.049 193.516 474.491 191.756 477.789C191.23 479.056 190.452 480.202 189.47 481.159C188.986 481.566 188.425 481.873 187.822 482.062C187.218 482.25 186.583 482.318 185.953 482.26C185.584 482.123 185.249 481.908 184.971 481.631C184.692 481.354 184.476 481.02 184.337 480.652C184.198 480.284 184.139 479.891 184.165 479.498C184.191 479.106 184.301 478.723 184.487 478.377C185.512 475.301 186.684 472.296 187.782 469.233C188.35 467.917 188.767 466.541 189.026 465.132C186.169 469.086 183.311 473.044 180.454 476.927C179.505 478.255 178.451 479.504 177.302 480.663C176.637 481.603 175.685 482.303 174.59 482.659C173.494 483.015 172.313 483.008 171.222 482.639C168.73 481.688 169.243 479.197 168.936 477.218C167.834 478.597 166.634 479.895 165.344 481.1C164.632 481.958 163.655 482.552 162.566 482.789C161.478 483.025 160.341 482.891 159.338 482.407C158.382 481.826 157.655 480.933 157.281 479.879C156.908 478.824 156.91 477.673 157.287 476.62C158.019 473.397 159.191 470.245 160.226 467.097C160.623 466.116 160.966 465.113 161.252 464.093C158.029 468.707 152.68 470.98 149.822 476.032C148.906 477.733 147.622 479.208 146.063 480.348C144.505 481.489 142.711 482.267 140.812 482.625C140.045 482.852 139.236 482.901 138.448 482.768C137.659 482.635 136.911 482.323 136.261 481.857C135.611 481.391 135.075 480.782 134.696 480.078C134.317 479.373 134.104 478.592 134.072 477.792C133.94 477.241 133.916 476.668 134 476.107C135.569 468.869 139.299 462.278 144.695 457.206C145.861 456.339 147.217 455.761 148.65 455.521C149.447 455.305 150.284 455.282 151.091 455.455C151.899 455.628 152.654 455.991 153.293 456.514C153.931 457.037 154.436 457.706 154.765 458.463C155.093 459.221 155.236 460.046 155.181 460.87C155.209 463.037 155.067 465.204 154.757 467.349ZM149.701 462.516C147.138 465.226 144.803 467.643 142.448 470.059C145.306 471.013 148 471.673 149.554 469.694C150.92 467.622 151.797 465.267 152.118 462.807C152.559 459.583 150.214 458.339 147.357 459.867C148.238 460.831 149.117 461.784 149.701 462.516ZM140.326 474.458C140.692 475.702 140.979 476.509 141.279 477.397C142.586 476.885 143.99 476.372 145.309 475.784C145.256 475.57 145.156 475.37 145.015 475.199C143.768 475.043 142.449 474.824 140.326 474.458Z" fill="#5F6266"/>
<path d="M381.331 172.706C384.443 195.992 383.276 219.651 377.89 242.518C373.156 262.14 365.077 280.799 354.008 297.678C347.971 307.165 340.705 315.811 332.4 323.391C331.378 324.399 330.117 325.13 328.736 325.517C327.765 325.74 326.748 325.612 325.863 325.155C324.979 324.699 324.284 323.945 323.903 323.025C323.427 322.104 323.27 321.051 323.456 320.031C323.641 319.011 324.159 318.081 324.928 317.386C326.832 315.407 328.958 313.575 330.862 311.599C351.311 289.291 364.982 261.619 370.274 231.823C373.91 213.346 374.556 194.405 372.188 175.723C368.197 142.151 354.298 110.528 332.262 84.8872C308.088 55.6668 274.726 35.4993 237.619 27.6737C181.065 15.7346 130.301 28.6272 86.3455 66.2079C57.5792 90.9049 37.8225 124.45 30.1733 161.584C22.524 198.718 27.4148 237.341 44.0788 271.396C51.9382 288.06 62.2574 303.449 74.6906 317.046C76.8883 319.463 77.0353 321.945 75.1315 323.786C74.164 324.737 72.8617 325.27 71.505 325.27C70.1483 325.27 68.8459 324.737 67.8785 323.786C64.874 320.695 62.0396 317.443 59.388 314.045C39.0397 288.785 25.3849 258.804 19.6846 226.873C13.2738 191.808 17.7999 155.621 32.6491 123.216C56.8146 70.1071 97.4062 35.6744 153.594 19.9277C167.786 15.978 182.45 13.9817 197.18 13.994C241.081 13.3775 283.745 28.5333 317.418 56.7065C351.092 84.8797 373.538 124.2 380.678 167.52C380.819 169.202 381.113 170.962 381.331 172.706Z" fill="url(#paint0_linear_33_32)"/>
<path d="M132.194 405.231C129.85 407.869 128.018 410.214 125.82 412.261C124.435 413.504 122.779 414.408 120.984 414.9C120.386 415.008 119.772 414.963 119.196 414.772C118.62 414.58 118.102 414.247 117.689 413.803C117.252 412.581 117.151 411.266 117.395 409.992C117.594 409.295 117.89 408.629 118.273 408.013L117.62 407.572C117.035 408.16 116.523 408.744 115.935 409.332C114.334 411.056 112.622 412.671 110.808 414.169C110.081 414.867 109.132 415.287 108.126 415.355C107.12 415.422 106.123 415.133 105.309 414.538C104.496 413.943 103.918 413.08 103.678 412.101C103.438 411.122 103.55 410.089 103.996 409.185C104.619 407.097 105.353 405.043 106.194 403.033C106.559 402.079 107.072 401.129 107.732 399.591C102.383 403.255 97.4027 406.403 92.7884 409.92C87.5297 414.482 80.8469 417.072 73.887 417.245C72.6185 417.346 71.3428 417.189 70.1372 416.781C68.9317 416.374 67.8216 415.726 66.8745 414.876C65.9275 414.026 65.1633 412.992 64.6285 411.838C64.0937 410.683 63.7994 409.432 63.7636 408.16C63.6178 405.003 63.7653 401.839 64.2044 398.709C64.5702 395.192 65.158 391.675 65.6707 388.161C67.0795 380.837 71.1209 374.282 77.0319 369.734C82.943 365.185 90.3147 362.958 97.7553 363.473C100.989 363.761 104.001 365.239 106.207 367.621C108.412 370.003 109.655 373.12 109.694 376.366C109.635 384.722 106.945 392.848 102.004 399.588C101.558 400.324 101.068 401.034 100.538 401.713C100.685 401.932 100.903 402.154 101.05 402.367C104.345 399.803 107.644 397.311 110.867 394.748C111.651 394.038 112.363 393.252 112.993 392.403C113.214 392.082 113.506 391.817 113.846 391.626C114.186 391.436 114.565 391.326 114.954 391.305C115.343 391.284 115.732 391.352 116.09 391.504C116.449 391.657 116.768 391.89 117.022 392.184C118.414 393.285 117.976 394.47 117.169 395.777C115.119 399.294 113.14 402.811 111.236 406.4C110.832 407.416 110.538 408.472 110.357 409.551C110.576 409.698 110.723 409.845 110.942 409.992C111.595 409.551 112.48 409.339 112.921 408.748C115.484 405.524 117.901 402.154 120.468 398.931C122.176 396.571 124.03 394.319 126.019 392.191C126.493 391.912 127.028 391.753 127.577 391.727C128.126 391.702 128.673 391.81 129.171 392.044C130.709 392.775 130.927 394.095 129.902 395.708C127.998 398.712 126.166 401.789 124.481 404.937C124.059 405.903 123.906 406.966 124.04 408.013C133.125 403.323 138.69 395.486 143.745 386.989C141.766 386.336 139.862 385.745 137.739 385.01C138.105 384.716 138.252 384.572 138.327 384.644C140.656 385.283 143.136 385.083 145.332 384.079C147.528 383.075 149.301 381.331 150.341 379.151C151.465 377.453 152.739 375.86 154.149 374.39C154.822 373.536 155.794 372.97 156.869 372.806C157.944 372.643 159.04 372.895 159.936 373.512C160.164 373.796 160.312 374.136 160.364 374.497C160.416 374.858 160.369 375.226 160.23 375.562C159.315 377.243 158.288 378.858 157.154 380.399C157.946 380.159 158.711 379.839 159.439 379.445C166.252 374.759 173.139 370.142 179.879 365.38C182.442 363.623 183.543 363.477 185.741 365.599C186.351 366.073 186.754 366.766 186.863 367.532C186.972 368.297 186.779 369.075 186.325 369.701C182.295 377.319 178.488 385.01 174.605 392.704C174.235 393.434 174.013 394.231 173.952 395.048C177.394 391.237 180.692 387.358 184.353 383.766C188.967 379.223 193.804 374.828 198.637 370.507C199.662 369.629 200.687 367.944 202.591 369.41C203.574 370.072 204.295 371.057 204.629 372.194C204.964 373.331 204.891 374.549 204.423 375.638C201.932 379.814 199.221 383.916 196.586 388.018C194.094 391.9 191.606 395.783 189.114 399.738C188.842 400.27 188.645 400.837 188.526 401.423C188.679 401.569 188.851 401.692 189.039 401.789C189.624 401.135 190.211 400.482 190.724 399.813C196.276 393.282 201.86 386.698 207.499 380.18C208.76 378.686 210.371 377.529 212.189 376.81C213.963 376.494 215.784 376.544 217.538 376.957C217.776 377.207 217.952 377.51 218.054 377.84C218.155 378.171 218.179 378.52 218.123 378.861C217.762 379.927 217.217 380.922 216.513 381.8C209.964 390.872 205.922 401.509 204.792 412.64C204.146 417.573 205.317 422.573 208.087 426.705C207.62 427.598 206.823 428.273 205.866 428.588C204.908 428.902 203.866 428.831 202.96 428.39C198.271 426.558 197.245 422.381 197.099 418.061C197.192 409.657 199.064 401.368 202.591 393.739C203.835 390.516 205.449 387.439 206.474 383.922C203.911 387.074 201.272 390.15 198.784 393.298C196.292 396.521 193.885 399.744 191.531 403.114C189.176 406.485 186.988 410.002 184.719 413.515C183.756 413.236 182.86 412.764 182.086 412.127C181.312 411.489 180.677 410.701 180.218 409.809C179.76 408.918 179.488 407.942 179.419 406.942C179.351 405.942 179.487 404.938 179.82 403.993C183.15 395.936 187.561 388.37 192.932 381.503L194.47 379.305C194.542 379.233 194.47 379.011 194.398 378.864C194.173 378.602 193.928 378.358 193.666 378.132C189.199 382.894 184.728 387.73 180.261 392.501C179.383 393.455 178.576 394.48 177.622 395.359C171.67 400.828 167.422 407.899 165.389 415.723C164.805 418.14 163.851 418.362 161.797 416.82C160.712 415.983 159.726 415.024 158.858 413.963C157.886 413.035 157.261 411.802 157.087 410.469C156.914 409.136 157.202 407.784 157.905 406.638C163.254 397.04 168.381 387.371 173.58 377.776C174.125 376.835 174.543 375.826 174.824 374.776C174.092 375.429 173.286 376.02 172.538 376.679C167.007 381.741 160.314 385.364 153.052 387.227C152.663 387.306 152.294 387.462 151.967 387.687C151.64 387.911 151.362 388.199 151.148 388.533C147.631 393.807 144.189 399.156 140.819 404.502C140.236 405.553 139.957 406.744 140.012 407.944C146.093 405.005 150.266 399.885 155.322 395.783C155.073 396.32 154.779 396.834 154.443 397.321C150.341 402.301 146.384 407.356 142.063 412.046C140.477 413.631 138.421 414.662 136.201 414.985C133.125 415.498 131.368 413.375 131.659 410.224C131.666 408.545 131.845 406.872 132.194 405.231ZM83.3344 380.618C81.2836 383.988 79.2328 386.77 77.6947 389.921C76.0847 393.073 75.0561 396.515 73.74 399.885C73.5903 400.176 73.5019 400.496 73.4802 400.823C73.4584 401.15 73.5038 401.478 73.6136 401.787C73.7235 402.096 73.8953 402.379 74.1187 402.619C74.342 402.859 74.6122 403.051 74.9124 403.183C79.4376 405.71 84.7555 406.417 89.784 405.162C91.9099 404.721 93.8138 402.451 95.4988 400.695C97.1484 398.886 98.6203 396.923 99.8943 394.833C103.307 389.834 105.213 383.961 105.387 377.91C105.465 376.008 104.809 374.149 103.554 372.718C102.3 371.286 100.543 370.392 98.6468 370.22C94.6875 369.998 90.7342 370.751 87.1328 372.411C83.5315 374.071 80.3918 376.588 77.9886 379.743C79.6704 379.958 81.4273 380.252 83.3311 380.618H83.3344Z" fill="#5F6266"/>
<path d="M199.659 97.4141C205.958 104.886 212.11 112.139 218.273 119.392C248.599 155.287 278.951 191.158 309.328 227.003C309.88 227.605 310.394 228.241 310.866 228.907C311.653 229.913 312.037 231.176 311.942 232.45C311.847 233.724 311.281 234.916 310.353 235.794C309.861 236.224 309.284 236.545 308.661 236.738C308.037 236.931 307.38 236.992 306.731 236.916C306.082 236.84 305.457 236.629 304.895 236.297C304.332 235.965 303.846 235.519 303.466 234.988C299.658 230.592 295.847 226.05 292.112 221.582C261.565 185.467 231.017 149.328 200.469 113.164C200.227 112.838 200.008 112.496 199.816 112.139C195.492 117.194 191.465 121.955 187.436 126.716C157.327 162.318 127.195 197.945 97.0401 233.597C96.6757 234.205 96.1836 234.727 95.5976 235.127C95.0116 235.527 94.3458 235.794 93.6462 235.911C92.9466 236.028 92.23 235.992 91.5458 235.805C90.8616 235.618 90.2262 235.285 89.6835 234.828C89.1408 234.371 88.7037 233.802 88.4026 233.16C88.1014 232.518 87.9433 231.818 87.9392 231.109C87.9351 230.399 88.0851 229.698 88.3788 229.052C88.6725 228.406 89.1029 227.832 89.6403 227.369L197.105 100.337C197.827 99.54 198.633 98.6583 199.659 97.4141Z" fill="url(#paint1_linear_33_32)"/>
<path d="M273.282 406.112C273.164 406.691 273.091 407.279 273.063 407.869C273.063 410.361 274.601 411.533 276.871 410.433C278.407 409.705 279.836 408.769 281.116 407.65C285.953 403.255 290.567 398.788 295.4 394.392C296.887 393.034 298.597 391.944 300.455 391.169C304.557 389.484 306.683 390.516 308.44 394.611C310.637 391.46 312.685 388.383 314.814 385.379C316.12 383.622 317.596 382.009 318.991 380.324C320.529 378.42 321.995 379.37 323.458 380.399C325.068 381.496 324.702 382.744 323.752 384.135C319.507 390.434 315.261 396.809 311.078 403.255C310.286 404.563 309.837 406.051 309.772 407.579C315.924 404.793 319.895 399.519 325.228 395.64C323.69 397.765 322.224 399.96 320.539 401.939C317.756 405.237 315.046 408.607 312.048 411.608C310.482 413.111 308.53 414.151 306.408 414.613C303.992 415.201 302.526 413.806 302.307 411.318C302.286 409.114 302.409 406.912 302.672 404.724C300.987 406.922 299.374 409.12 297.617 411.171C294.982 414.175 292.562 415.054 290.511 414.028C288.385 413.003 287.507 410.217 288.225 406.409C288.444 405.312 288.813 404.212 289.326 402.455C288.02 403.846 287.2 404.871 286.25 405.75C283.392 408.242 280.535 410.733 277.534 413.075C276.404 413.883 275.097 414.411 273.723 414.613C268.374 415.491 265.151 412.415 266.323 407.141C267.07 403.585 268.665 400.262 270.974 397.456C273.283 394.65 276.236 392.443 279.581 391.025C279.875 390.878 280.169 390.66 280.46 390.731C282.145 390.878 284.561 390.584 285.358 391.538C285.819 392.314 286.109 393.179 286.21 394.076C286.312 394.973 286.222 395.881 285.946 396.74C285.294 398.805 284.175 400.692 282.676 402.254C281.177 403.817 279.338 405.013 277.302 405.75C275.983 406.04 274.632 406.161 273.282 406.112ZM293.428 409.117C294.409 408.831 295.365 408.463 296.285 408.016C298.094 406.646 299.807 405.153 301.412 403.549C303.399 401.521 305.253 399.368 306.963 397.103C307.404 396.449 307.476 394.686 307.035 394.392C306.087 393.991 305.039 393.888 304.031 394.098C303.472 394.248 302.981 394.585 302.64 395.052C299.782 398.859 296.925 402.67 294.068 406.553C293.798 407.392 293.585 408.25 293.428 409.117ZM273.795 404.061C276.064 403.619 278.17 402.566 279.887 401.018C281.603 399.469 282.866 397.482 283.539 395.27C283.611 394.905 283.392 394.245 283.245 394.245C282.723 394.12 282.174 394.198 281.707 394.464C279.85 396.017 278.111 397.707 276.505 399.519C275.474 400.952 274.568 402.474 273.795 404.061Z" fill="#5F6266"/>
<path d="M224.566 404.277C223.321 405.962 222.221 407.719 220.905 409.257C219.596 410.921 218.068 412.399 216.362 413.653C215.768 414.136 215.05 414.44 214.289 414.53C213.529 414.621 212.759 414.494 212.069 414.163C211.378 413.833 210.795 413.314 210.388 412.666C209.981 412.017 209.766 411.267 209.769 410.501C209.544 408.732 209.695 406.935 210.21 405.227C211.043 402.209 212.513 399.405 214.523 397.004C216.533 394.603 219.034 392.661 221.858 391.309C222.669 390.947 223.536 390.726 224.422 390.656C227.939 390.362 229.258 391.388 229.843 395.199C231.234 394.102 232.481 393.073 233.726 392.047C234.037 391.75 234.407 391.521 234.813 391.377C235.218 391.233 235.65 391.177 236.079 391.211C236.508 391.246 236.925 391.371 237.302 391.578C237.679 391.785 238.009 392.07 238.268 392.413C239.734 393.804 238.487 394.83 237.684 396.005C235.705 398.944 233.729 401.939 231.822 404.943C231.485 405.763 231.265 406.626 231.169 407.507C231.387 407.654 231.534 407.726 231.756 407.873C232.513 407.502 233.247 407.086 233.954 406.628C236.665 404.284 239.375 401.939 242.014 399.522C242.84 398.96 243.532 398.222 244.04 397.361C244.548 396.5 244.859 395.537 244.953 394.542C245.008 393.641 245.401 392.794 246.053 392.17C246.705 391.546 247.567 391.189 248.47 391.172C254.59 390.326 260.81 390.547 266.855 391.825C267.321 391.956 267.756 392.179 268.134 392.481C268.511 392.784 268.824 393.159 269.053 393.586C269.2 394.026 268.246 395.199 267.515 395.711C261.069 400.032 254.547 404.356 248.248 409.045C251.324 408.392 254.4 407.582 257.476 407.066C259.25 406.834 261.042 406.785 262.826 406.919C263.137 406.982 263.428 407.123 263.671 407.328C263.914 407.533 264.102 407.795 264.217 408.091C264.582 409.923 261.872 412.924 259.971 413.071C253.819 413.584 247.738 414.097 241.583 414.538C240.711 414.627 239.831 414.502 239.019 414.172C238.739 412.973 238.841 411.717 239.313 410.58C240.286 408.984 241.583 407.611 243.121 406.55C248.672 402.667 254.403 398.931 260.102 395.12C260.686 394.755 261.274 394.314 261.859 393.948C261.784 393.729 261.712 393.507 261.64 393.216C257.904 394.095 254.168 395.049 250.432 395.78C248.897 396.065 247.436 396.66 246.139 397.529C244.842 398.399 243.736 399.523 242.889 400.835C240.042 404.68 236.907 408.305 233.513 411.677C231.928 413.154 229.984 414.189 227.874 414.681C225.382 415.269 223.919 413.728 223.772 411.089C223.735 409.961 223.809 408.833 223.991 407.719C224.138 406.622 224.504 405.521 224.722 404.421C224.719 404.382 224.701 404.345 224.672 404.318C224.643 404.292 224.605 404.277 224.566 404.277ZM214.896 408.16C215.043 408.379 215.262 408.673 215.409 408.892C216.14 408.598 217.166 408.598 217.695 408.085C221.359 404.568 224.948 400.979 228.39 397.243C228.902 396.658 228.608 395.264 228.683 394.239C227.658 394.164 226.267 393.726 225.607 394.164C220.89 397.829 217.2 402.648 214.896 408.16Z" fill="#5F6266"/>
<path d="M62.6011 126.275L67.875 117.191L69.5601 118.144L65.4585 125.25L70.3569 128.107L73.7988 122.174L75.4839 123.127L72.0419 129.061L77.7567 132.356L82.002 125.031L83.6871 125.985L78.2662 135.289L62.6011 126.275Z" fill="#8B8D90"/>
<path d="M84.5787 112.798L76.96 112.067L78.4981 110.088L81.94 110.454C82.7467 110.601 83.6969 110.672 84.5035 110.748L84.5754 110.676C84.2096 109.869 83.9223 109.138 83.55 108.331L82.2437 105.255L83.71 103.351L86.4923 110.676L94.5518 111.329L93.0137 113.308L89.3497 112.942C88.3962 112.795 87.4458 112.723 86.5674 112.648L86.4955 112.72C86.8613 113.527 87.227 114.405 87.5928 115.284L88.984 118.654L87.5177 120.557L84.5787 112.798Z" fill="#8B8D90"/>
<path d="M90.1432 96.1666L91.4495 94.8604L92.6937 95.8139L92.7655 95.7421C92.835 94.1199 93.4546 92.5697 94.5224 91.3466C97.014 88.93 100.237 89.5146 103.166 92.5189C104.245 93.1661 105.086 94.1444 105.564 95.3081C106.042 96.4719 106.131 97.7589 105.818 98.9774C105.506 100.196 104.808 101.281 103.829 102.071C102.849 102.861 101.641 103.313 100.384 103.361L102.069 104.974L105.292 108.197L103.682 109.807L90.1432 96.1666ZM101.498 94.1876C99.3718 92.0617 97.321 91.3302 95.4923 93.1622C94.6128 94.2308 94.1685 95.5916 94.2481 96.9732L99.2281 102.028C100.45 102.015 101.624 101.55 102.523 100.722C104.061 99.171 103.842 96.5193 101.498 94.1909V94.1876Z" fill="#8B8D90"/>
<path d="M113.003 89.8671L102.526 76.3867L104.358 74.9955L114.906 88.6197C115.344 89.2042 115.713 89.2042 116.004 88.9854C116.144 88.8837 116.268 88.7603 116.369 88.6197L117.676 89.792C117.426 90.147 117.13 90.4676 116.797 90.7456C115.419 91.8428 114.247 91.4052 113.003 89.8671Z" fill="#8B8D90"/>
<path d="M120.108 79.6132C119.604 78.5062 119.431 77.2771 119.609 76.0738C119.788 74.8706 120.31 73.7446 121.113 72.8313C121.917 71.918 122.967 71.2565 124.138 70.9263C125.309 70.5962 126.55 70.6114 127.712 70.9703C128.874 71.3292 129.908 72.0164 130.689 72.9492C131.469 73.882 131.964 75.0206 132.112 76.2278C132.261 77.4351 132.057 78.6596 131.526 79.7538C130.995 80.8481 130.159 81.7655 129.118 82.3955C128.352 82.8396 127.502 83.1203 126.622 83.22C125.742 83.3197 124.851 83.2363 124.005 82.975C123.159 82.7137 122.376 82.2801 121.705 81.7016C121.035 81.123 120.491 80.412 120.108 79.6132ZM128.753 74.3392C127.139 71.7006 124.723 70.747 122.747 71.9227C120.771 73.0983 120.549 75.7304 122.094 78.369C123.639 81.0076 126.124 81.9612 128.099 80.7856C130.069 79.5348 130.362 76.9746 128.753 74.336V74.3392Z" fill="#8B8D90"/>
<path d="M136.368 62.8378L138.053 62.0312L139.225 64.1571H139.297C139.269 63.3233 139.474 62.4981 139.888 61.7738C140.302 61.0495 140.909 60.4546 141.642 60.0555C142.076 59.841 142.549 59.7166 143.033 59.6898L143.474 61.6687C143.022 61.7231 142.582 61.8464 142.168 62.0344C141.142 62.4753 140.189 63.7913 140.336 66.2797L143.853 74.1923L141.802 75.1459L136.368 62.8378Z" fill="#8B8D90"/>
<path d="M149.466 52.8744C149.395 52.6826 149.365 52.4777 149.379 52.2734C149.393 52.0691 149.45 51.8702 149.547 51.6899C149.644 51.5096 149.779 51.3521 149.942 51.2281C150.105 51.104 150.292 51.0162 150.492 50.9706C150.679 50.8923 150.88 50.8531 151.082 50.8553C151.285 50.8575 151.485 50.901 151.671 50.9833C151.856 51.0655 152.022 51.1847 152.16 51.3336C152.298 51.4824 152.403 51.6578 152.471 51.849C152.539 52.041 152.566 52.2451 152.55 52.4482C152.534 52.6512 152.476 52.8488 152.38 53.0281C152.283 53.2074 152.15 53.3645 151.989 53.4893C151.828 53.6142 151.643 53.7039 151.445 53.7528C151.26 53.847 151.057 53.8987 150.85 53.9043C150.642 53.9098 150.436 53.869 150.247 53.7848C150.057 53.7007 149.889 53.5753 149.754 53.4178C149.619 53.2603 149.521 53.0746 149.466 52.8744ZM151.223 56.829L153.421 56.0976L157.745 68.8335L155.547 69.565L151.223 56.829Z" fill="#8B8D90"/>
<path d="M164.06 52.8743L165.892 52.5085L166.477 54.3405H166.549C166.953 53.5696 167.514 52.8913 168.194 52.3488C168.875 51.8062 169.662 51.4113 170.503 51.1892C173.286 50.6046 174.899 52.1428 175.63 55.5129L177.387 63.863L175.19 64.3039L173.504 56.2477C172.992 53.756 172.038 52.8775 170.281 53.2433C168.975 53.5372 168.159 54.4156 167.13 56.0256L169.181 65.5481L166.999 65.9792L164.06 52.8743Z" fill="#8B8D90"/>
<path d="M185.816 65.2543C185.819 64.6234 185.982 64.0037 186.289 63.4527C186.596 62.9017 187.038 62.4374 187.573 62.103V61.956C187.185 61.7506 186.859 61.4452 186.63 61.0713C186.4 60.6974 186.274 60.2688 186.267 59.8301C186.268 59.3302 186.386 58.8376 186.613 58.3922C186.84 57.9468 187.169 57.5612 187.573 57.2666V57.1196C186.998 56.722 186.521 56.1986 186.178 55.5893C185.835 54.9799 185.635 54.3005 185.594 53.6025C185.54 52.9525 185.622 52.2984 185.833 51.6812C186.043 51.0641 186.38 50.4971 186.82 50.0158C187.26 49.5345 187.795 49.1493 188.391 48.8843C188.987 48.6192 189.631 48.4801 190.283 48.4755C190.926 48.4263 191.572 48.5006 192.187 48.6943L196.876 48.4004L197.023 50.1573L194.241 50.3761C194.987 51.0944 195.45 52.056 195.547 53.0866C195.605 53.724 195.527 54.3662 195.321 54.9719C195.114 55.5775 194.782 56.1331 194.347 56.6025C193.913 57.0719 193.384 57.4448 192.796 57.697C192.208 57.9492 191.573 58.0751 190.933 58.0666C190.237 58.1133 189.538 58.0132 188.882 57.7727C188.637 57.9611 188.443 58.2067 188.315 58.488C188.188 58.7693 188.131 59.0777 188.151 59.386C188.223 60.2644 188.804 60.7771 190.642 60.6922L193.278 60.5452C196.429 60.3264 198.039 61.1984 198.176 63.4026C198.323 65.8943 195.832 68.239 191.73 68.5296C188.308 68.6994 185.976 67.599 185.816 65.2543ZM193.435 53.1715C193.444 52.7691 193.369 52.3693 193.214 51.9977C193.059 51.6262 192.828 51.2913 192.536 51.0145C192.244 50.7377 191.897 50.5252 191.517 50.3907C191.138 50.2562 190.735 50.2027 190.334 50.2337C189.932 50.2646 189.542 50.3793 189.188 50.5704C188.833 50.7615 188.523 51.0247 188.277 51.343C188.031 51.6614 187.854 52.0278 187.758 52.4186C187.662 52.8095 187.649 53.2161 187.72 53.6123C187.715 54.0143 187.792 54.413 187.946 54.7843C188.1 55.1557 188.327 55.492 188.615 55.7728C188.902 56.0537 189.244 56.2733 189.619 56.4183C189.994 56.5634 190.394 56.6309 190.796 56.6167C191.595 56.4913 192.315 56.0631 192.806 55.4209C193.297 54.7788 193.522 53.9753 193.435 53.1715ZM195.851 63.8664C195.779 62.6222 194.826 62.2531 192.994 62.4001L190.649 62.547C190.062 62.5581 189.476 62.5342 188.892 62.4752C188.526 62.7512 188.225 63.1043 188.01 63.5094C187.795 63.9145 187.671 64.3619 187.648 64.8199C187.72 66.2862 189.261 67.1058 191.678 66.9458C194.388 66.7205 195.998 65.2542 195.851 63.8631V63.8664Z" fill="#8B8D90"/>
<path d="M219.073 44.743L229.474 46.2811L229.18 48.1849L221.12 47.0125L220.314 52.6523L227.126 53.6777L226.832 55.5815L220.02 54.5561L219.066 61.0874L227.416 62.3315L227.123 64.2354L216.509 62.7038L219.073 44.743Z" fill="#8B8D90"/>
<path d="M237.315 52.7274L239.6 53.3805L239.894 61.4368C239.894 62.8279 239.966 64.2191 239.966 65.6135H240.038C240.77 64.5162 241.576 63.2688 242.324 62.1715L246.866 55.5064L248.992 56.091L240.714 67.7394L238.15 67.0079L237.315 52.7274Z" fill="#8B8D90"/>
<path d="M254.237 65.1825C254.513 64.3579 254.952 63.5972 255.528 62.9455C256.104 62.2937 256.805 61.7642 257.589 61.3884C258.373 61.0126 259.225 60.798 260.093 60.7576C260.962 60.7171 261.83 60.8514 262.646 61.1527C263.373 61.4697 264.023 61.941 264.55 62.5339C265.077 63.1268 265.469 63.8272 265.699 64.5865C265.929 65.3459 265.991 66.1461 265.881 66.9319C265.771 67.7176 265.492 68.47 265.062 69.1372L264.475 70.3095L256.196 66.6455C255.919 67.1852 255.757 67.7761 255.718 68.3814C255.68 68.9867 255.766 69.5935 255.972 70.1639C256.178 70.7343 256.5 71.2562 256.917 71.697C257.333 72.1378 257.836 72.4881 258.394 72.7261C259.501 73.2077 260.729 73.3355 261.911 73.0918L262.058 74.7769C260.503 75.0658 258.897 74.8874 257.444 74.2641C256.6 73.9227 255.837 73.4058 255.208 72.7475C254.579 72.0893 254.097 71.3048 253.793 70.4461C253.49 69.5874 253.373 68.6741 253.449 67.7666C253.526 66.8592 253.794 65.9784 254.237 65.1825ZM263.322 67.9648C264.419 65.4731 263.906 63.6411 261.931 62.8378C260.936 62.4768 259.84 62.5129 258.872 62.9386C257.903 63.3643 257.135 64.1469 256.729 65.1237L263.322 67.9648Z" fill="#8B8D90"/>
<path d="M276.139 68.3305L277.753 69.2841L276.652 71.4818L276.724 71.5537C277.386 71.0486 278.176 70.7395 279.006 70.6615C279.835 70.5836 280.669 70.74 281.413 71.1128C281.842 71.3514 282.217 71.6761 282.514 72.0664L281.123 73.6045C280.85 73.2395 280.5 72.9395 280.097 72.726C279.144 72.1415 277.534 72.1415 275.555 73.6796L271.159 81.1513L269.18 79.979L276.139 68.3305Z" fill="#8B8D90"/>
<path d="M277.237 91.3333L278.703 90.161C278.898 90.4473 279.117 90.717 279.356 90.9676C280.6 91.9211 282.067 91.4803 283.533 90.5267L284.411 89.9422L288.294 75.949L290.198 77.3402L287.853 84.9589C287.487 86.1312 286.975 87.5224 286.609 88.7666L286.681 88.8384C287.706 88.1069 288.879 87.2252 289.904 86.4937L296.35 82.0264L298.11 83.3326L285.218 91.8232C282.873 93.3613 280.528 94.1679 278.331 92.4763C277.878 92.19 277.503 91.7977 277.237 91.3333Z" fill="#8B8D90"/>
<path d="M299.577 93.6063C300.11 92.9351 300.773 92.3782 301.527 91.969C302.28 91.5598 303.108 91.3067 303.962 91.2247C304.815 91.1427 305.676 91.2336 306.494 91.4918C307.312 91.7501 308.069 92.1705 308.72 92.7278C309.701 93.7538 310.251 95.1164 310.258 96.5355L311.796 94.8505L315.461 91.1865L317.07 92.7997L303.077 106.718L301.771 105.411L302.797 104.167L302.725 104.095C301.165 104.145 299.645 103.595 298.479 102.557C296.138 100.124 296.432 96.7543 299.577 93.6063ZM303.972 102.691L308.952 97.7112C308.961 96.485 308.492 95.3036 307.646 94.4161C306.108 92.878 303.469 93.1719 301.271 95.2946C298.985 97.5805 298.561 99.9089 300.246 101.522C300.745 101.977 301.338 102.318 301.983 102.519C302.628 102.72 303.309 102.778 303.979 102.688L303.972 102.691Z" fill="#8B8D90"/>
<path d="M311.676 111.185C314.021 109.428 316.731 110.601 320.686 114.777C322.077 113.752 323.03 112.286 321.711 110.532C320.768 109.417 319.519 108.602 318.119 108.187L318.85 106.502C320.646 107.114 322.241 108.204 323.465 109.654C325.444 112.292 324.49 114.709 321.851 116.688L315.268 121.658L314.171 120.12L315.343 119.019L315.271 118.947C313.622 118.65 312.123 117.798 311.026 116.531C310.671 116.158 310.404 115.711 310.242 115.222C310.081 114.734 310.029 114.216 310.091 113.705C310.153 113.194 310.327 112.703 310.601 112.268C310.875 111.832 311.242 111.462 311.676 111.185ZM316.437 117.925L319.441 115.639C316.293 112.344 314.543 111.757 313.142 112.857C312.886 113.022 312.67 113.243 312.512 113.504C312.354 113.765 312.257 114.058 312.229 114.361C312.2 114.665 312.241 114.971 312.349 115.256C312.456 115.541 312.627 115.799 312.848 116.008C313.752 117.081 315.033 117.767 316.427 117.925H316.437Z" fill="#8B8D90"/>
<path d="M314.67 130.965L316.502 130.452C316.576 130.801 316.674 131.143 316.796 131.478C317.528 132.784 319.082 133.016 320.826 132.722L321.851 132.503L330.995 121.22L332.167 123.271L326.965 129.352C326.159 130.305 325.133 131.331 324.33 132.356L324.402 132.428C325.646 132.134 327.041 131.843 328.285 131.549L335.975 130.011L337.072 131.99L321.835 134.701C319.053 135.214 316.561 134.92 315.242 132.578C314.957 132.079 314.764 131.532 314.67 130.965Z" fill="#8B8D90"/>
<path d="M333.862 382.819C337.585 382.819 340.603 379.801 340.603 376.078C340.603 372.356 337.585 369.338 333.862 369.338C330.14 369.338 327.122 372.356 327.122 376.078C327.122 379.801 330.14 382.819 333.862 382.819Z" stroke="#5F6266" stroke-width="1.30624" stroke-miterlimit="10"/>
<path d="M328.87 372.899V372.644H330.651V372.899H329.905V375.019H329.617V372.899H328.87ZM331.095 372.644H331.439L332.246 374.616H332.274L333.081 372.644H333.424V375.019H333.155V373.215H333.132L332.389 375.019H332.13L331.388 373.215H331.364V375.019H331.095V372.644Z" fill="#5F6266"/>
<path d="M221.052 453.947C221.047 452.326 221.422 450.726 222.147 449.275C222.873 447.825 223.928 446.565 225.229 445.597C225.685 445.172 226.26 444.897 226.877 444.809C227.494 444.72 228.124 444.822 228.681 445.1C229.239 445.379 229.698 445.822 229.997 446.368C230.296 446.915 230.421 447.541 230.356 448.16C230.518 449.622 230.307 451.1 229.744 452.458C229.18 453.816 228.282 455.009 227.132 455.926C226.555 456.365 225.889 456.671 225.18 456.823C224.471 456.975 223.737 456.969 223.031 456.804C222.077 456.429 221.565 454.607 221.052 453.947Z" fill="#5F6266"/>
<path d="M136.44 444.787L136.221 447.863V447.935C135.195 454.419 133.752 460.829 131.901 467.127C128.165 479.435 127.655 482.658 125.307 482.877C124.169 483.07 123.019 483.192 121.865 483.243C122.672 481.705 122.819 481.63 123.038 481.192C126.408 474.746 129.484 460.975 131.241 450.205C131.388 449.398 131.607 448.154 131.388 448.082C131.022 447.935 131.388 448.082 131.316 448.082C124.654 444.765 116.979 444.11 109.851 446.25C109.805 446.261 109.756 446.255 109.713 446.233C109.671 446.211 109.638 446.175 109.62 446.131C109.602 446.086 109.601 446.037 109.616 445.992C109.632 445.947 109.663 445.909 109.704 445.884C112.218 444.252 114.992 443.063 117.907 442.367C121.38 441.707 124.954 441.808 128.384 442.661C129.759 443.051 131.153 443.369 132.56 443.615C137.978 444.787 136.44 444.787 136.44 444.787Z" fill="#5F6266" stroke="#5F6266" stroke-width="4.89842" stroke-miterlimit="10"/>
<path d="M135.927 449.114L136.44 444.572C141.129 445.963 144.352 445.597 156.585 443.327C156.824 443.256 157.069 443.207 157.317 443.18C157.389 443.18 157.536 443.327 157.317 443.474C151.86 446.888 145.644 448.901 139.222 449.336C138.119 449.374 137.015 449.3 135.927 449.114Z" fill="#5F6266" stroke="#5F6266" stroke-width="4.89842" stroke-miterlimit="10"/>
<path d="M127.577 233.668C127.724 232.424 127.871 231.177 128.09 229.933C128.856 225.455 130.532 221.181 133.014 217.376C135.496 213.571 138.731 210.315 142.52 207.808C147.525 204.486 153.329 202.569 159.327 202.257C165.326 201.945 171.298 203.25 176.619 206.034C181.941 208.819 186.418 212.981 189.581 218.087C192.745 223.193 194.479 229.055 194.604 235.06C194.622 239.55 193.54 243.977 191.452 247.952C188.912 252.842 186.023 257.542 182.808 262.017C178.563 268.317 174.383 274.616 170.794 281.284C166.738 288.779 163.567 296.72 161.343 304.947C161.281 305.168 161.208 305.386 161.125 305.6C160.906 304.5 160.684 303.549 160.471 302.596C158.158 292.482 154.172 282.825 148.676 274.025C144.94 267.944 140.692 262.305 136.593 256.443C133.858 252.729 131.501 248.751 129.556 244.569C128.579 242.335 127.961 239.961 127.724 237.535C127.724 237.463 127.649 237.316 127.649 237.241C127.577 236.16 127.577 234.916 127.577 233.668ZM178.847 235.719C178.833 232.213 177.779 228.789 175.819 225.881C173.859 222.974 171.081 220.713 167.835 219.384C164.59 218.055 161.024 217.719 157.588 218.417C154.151 219.116 150.999 220.817 148.53 223.307C146.061 225.797 144.385 228.963 143.716 232.405C143.046 235.847 143.412 239.41 144.767 242.644C146.123 245.878 148.407 248.638 151.331 250.574C154.254 252.51 157.687 253.535 161.193 253.52C165.893 253.497 170.392 251.61 173.701 248.273C177.011 244.936 178.862 240.419 178.847 235.719Z" fill="url(#paint2_linear_33_32)"/>
<path d="M166.768 307.288C169.478 300.036 171.382 292.636 173.361 285.164L176.803 285.383C186.188 286.042 195.603 286.189 205.005 285.824C208.058 285.842 211.088 285.295 213.943 284.21C215.071 283.744 216.131 283.128 217.094 282.378C217.851 281.79 218.381 280.958 218.595 280.024C218.809 279.089 218.692 278.11 218.266 277.251C217.768 275.937 216.903 274.794 215.775 273.956C214.383 272.931 212.992 272.052 211.529 271.099C209.199 269.745 207.035 268.123 205.083 266.266C204.468 265.674 203.928 265.009 203.473 264.287C202.764 263.349 202.375 262.209 202.362 261.033C202.349 259.857 202.713 258.709 203.401 257.756C205.134 255.141 207.648 253.141 210.585 252.041C213.771 250.813 217.138 250.12 220.549 249.99C225.366 249.732 230.196 250.1 234.918 251.087C233.611 251.159 232.279 251.159 230.888 251.234C226.472 251.358 222.08 251.922 217.776 252.919C216.057 253.304 214.406 253.946 212.878 254.823C212.53 255.025 212.21 255.271 211.924 255.555C211.242 256.069 210.774 256.818 210.612 257.657C210.449 258.496 210.604 259.365 211.046 260.097C211.712 261.386 212.762 262.436 214.05 263.101C216.689 264.493 219.324 265.884 222.035 267.203C225.21 268.622 228.188 270.444 230.898 272.624C232.759 274.161 234.302 276.047 235.44 278.175C236.655 280.262 237.251 282.65 237.16 285.062C237.07 287.474 236.295 289.811 234.927 291.8C232.508 295.444 229.207 298.418 225.33 300.444C220.303 303.308 214.749 305.128 209.002 305.793C199.786 306.83 190.517 307.32 181.244 307.259C176.63 307.259 171.94 307.184 167.326 307.112C167.208 307.36 166.986 307.288 166.768 307.288Z" fill="url(#paint3_linear_33_32)"/>
<path d="M236.511 247.662C235.726 244.135 234.648 240.68 233.288 237.332C231.398 233.04 229.091 228.942 226.401 225.099C224.275 222.023 222.077 218.947 219.954 215.796C218.549 213.837 217.55 211.616 217.015 209.265C216.304 205.7 216.762 202 218.322 198.717C219.985 194.843 222.84 191.599 226.47 189.457C230.101 187.314 234.32 186.384 238.516 186.8C242.711 187.216 246.665 188.958 249.804 191.772C252.943 194.586 255.104 198.327 255.974 202.452C256.926 206.712 256.191 211.175 253.923 214.904C251.798 218.496 249.456 221.938 247.183 225.452C243.269 231.145 240.117 237.326 237.808 243.838C237.255 245.068 236.821 246.349 236.511 247.662ZM236.439 196.016C234.36 196.009 232.326 196.618 230.593 197.768C228.861 198.917 227.508 200.554 226.705 202.472C225.903 204.39 225.688 206.503 226.086 208.544C226.485 210.584 227.48 212.46 228.945 213.936C230.41 215.411 232.28 216.418 234.317 216.831C236.355 217.243 238.469 217.043 240.393 216.253C242.316 215.464 243.963 214.123 245.124 212.398C246.285 210.673 246.908 208.643 246.915 206.564C246.928 205.181 246.667 203.809 246.145 202.528C245.624 201.247 244.854 200.082 243.879 199.101C242.904 198.12 241.745 197.342 240.467 196.812C239.189 196.283 237.819 196.012 236.436 196.016H236.439Z" fill="url(#paint4_linear_33_32)"/>
</g>
<defs>
<linearGradient id="paint0_linear_33_32" x1="16.8506" y1="169.8" x2="383.031" y2="169.8" gradientUnits="userSpaceOnUse">
<stop stop-color="#0061AB"/>
<stop offset="0.178" stop-color="#006AB0"/>
<stop offset="0.469" stop-color="#0082BC"/>
<stop offset="0.834" stop-color="#00AAD0"/>
<stop offset="1" stop-color="#00BEDA"/>
</linearGradient>
<linearGradient id="paint1_linear_33_32" x1="87.9391" y1="167.181" x2="311.956" y2="167.181" gradientUnits="userSpaceOnUse">
<stop stop-color="#0061AB"/>
<stop offset="1" stop-color="#00BEDA"/>
</linearGradient>
<linearGradient id="paint2_linear_33_32" x1="127.577" y1="253.906" x2="194.604" y2="253.906" gradientUnits="userSpaceOnUse">
<stop stop-color="#F69174"/>
<stop offset="1" stop-color="#F47A57"/>
</linearGradient>
<linearGradient id="paint3_linear_33_32" x1="166.768" y1="278.776" x2="237.24" y2="278.776" gradientUnits="userSpaceOnUse">
<stop stop-color="#0061AB"/>
<stop offset="1" stop-color="#00BEDA"/>
</linearGradient>
<linearGradient id="paint4_linear_33_32" x1="216.57" y1="217.121" x2="256.261" y2="217.121" gradientUnits="userSpaceOnUse">
<stop stop-color="#F69174"/>
<stop offset="1" stop-color="#F47A57"/>
</linearGradient>
<clipPath id="clip0_33_32">
<rect width="366.111" height="471.763" fill="white" transform="translate(16.889 13.9712)"/>
</clipPath>
</defs>
</svg>
