<svg width="400" height="500" viewBox="0 0 400 500" fill="none" xmlns="http://www.w3.org/2000/svg">
<g clip-path="url(#clip0_33_32)">
<rect width="400" height="500" fill="white"/>
<g clip-path="url(#clip1_33_32)">
<path d="M44.6027 353.288C40.8926 353.288 37.4056 352.613 34.1448 351.25C30.8958 349.9 28.0485 348.037 25.6237 345.69C23.1989 343.327 21.2888 340.578 19.8756 337.416C18.4772 334.256 17.778 330.867 17.778 327.246C17.778 323.634 18.4772 320.249 19.8756 317.086C21.2888 313.926 23.1989 311.177 25.6237 308.839C28.0485 306.491 30.8958 304.641 34.1448 303.29C37.4056 301.927 40.8926 301.252 44.6027 301.252C48.3009 301.252 51.7878 301.927 55.0487 303.29C58.2976 304.641 61.1479 306.488 63.5846 308.839C66.0332 311.177 67.9463 313.926 69.3565 317.086C70.7579 320.246 71.457 323.634 71.457 327.246C71.457 330.87 70.7579 334.256 69.3565 337.416C67.9463 340.578 66.0332 343.327 63.5846 345.69C61.1479 348.037 58.3006 349.9 55.0487 351.25C51.7878 352.613 48.3009 353.288 44.6027 353.288ZM44.6146 344.967C47.0751 344.967 49.3868 344.518 51.5498 343.631C53.6979 342.732 55.5872 341.507 57.1968 339.933C58.7975 338.371 60.0709 336.508 60.9961 334.333C61.9214 332.17 62.3826 329.835 62.3826 327.312C62.3826 324.762 61.9214 322.415 60.9961 320.24C60.0709 318.077 58.7975 316.202 57.1968 314.628C55.5842 313.055 53.6979 311.817 51.5498 310.918C49.3868 310.032 47.0751 309.582 44.6146 309.582C42.1779 309.582 39.878 310.032 37.7299 310.918C35.5669 311.817 33.6925 313.055 32.0948 314.628C30.4942 316.202 29.2327 318.077 28.3074 320.24C27.3821 322.415 26.9209 324.762 26.9209 327.312C26.9209 329.835 27.385 332.173 28.3074 334.333C29.2327 336.508 30.5061 338.371 32.1067 339.933C33.7193 341.507 35.5937 342.732 37.7418 343.631C39.8929 344.518 42.1779 344.967 44.6146 344.967ZM96.0711 353.366C93.56 353.366 91.2095 353.027 89.0495 352.339C86.9014 351.652 85.027 350.566 83.4264 349.067C81.8406 347.567 80.6029 345.63 79.6895 343.271C78.791 340.897 78.3387 338.046 78.3387 334.699V314.605H87.1097V334.434C87.1097 337.921 87.8594 340.569 89.3471 342.393C90.8347 344.205 93.0572 345.119 96.0205 345.119C98.9927 345.119 101.218 344.205 102.682 342.369C104.143 340.546 104.881 337.895 104.881 334.434V314.605H113.729V334.699C113.729 338.049 113.28 340.897 112.378 343.271C111.468 345.633 110.227 347.57 108.641 349.067C107.041 350.566 105.181 351.655 103.03 352.339C100.882 353.027 98.5583 353.366 96.0711 353.366ZM138.706 352.241C137.293 352.241 135.844 352.078 134.371 351.741C132.895 351.417 131.56 350.742 130.346 349.742C129.147 348.73 128.159 347.281 127.385 345.407C126.624 343.521 126.237 341.034 126.237 337.945V322.251H118.439V314.605H126.237V303.584L135.082 303.51V314.605H146.352V322.251H135.082V338.347C135.082 339.659 135.234 340.745 135.546 341.584C135.847 342.423 136.246 343.095 136.745 343.595C137.245 344.095 137.834 344.434 138.483 344.622C139.146 344.809 139.834 344.895 140.545 344.895H146.355V352.244H138.709L138.706 352.241ZM154.302 302.46H162.249L179.443 325.664L196.738 302.46H204.685V352.241H195.539V317.065L180.645 337.419H178.196L163.451 316.988V352.238H154.305V302.457L154.302 302.46ZM230.813 353.369C228.275 353.369 225.916 352.857 223.741 351.819C221.578 350.78 219.704 349.355 218.13 347.543C216.556 345.743 215.318 343.631 214.431 341.197C213.545 338.772 213.096 336.187 213.096 333.426C213.096 330.665 213.545 328.076 214.446 325.666C215.36 323.254 216.597 321.144 218.171 319.344C219.745 317.532 221.608 316.107 223.771 315.057C225.934 314.007 228.269 313.483 230.78 313.483C233.88 313.483 236.615 314.146 238.977 315.456C241.351 316.768 243.139 318.603 244.362 320.954V314.605H252.761V352.241H244.362L244.35 345.919C243.113 348.281 241.316 350.117 238.953 351.417C236.603 352.717 233.892 353.366 230.819 353.366L230.813 353.369ZM232.925 345.196C234.464 345.196 235.913 344.895 237.263 344.297C238.626 343.696 239.786 342.872 240.786 341.822C241.774 340.772 242.547 339.522 243.121 338.085C243.696 336.636 243.984 335.086 243.984 333.423C243.984 331.787 243.696 330.248 243.121 328.823C242.547 327.386 241.759 326.137 240.759 325.074C239.759 324.012 238.584 323.176 237.248 322.563C235.898 321.95 234.461 321.653 232.925 321.653C231.414 321.653 229.989 321.927 228.641 322.489C227.305 323.051 226.13 323.852 225.13 324.875C224.131 325.899 223.33 327.148 222.744 328.6C222.158 330.049 221.869 331.662 221.869 333.423C221.869 335.259 222.17 336.898 222.768 338.359C223.369 339.808 224.166 341.045 225.166 342.057C226.166 343.069 227.341 343.845 228.677 344.381C230.028 344.919 231.438 345.193 232.925 345.193V345.196ZM260.268 346.758L279.773 322.105H261.255V314.608H291.82V320.168L272.451 344.747H292.695V352.244H260.268V346.758ZM334.877 332.75C334.877 333.238 334.866 333.688 334.854 334.086C334.827 334.485 334.791 335.035 334.729 335.75H305.301C305.524 337.297 305.949 338.674 306.586 339.885C307.211 341.096 307.999 342.122 308.91 342.935C309.82 343.759 310.87 344.396 312.034 344.836C313.209 345.273 314.447 345.499 315.732 345.499C317.981 345.499 319.793 345.062 321.191 344.175C322.578 343.289 323.589 342.039 324.229 340.415H333.887C333.426 342.102 332.661 343.726 331.599 345.288C330.537 346.85 329.236 348.225 327.701 349.424C326.163 350.611 324.402 351.572 322.414 352.298C320.427 353.012 318.255 353.372 315.916 353.372C313.078 353.372 310.481 352.848 308.094 351.798C305.72 350.748 303.658 349.322 301.933 347.511C300.195 345.711 298.847 343.598 297.86 341.164C296.884 338.74 296.399 336.166 296.399 333.429C296.399 330.668 296.887 328.079 297.86 325.669C298.847 323.257 300.195 321.147 301.933 319.347C303.658 317.535 305.72 316.11 308.094 315.06C310.481 314.01 313.081 313.486 315.916 313.486C318.74 313.486 321.325 313.998 323.652 315.036C325.987 316.071 327.987 317.473 329.638 319.246C331.301 321.007 332.586 323.057 333.5 325.381C334.41 327.716 334.874 330.168 334.874 332.753L334.877 332.75ZM325.88 328.927C325.782 327.877 325.455 326.877 324.893 325.94C324.33 325.003 323.604 324.191 322.718 323.492C321.819 322.792 320.793 322.242 319.617 321.828C318.442 321.415 317.219 321.204 315.919 321.204C314.795 321.204 313.706 321.352 312.644 321.665C311.581 321.965 310.594 322.438 309.695 323.063C308.797 323.7 307.996 324.512 307.297 325.488C306.61 326.461 306.071 327.612 305.711 328.924H325.88V328.927ZM357.62 353.369C354.957 353.369 352.509 352.857 350.274 351.819C348.049 350.78 346.124 349.355 344.514 347.543C342.902 345.743 341.652 343.631 340.765 341.197C339.879 338.772 339.429 336.187 339.429 333.426C339.429 330.665 339.867 328.076 340.742 325.666C341.628 323.254 342.866 321.144 344.452 319.344C346.052 317.532 347.974 316.107 350.238 315.057C352.488 314.007 354.975 313.483 357.712 313.483C359.247 313.483 360.673 313.694 362.011 314.12C363.335 314.545 364.534 315.096 365.623 315.783C366.712 316.458 367.661 317.244 368.459 318.118C369.259 318.993 369.908 319.868 370.396 320.742L370.244 316.818V300.663H379.092V352.244H370.619L370.646 345.898C370.083 346.874 369.396 347.808 368.56 348.71C367.736 349.623 366.772 350.42 365.674 351.123C364.573 351.81 363.362 352.36 362.014 352.774C360.679 353.172 359.215 353.375 357.629 353.375L357.62 353.369ZM359.221 345.196C360.756 345.196 362.208 344.895 363.556 344.297C364.918 343.696 366.093 342.872 367.09 341.81C368.09 340.748 368.878 339.498 369.452 338.061C370.027 336.612 370.315 335.062 370.315 333.399C370.315 331.751 370.027 330.201 369.452 328.776C368.878 327.35 368.09 326.101 367.09 325.051C366.09 324.015 364.915 323.176 363.579 322.563C362.229 321.95 360.78 321.653 359.218 321.653C357.656 321.653 356.195 321.942 354.844 322.528C353.481 323.114 352.321 323.926 351.318 324.964C350.331 326 349.557 327.237 348.983 328.689C348.409 330.126 348.12 331.7 348.12 333.399C348.12 335.062 348.394 336.612 348.944 338.061C349.495 339.498 350.256 340.748 351.232 341.81C352.208 342.872 353.383 343.696 354.743 344.297C356.118 344.895 357.605 345.196 359.218 345.196H359.221Z" fill="#042E46"/>
<path d="M271.841 370.084H262.719V366.695H284.721V370.084H275.578V395.537H271.841V370.084ZM286.706 373.907H290.225V378.745C290.752 377.245 291.579 376.067 292.707 375.204C293.837 374.344 295.197 373.91 296.783 373.91H298.883V377.126H296.973C296.024 377.126 295.149 377.308 294.346 377.677C293.534 378.045 292.84 378.581 292.245 379.292C291.65 379.994 291.189 380.863 290.856 381.883C290.523 382.91 290.356 384.07 290.356 385.373V395.546H286.708V373.913L286.706 373.907ZM310.733 396.147C309.249 396.147 307.868 395.849 306.592 395.257C305.318 394.662 304.209 393.853 303.278 392.817C302.343 391.782 301.605 390.574 301.07 389.176C300.525 387.786 300.261 386.296 300.261 384.71C300.261 383.133 300.528 381.648 301.07 380.259C301.605 378.876 302.343 377.668 303.278 376.632C304.212 375.597 305.318 374.788 306.592 374.193C307.865 373.598 309.24 373.303 310.719 373.303C311.694 373.303 312.623 373.425 313.497 373.666C314.381 373.904 315.193 374.252 315.937 374.716C316.675 375.174 317.335 375.731 317.913 376.367C318.484 377.01 318.957 377.736 319.326 378.545V373.913H322.801V395.546H319.326L319.317 390.934C318.954 391.743 318.478 392.469 317.907 393.112C317.335 393.749 316.675 394.299 315.931 394.757C315.184 395.207 314.375 395.555 313.497 395.793C312.623 396.034 311.694 396.156 310.733 396.156V396.147ZM311.552 392.713C312.617 392.713 313.607 392.511 314.533 392.097C315.458 391.693 316.27 391.128 316.964 390.405C317.66 389.688 318.201 388.84 318.6 387.864C318.999 386.894 319.192 385.835 319.192 384.707C319.192 383.591 318.996 382.55 318.6 381.58C318.201 380.604 317.66 379.756 316.964 379.039C316.27 378.316 315.458 377.751 314.533 377.346C313.605 376.933 312.623 376.73 311.572 376.73C310.507 376.73 309.517 376.927 308.591 377.322C307.663 377.712 306.854 378.272 306.158 378.974C305.464 379.676 304.914 380.515 304.515 381.494C304.108 382.47 303.908 383.541 303.908 384.707C303.908 385.909 304.111 387.001 304.515 387.98C304.914 388.965 305.47 389.804 306.166 390.5C306.869 391.202 307.687 391.743 308.615 392.136C309.543 392.52 310.519 392.716 311.555 392.716L311.552 392.713ZM326.579 373.904H330.459L336.57 389.173L337.097 391.107L337.612 389.173L343.714 373.904H347.617L338.823 395.537H335.362L326.579 373.904ZM370.544 384.192C370.544 384.389 370.544 384.591 370.538 384.787C370.532 384.984 370.524 385.278 370.503 385.677H352.55C352.66 386.769 352.934 387.748 353.362 388.622C353.797 389.491 354.338 390.238 354.999 390.851C355.659 391.467 356.397 391.937 357.212 392.261C358.036 392.588 358.893 392.755 359.783 392.755C361.238 392.755 362.484 392.446 363.511 391.821C364.546 391.196 365.299 390.271 365.784 389.033H369.875C369.563 390.024 369.101 390.952 368.485 391.812C367.87 392.675 367.132 393.427 366.263 394.07C365.394 394.713 364.418 395.221 363.332 395.59C362.255 395.959 361.095 396.141 359.863 396.141C358.298 396.141 356.843 395.843 355.505 395.251C354.172 394.656 353.005 393.847 352.015 392.811C351.03 391.776 350.256 390.568 349.697 389.185C349.141 387.795 348.858 386.311 348.858 384.725C348.858 383.145 349.141 381.663 349.697 380.271C350.253 378.887 351.03 377.68 352.015 376.644C353.005 375.609 354.172 374.799 355.505 374.196C356.843 373.595 358.298 373.291 359.863 373.291C361.419 373.291 362.853 373.589 364.162 374.181C365.466 374.776 366.593 375.57 367.542 376.564C368.491 377.563 369.229 378.721 369.759 380.033C370.286 381.351 370.547 382.734 370.547 384.189L370.544 384.192ZM366.852 382.461C366.796 381.702 366.569 380.976 366.186 380.289C365.796 379.602 365.281 379.001 364.644 378.48C364.008 377.959 363.276 377.546 362.452 377.236C361.628 376.924 360.75 376.772 359.831 376.772C359.027 376.772 358.245 376.897 357.477 377.141C356.718 377.388 356.016 377.748 355.386 378.227C354.764 378.706 354.213 379.298 353.758 380.009C353.294 380.72 352.961 381.538 352.753 382.464H366.855L366.852 382.461ZM375.403 365.651H379.095V395.537H375.403V365.651Z" fill="#042E46"/>
<path fill-rule="evenodd" clip-rule="evenodd" d="M322.521 158.908C322.521 227.436 266.965 282.993 198.437 282.993C188.481 282.993 174.385 281.547 164.956 278.402C108.284 254.52 167.334 186.087 200.936 167.155C203.129 165.921 205.378 164.876 206.723 164.745C212.527 164.269 215.97 168.643 217.314 172.66L233.55 218.32L237.924 214.646C237.924 214.646 241.506 212.418 240.111 206.235C240.111 206.235 237.864 193.629 238.126 193.442L244.499 187.253C249.295 182.323 245.043 178.675 241.5 181.389L237.492 184.355L234.892 169.765L241.313 163.933C246.364 159.319 241.524 155.719 238.772 157.926L234.107 161.669L231.102 139.388C248.56 122.063 256.492 112.786 250.524 106.815C244.556 100.847 235.276 108.779 217.951 126.237L195.67 123.232L199.412 118.567C201.62 115.812 198.02 110.974 193.405 116.026L187.574 122.447L172.984 119.846L175.95 115.839C178.663 112.298 175.016 108.047 170.086 112.84L163.897 119.213C163.71 119.474 151.104 117.228 151.104 117.228C144.924 115.833 142.693 119.415 142.693 119.415L139.018 123.789L184.679 140.024C188.696 141.369 193.069 144.811 192.593 150.616C192.462 151.961 191.415 154.213 190.183 156.403C173.275 186.417 101.766 246.576 78.901 192.311C75.9377 181.683 74.3489 170.479 74.3489 158.905C74.3489 90.3738 129.902 34.8175 198.434 34.8205C266.962 34.8205 322.518 90.3768 322.518 158.905L322.521 158.908Z" fill="url(#paint0_linear_33_32)"/>
<path fill-rule="evenodd" clip-rule="evenodd" d="M365.448 405.59H31.4194C24.1063 405.59 18.1261 411.57 18.1261 418.883C18.1261 426.196 24.1063 432.176 31.4194 432.176H365.448C372.761 432.176 378.741 426.196 378.741 418.883C378.741 411.57 372.758 405.59 365.448 405.59Z" fill="url(#paint1_linear_33_32)"/>
<path d="M48.4704 424.89C49.0327 424.89 49.5147 424.825 49.9134 424.691C50.3121 424.56 50.6394 424.379 50.8923 424.149C51.1452 423.92 51.3296 423.647 51.4486 423.331C51.5676 423.016 51.6271 422.671 51.6271 422.296C51.6271 421.555 51.3713 420.966 50.8566 420.54C50.3418 420.115 49.5475 419.901 48.4704 419.901H45.3464V424.89H48.4704ZM45.3464 413.436V418.33H47.8962C48.9881 418.33 49.8004 418.107 50.3299 417.666C50.8595 417.226 51.1243 416.631 51.1243 415.881C51.1243 415.027 50.8714 414.406 50.3656 414.016C49.8599 413.626 49.0714 413.433 48.0003 413.433H45.3464V413.436ZM48.0003 411.695C48.9375 411.695 49.7438 411.784 50.4132 411.966C51.0827 412.147 51.6331 412.406 52.0615 412.745C52.4929 413.085 52.8113 413.495 53.0166 413.977C53.2219 414.459 53.32 415.01 53.32 415.619C53.32 415.982 53.2665 416.328 53.1534 416.661C53.0433 416.994 52.8708 417.303 52.6447 417.592C52.4156 417.881 52.127 418.139 51.7819 418.369C51.4338 418.598 51.0232 418.788 50.5531 418.94C52.725 419.371 53.8139 420.505 53.8139 422.343C53.8139 422.983 53.6949 423.563 53.4599 424.087C53.2219 424.611 52.8797 425.066 52.4275 425.447C51.9752 425.827 51.4218 426.122 50.7613 426.33C50.1008 426.539 49.3511 426.643 48.5121 426.643H43.1269V411.689H48.0003V411.695ZM71.2309 416.069L65.3578 429.722C65.2953 429.877 65.212 429.993 65.1079 430.076C65.0037 430.159 64.852 430.201 64.6497 430.201H63.1383L65.0751 425.985L60.7313 416.072H62.5016C62.6741 416.072 62.811 416.113 62.9092 416.197C63.0044 416.28 63.0758 416.375 63.1175 416.479L65.8041 422.831C65.8576 422.992 65.9142 423.153 65.9677 423.313C66.0213 423.477 66.0629 423.641 66.0957 423.798C66.1433 423.632 66.1968 423.465 66.2533 423.301C66.3069 423.138 66.3694 422.977 66.4289 422.819L69.0233 416.476C69.0709 416.357 69.1482 416.262 69.2524 416.185C69.3565 416.107 69.4755 416.069 69.6064 416.069H71.2309ZM96.9814 419.172C96.9814 420.288 96.8059 421.314 96.4459 422.245C96.0889 423.18 95.5801 423.986 94.9285 424.661C94.277 425.337 93.4945 425.866 92.5841 426.241C91.6766 426.616 90.665 426.803 89.5553 426.803C88.4515 426.803 87.4429 426.616 86.5325 426.241C85.6191 425.866 84.8396 425.34 84.191 424.661C83.5424 423.983 83.0366 423.18 82.6736 422.245C82.3136 421.311 82.1321 420.288 82.1321 419.172C82.1321 418.062 82.3136 417.036 82.6736 416.098C83.0366 415.161 83.5424 414.352 84.191 413.677C84.8396 412.998 85.622 412.472 86.5325 412.094C87.4459 411.716 88.4515 411.529 89.5553 411.529C90.665 411.529 91.6766 411.716 92.5841 412.094C93.4945 412.472 94.274 412.998 94.9285 413.677C95.5801 414.355 96.0889 415.161 96.4459 416.098C96.8029 417.036 96.9814 418.059 96.9814 419.172ZM94.7114 419.172C94.7114 418.282 94.5894 417.485 94.3454 416.777C94.1014 416.069 93.7593 415.468 93.313 414.977C92.8637 414.483 92.3223 414.105 91.6885 413.84C91.0518 413.575 90.3408 413.445 89.5583 413.445C88.7728 413.445 88.0647 413.575 87.431 413.84C86.7973 414.105 86.2498 414.483 85.8006 414.977C85.3483 415.471 85.0002 416.069 84.7592 416.777C84.5153 417.485 84.3933 418.282 84.3933 419.172C84.3933 420.067 84.5153 420.865 84.7592 421.57C85.0032 422.275 85.3483 422.876 85.8006 423.367C86.2528 423.861 86.7973 424.233 87.431 424.495C88.0677 424.753 88.7758 424.887 89.5583 424.887C90.3408 424.887 91.0548 424.756 91.6885 424.495C92.3223 424.233 92.8667 423.858 93.313 423.367C93.7623 422.873 94.1044 422.272 94.3454 421.57C94.5894 420.865 94.7114 420.067 94.7114 419.172ZM113.985 416.069V426.649H112.765C112.488 426.649 112.307 426.515 112.224 426.241L112.078 425.179C111.849 425.423 111.611 425.643 111.361 425.845C111.111 426.048 110.843 426.217 110.557 426.36C110.272 426.503 109.971 426.613 109.653 426.693C109.332 426.774 108.989 426.815 108.621 426.815C108.037 426.815 107.526 426.717 107.085 426.524C106.645 426.327 106.273 426.054 105.976 425.705C105.678 425.354 105.452 424.935 105.3 424.441C105.145 423.947 105.071 423.403 105.071 422.808V416.069H107.112V422.808C107.112 423.563 107.285 424.152 107.633 424.569C107.981 424.988 108.51 425.2 109.224 425.2C109.745 425.2 110.233 425.075 110.682 424.828C111.135 424.581 111.557 424.245 111.953 423.813V416.066H113.985V416.069ZM126.136 426.815C125.282 426.815 124.624 426.574 124.166 426.095C123.705 425.616 123.473 424.932 123.473 424.045V417.714H122.244C122.125 417.714 122.03 417.675 121.95 417.601C121.869 417.53 121.828 417.422 121.828 417.274V416.453L123.547 416.212L124.005 413.058C124.032 412.939 124.089 412.847 124.169 412.778C124.249 412.713 124.348 412.68 124.473 412.68H125.505V416.232H128.504V417.711H125.505V423.908C125.505 424.325 125.609 424.634 125.814 424.84C126.02 425.045 126.278 425.149 126.597 425.149C126.784 425.149 126.948 425.125 127.082 425.075C127.216 425.027 127.332 424.971 127.43 424.911C127.528 424.852 127.611 424.798 127.68 424.75C127.748 424.703 127.811 424.679 127.867 424.679C127.936 424.679 127.992 424.691 128.031 424.724C128.07 424.756 128.108 424.807 128.15 424.878L128.754 425.857C128.421 426.161 128.025 426.399 127.567 426.565C127.109 426.732 126.633 426.815 126.139 426.815H126.136ZM152.499 411.695V426.649H150.562V416.006C150.562 415.846 150.568 415.676 150.58 415.494C150.589 415.316 150.601 415.129 150.616 414.944L145.638 424.078C145.466 424.417 145.198 424.587 144.835 424.587H144.523C144.163 424.587 143.898 424.417 143.731 424.078L138.658 414.914C138.7 415.304 138.721 415.667 138.721 416.009V426.652H136.772V411.698H138.417C138.611 411.698 138.763 411.716 138.873 411.755C138.98 411.793 139.081 411.9 139.179 412.073L144.177 421.028C144.276 421.21 144.365 421.4 144.448 421.6C144.531 421.802 144.612 422.001 144.686 422.204C144.832 421.793 145.002 421.397 145.198 421.017L150.101 412.07C150.19 411.897 150.292 411.787 150.399 411.752C150.506 411.713 150.654 411.695 150.851 411.695H152.496H152.499ZM167.158 421.954C166.331 421.981 165.629 422.043 165.055 422.144C164.477 422.245 164.01 422.379 163.647 422.546C163.287 422.712 163.025 422.909 162.868 423.132C162.707 423.358 162.627 423.611 162.627 423.888C162.627 424.152 162.671 424.379 162.758 424.569C162.844 424.759 162.963 424.917 163.112 425.039C163.261 425.161 163.436 425.25 163.635 425.307C163.838 425.363 164.055 425.39 164.29 425.39C164.602 425.39 164.891 425.357 165.15 425.298C165.409 425.235 165.653 425.143 165.882 425.03C166.111 424.914 166.331 424.777 166.536 424.611C166.745 424.444 166.95 424.254 167.152 424.039V421.957L167.158 421.954ZM161.202 417.547C161.794 416.985 162.433 416.566 163.124 416.286C163.814 416.006 164.573 415.869 165.397 415.869C166.001 415.869 166.536 415.965 167 416.164C167.465 416.363 167.857 416.64 168.179 416.994C168.497 417.348 168.741 417.771 168.905 418.264C169.068 418.758 169.148 419.303 169.148 419.898V426.646H168.244C168.042 426.646 167.89 426.61 167.786 426.544C167.682 426.479 167.598 426.357 167.536 426.176L167.316 425.247C167.045 425.497 166.777 425.714 166.515 425.908C166.251 426.098 165.977 426.262 165.688 426.399C165.4 426.536 165.09 426.64 164.766 426.708C164.439 426.777 164.079 426.812 163.683 426.812C163.266 426.812 162.877 426.753 162.514 426.64C162.148 426.524 161.829 426.351 161.559 426.116C161.288 425.881 161.077 425.586 160.919 425.229C160.761 424.875 160.684 424.462 160.684 423.992C160.684 423.575 160.797 423.174 161.023 422.787C161.249 422.4 161.615 422.058 162.127 421.751C162.636 421.445 163.305 421.195 164.126 421.002C164.947 420.805 165.959 420.695 167.161 420.668V419.898C167.161 419.1 166.991 418.502 166.649 418.107C166.31 417.711 165.81 417.515 165.15 417.515C164.706 417.515 164.335 417.571 164.031 417.681C163.731 417.791 163.469 417.913 163.252 418.05C163.034 418.187 162.841 418.312 162.68 418.422C162.517 418.535 162.347 418.589 162.175 418.589C162.035 418.589 161.919 418.55 161.818 418.473C161.716 418.395 161.633 418.306 161.571 418.202L161.205 417.547H161.202ZM185.244 416.923C185.244 417.068 185.221 417.211 185.167 417.351C185.114 417.491 185.045 417.607 184.962 417.705L179.41 425.057H185.054V426.649H177.024V425.795C177.024 425.697 177.048 425.581 177.098 425.444C177.146 425.307 177.217 425.182 177.307 425.066L182.888 417.663H177.348V416.069H185.241V416.923H185.244ZM200.132 420.183C200.132 419.782 200.076 419.41 199.963 419.071C199.85 418.732 199.677 418.434 199.457 418.184C199.237 417.934 198.963 417.741 198.645 417.601C198.326 417.461 197.958 417.393 197.541 417.393C196.687 417.393 196.018 417.64 195.53 418.131C195.039 418.624 194.726 419.309 194.596 420.18H200.135L200.132 420.183ZM201.808 425.14C201.558 425.432 201.269 425.682 200.945 425.893C200.617 426.104 200.272 426.277 199.903 426.411C199.534 426.542 199.157 426.64 198.764 426.702C198.371 426.765 197.984 426.797 197.601 426.797C196.872 426.797 196.199 426.672 195.577 426.425C194.956 426.179 194.417 425.819 193.962 425.343C193.507 424.866 193.153 424.277 192.9 423.572C192.647 422.867 192.519 422.058 192.519 421.141C192.519 420.407 192.635 419.719 192.864 419.083C193.093 418.446 193.423 417.895 193.849 417.422C194.277 416.949 194.798 416.577 195.414 416.307C196.033 416.036 196.726 415.899 197.496 415.899C198.142 415.899 198.74 416.003 199.285 416.215C199.829 416.426 200.299 416.735 200.695 417.14C201.09 417.541 201.403 418.038 201.629 418.627C201.855 419.217 201.965 419.892 201.965 420.648C201.965 420.96 201.929 421.168 201.861 421.275C201.793 421.382 201.665 421.439 201.477 421.439H194.542C194.563 422.07 194.652 422.62 194.813 423.087C194.973 423.557 195.194 423.947 195.476 424.26C195.759 424.572 196.089 424.804 196.479 424.959C196.869 425.11 197.3 425.188 197.782 425.188C198.234 425.188 198.627 425.137 198.957 425.03C199.287 424.926 199.57 424.813 199.811 424.691C200.049 424.569 200.251 424.459 200.415 424.355C200.579 424.251 200.722 424.197 200.847 424.197C201.013 424.197 201.141 424.26 201.233 424.384L201.816 425.134L201.808 425.14ZM216.966 418.63C216.633 418.193 216.276 417.89 215.892 417.714C215.505 417.541 215.074 417.452 214.592 417.452C213.661 417.452 212.944 417.785 212.432 418.455C211.92 419.124 211.664 420.103 211.664 421.388C211.664 422.061 211.724 422.635 211.837 423.111C211.953 423.587 212.12 423.974 212.337 424.277C212.557 424.581 212.822 424.801 213.143 424.944C213.461 425.087 213.824 425.158 214.226 425.158C214.815 425.158 215.327 425.027 215.758 424.762C216.19 424.498 216.591 424.126 216.966 423.647V418.627V418.63ZM219.007 411.279V426.649H217.779C217.493 426.649 217.317 426.515 217.249 426.241L217.073 425.021C216.621 425.557 216.112 425.982 215.538 426.306C214.967 426.631 214.303 426.791 213.554 426.791C212.95 426.791 212.405 426.672 211.914 426.437C211.423 426.199 211.004 425.854 210.659 425.399C210.311 424.944 210.043 424.381 209.855 423.709C209.668 423.037 209.573 422.26 209.573 421.385C209.573 420.6 209.677 419.871 209.885 419.199C210.094 418.526 210.394 417.943 210.79 417.449C211.185 416.955 211.664 416.569 212.227 416.286C212.789 416.003 213.423 415.866 214.134 415.866C214.774 415.866 215.318 415.971 215.764 416.179C216.214 416.387 216.612 416.682 216.963 417.065V411.276H219.004L219.007 411.279ZM257.462 413.549H252.714V426.649H250.506V413.549H245.737V411.695H257.462V413.549ZM267.176 415.902C267.953 415.902 268.658 416.027 269.286 416.28C269.913 416.533 270.449 416.899 270.889 417.375C271.33 417.851 271.666 418.422 271.904 419.092C272.139 419.761 272.258 420.514 272.258 421.347C272.258 422.18 272.139 422.933 271.904 423.605C271.666 424.28 271.333 424.852 270.889 425.325C270.449 425.795 269.913 426.158 269.286 426.411C268.658 426.664 267.953 426.791 267.176 426.791C266.391 426.791 265.686 426.664 265.058 426.411C264.43 426.158 263.891 425.795 263.448 425.325C263.005 424.852 262.666 424.28 262.425 423.605C262.184 422.933 262.062 422.177 262.062 421.347C262.062 420.514 262.184 419.761 262.425 419.092C262.666 418.422 263.005 417.848 263.448 417.375C263.891 416.899 264.43 416.533 265.058 416.28C265.686 416.027 266.391 415.902 267.176 415.902ZM267.176 425.212C268.176 425.212 268.923 424.875 269.416 424.2C269.91 423.528 270.154 422.579 270.154 421.356C270.154 420.133 269.907 419.184 269.416 418.505C268.923 417.827 268.176 417.491 267.176 417.491C266.162 417.491 265.409 417.827 264.912 418.505C264.415 419.181 264.165 420.133 264.165 421.356C264.165 422.579 264.415 423.525 264.912 424.2C265.409 424.872 266.162 425.212 267.176 425.212ZM289.312 416.069V426.649H288.092C287.815 426.649 287.634 426.515 287.55 426.241L287.405 425.179C287.176 425.423 286.938 425.643 286.688 425.845C286.438 426.048 286.17 426.217 285.884 426.36C285.599 426.503 285.298 426.613 284.98 426.693C284.659 426.774 284.316 426.815 283.947 426.815C283.364 426.815 282.853 426.717 282.412 426.524C281.972 426.327 281.6 426.054 281.303 425.705C281.005 425.354 280.779 424.935 280.627 424.441C280.472 423.947 280.398 423.403 280.398 422.808V416.069H282.439V422.808C282.439 423.563 282.612 424.152 282.96 424.569C283.308 424.988 283.837 425.2 284.551 425.2C285.072 425.2 285.56 425.075 286.009 424.828C286.462 424.581 286.884 424.245 287.28 423.813V416.066H289.312V416.069ZM300.067 418.101C300.406 417.408 300.817 416.863 301.296 416.467C301.775 416.072 302.352 415.875 303.025 415.875C303.254 415.875 303.474 415.899 303.676 415.953C303.881 416.003 304.057 416.084 304.212 416.188L304.075 417.72C304.027 417.907 303.911 418.003 303.733 418.003C303.635 418.003 303.489 417.982 303.295 417.943C303.102 417.904 302.894 417.887 302.671 417.887C302.343 417.887 302.058 417.931 301.808 418.026C301.558 418.119 301.335 418.258 301.138 418.443C300.939 418.627 300.763 418.854 300.612 419.118C300.46 419.386 300.317 419.69 300.186 420.032V426.655H298.154V416.075H299.32C299.541 416.075 299.695 416.113 299.776 416.194C299.856 416.274 299.913 416.414 299.945 416.616L300.07 418.104L300.067 418.101ZM313.905 416.069V426.649H311.873V416.069H313.905ZM314.292 412.799C314.292 412.986 314.253 413.165 314.176 413.334C314.098 413.504 313.997 413.653 313.869 413.784C313.741 413.912 313.587 414.013 313.414 414.084C313.242 414.159 313.06 414.194 312.873 414.194C312.685 414.194 312.507 414.156 312.343 414.084C312.176 414.01 312.031 413.912 311.903 413.784C311.775 413.656 311.674 413.504 311.599 413.334C311.525 413.165 311.489 412.986 311.489 412.799C311.489 412.606 311.528 412.421 311.599 412.252C311.674 412.082 311.772 411.933 311.903 411.802C312.031 411.674 312.176 411.573 312.343 411.502C312.51 411.427 312.685 411.395 312.873 411.395C313.06 411.395 313.242 411.43 313.414 411.502C313.587 411.573 313.741 411.674 313.869 411.802C313.997 411.93 314.098 412.082 314.176 412.252C314.253 412.421 314.292 412.606 314.292 412.799ZM329.085 417.893C329.028 417.982 328.969 418.047 328.909 418.083C328.847 418.122 328.766 418.142 328.668 418.142C328.555 418.142 328.436 418.104 328.299 418.026C328.165 417.949 328.002 417.866 327.808 417.777C327.618 417.687 327.392 417.604 327.136 417.527C326.88 417.449 326.574 417.411 326.219 417.411C325.928 417.411 325.663 417.446 325.425 417.518C325.184 417.592 324.982 417.69 324.815 417.821C324.649 417.949 324.521 418.104 324.431 418.279C324.342 418.455 324.297 418.648 324.297 418.848C324.297 419.109 324.378 419.33 324.533 419.502C324.69 419.675 324.896 419.826 325.145 419.951C325.398 420.076 325.687 420.186 326.008 420.288C326.333 420.389 326.66 420.496 326.999 420.609C327.335 420.719 327.665 420.844 327.987 420.987C328.311 421.13 328.597 421.308 328.85 421.516C329.102 421.728 329.308 421.986 329.462 422.284C329.62 422.581 329.695 422.947 329.695 423.379C329.695 423.873 329.608 424.325 329.43 424.747C329.254 425.167 328.992 425.53 328.65 425.836C328.308 426.143 327.88 426.381 327.374 426.556C326.868 426.729 326.288 426.815 325.633 426.815C324.904 426.815 324.232 426.693 323.613 426.449C322.994 426.205 322.477 425.899 322.06 425.521L322.539 424.742C322.593 424.646 322.664 424.569 322.747 424.515C322.831 424.465 322.941 424.438 323.081 424.438C323.212 424.438 323.348 424.486 323.488 424.584C323.628 424.682 323.795 424.786 323.988 424.899C324.184 425.015 324.419 425.119 324.696 425.212C324.976 425.304 325.321 425.354 325.737 425.354C326.086 425.354 326.386 425.31 326.642 425.223C326.898 425.137 327.115 425.018 327.285 424.869C327.454 424.721 327.579 424.548 327.662 424.355C327.746 424.158 327.787 423.956 327.787 423.742C327.787 423.462 327.71 423.23 327.555 423.049C327.398 422.864 327.195 422.709 326.942 422.576C326.69 422.445 326.398 422.329 326.071 422.233C325.743 422.135 325.41 422.031 325.071 421.921C324.732 421.811 324.396 421.68 324.071 421.537C323.744 421.391 323.458 421.207 323.206 420.984C322.953 420.761 322.747 420.49 322.59 420.172C322.435 419.853 322.355 419.463 322.355 419.005C322.355 418.595 322.441 418.205 322.611 417.83C322.78 417.455 323.027 417.125 323.348 416.839C323.673 416.554 324.071 416.325 324.544 416.155C325.02 415.985 325.562 415.902 326.172 415.902C326.871 415.902 327.508 416.015 328.073 416.235C328.638 416.458 329.12 416.762 329.525 417.152L329.076 417.89L329.085 417.893ZM337.891 426.652V416.072H339.111C339.397 416.072 339.572 416.209 339.641 416.479L339.786 417.491C340.173 417.027 340.608 416.643 341.084 416.348C341.56 416.054 342.113 415.908 342.753 415.908C343.455 415.908 344.023 416.098 344.461 416.485C344.898 416.869 345.216 417.393 345.419 418.053C345.57 417.678 345.77 417.357 346.011 417.083C346.255 416.813 346.525 416.589 346.823 416.417C347.12 416.244 347.442 416.113 347.778 416.03C348.114 415.947 348.456 415.905 348.801 415.905C349.364 415.905 349.867 415.991 350.307 416.17C350.747 416.345 351.119 416.607 351.426 416.946C351.732 417.286 351.964 417.708 352.122 418.208C352.282 418.708 352.363 419.276 352.363 419.916V426.655H350.322V419.916C350.322 419.124 350.152 418.526 349.807 418.125C349.465 417.723 348.959 417.521 348.302 417.521C348.01 417.521 347.733 417.568 347.468 417.669C347.204 417.771 346.975 417.922 346.778 418.125C346.579 418.327 346.424 418.577 346.308 418.874C346.192 419.172 346.136 419.52 346.136 419.916V426.655H344.095V419.916C344.095 419.097 343.931 418.494 343.604 418.104C343.276 417.714 342.797 417.521 342.167 417.521C341.729 417.521 341.322 417.637 340.947 417.863C340.572 418.092 340.227 418.404 339.917 418.8V426.652H337.885H337.891ZM230.599 412.365C230.789 412.365 230.95 412.347 231.078 412.311C231.206 412.275 231.31 412.228 231.387 412.159C231.465 412.094 231.521 412.011 231.554 411.909C231.587 411.811 231.601 411.701 231.601 411.573C231.601 411.448 231.589 411.341 231.56 411.252C231.53 411.163 231.479 411.085 231.408 411.026C231.337 410.966 231.244 410.919 231.125 410.889C231.009 410.859 230.861 410.847 230.685 410.847H230.033V412.362H230.596L230.599 412.365ZM230.688 410.163C231.295 410.163 231.747 410.273 232.039 410.496C232.333 410.719 232.479 411.044 232.479 411.469C232.479 411.784 232.39 412.058 232.211 412.29C232.033 412.522 231.762 412.683 231.399 412.775C231.462 412.814 231.518 412.861 231.566 412.915C231.613 412.972 231.655 413.037 231.697 413.114L232.821 414.816H231.973C231.848 414.816 231.759 414.769 231.703 414.67L230.73 413.156C230.697 413.108 230.661 413.07 230.617 413.046C230.575 413.022 230.507 413.01 230.414 413.01H230.033V414.816H229.144V410.16H230.685L230.688 410.163ZM230.739 415.801C231.042 415.801 231.334 415.762 231.613 415.682C231.893 415.605 232.155 415.495 232.396 415.352C232.64 415.209 232.86 415.039 233.056 414.837C233.256 414.638 233.425 414.415 233.565 414.171C233.705 413.927 233.812 413.665 233.889 413.382C233.967 413.099 234.002 412.805 234.002 412.495C234.002 412.186 233.964 411.892 233.889 411.606C233.812 411.32 233.705 411.055 233.565 410.809C233.425 410.562 233.256 410.338 233.056 410.136C232.857 409.934 232.637 409.761 232.396 409.618C232.152 409.476 231.893 409.363 231.613 409.285C231.334 409.208 231.042 409.169 230.739 409.169C230.438 409.169 230.147 409.208 229.87 409.285C229.59 409.363 229.334 409.473 229.093 409.618C228.852 409.761 228.635 409.937 228.439 410.136C228.239 410.338 228.073 410.562 227.933 410.809C227.793 411.055 227.686 411.32 227.609 411.606C227.531 411.892 227.493 412.189 227.493 412.495C227.493 412.802 227.531 413.093 227.609 413.376C227.686 413.659 227.793 413.924 227.933 414.168C228.073 414.412 228.239 414.635 228.439 414.834C228.635 415.033 228.855 415.206 229.093 415.349C229.334 415.492 229.59 415.602 229.87 415.679C230.147 415.756 230.438 415.798 230.739 415.798V415.801ZM230.739 408.684C231.265 408.684 231.762 408.782 232.226 408.982C232.69 409.181 233.095 409.455 233.44 409.8C233.785 410.145 234.059 410.55 234.258 411.014C234.458 411.478 234.556 411.975 234.556 412.501C234.556 413.028 234.458 413.525 234.258 413.986C234.059 414.447 233.785 414.849 233.44 415.194C233.095 415.539 232.69 415.813 232.226 416.012C231.762 416.212 231.265 416.313 230.739 416.313C230.388 416.313 230.051 416.268 229.727 416.176C229.403 416.087 229.099 415.959 228.817 415.792C228.534 415.625 228.278 415.426 228.046 415.194C227.814 414.965 227.615 414.706 227.448 414.423C227.281 414.141 227.153 413.837 227.064 413.513C226.975 413.189 226.927 412.85 226.927 412.501C226.927 412.15 226.972 411.811 227.064 411.487C227.153 411.16 227.281 410.856 227.448 410.576C227.615 410.294 227.814 410.038 228.046 409.806C228.278 409.574 228.537 409.374 228.817 409.208C229.099 409.041 229.403 408.913 229.727 408.824C230.051 408.735 230.388 408.687 230.739 408.687V408.684Z" fill="#FEFEFE"/>
</g>
</g>
<defs>
<linearGradient id="paint0_linear_33_32" x1="133.758" y1="93.233" x2="260.973" y2="249.099" gradientUnits="userSpaceOnUse">
<stop stop-color="#B15071"/>
<stop offset="0.529412" stop-color="#5B6091"/>
<stop offset="1" stop-color="#0470B2"/>
</linearGradient>
<linearGradient id="paint1_linear_33_32" x1="168.437" y1="357.778" x2="232.381" y2="478.254" gradientUnits="userSpaceOnUse">
<stop stop-color="#B15071"/>
<stop offset="1" stop-color="#0470B2"/>
</linearGradient>
<clipPath id="clip0_33_32">
<rect width="400" height="500" fill="white"/>
</clipPath>
<clipPath id="clip1_33_32">
<rect width="402.872" height="403" fill="white" transform="translate(-3.00095 32)"/>
</clipPath>
</defs>
</svg>
