<svg width="400" height="500" viewBox="0 0 400 500" fill="none" xmlns="http://www.w3.org/2000/svg">
<g clip-path="url(#clip0_168_14)">
<path d="M400 0H0V500H400V0Z" fill="white"/>
<path d="M90.2542 387.491H104.551V337.374H124.315V325.73H70.4924V337.374H90.2542V387.491ZM172.667 363.933C172.667 348.67 161.901 339.318 147.958 339.318C133.489 339.318 122.638 349.552 122.638 363.76C122.638 377.875 133.313 388.2 149.723 388.2C158.285 388.2 164.901 385.553 169.312 380.524L161.989 372.583C158.722 375.671 155.104 377.17 150.078 377.17C142.842 377.17 137.813 373.552 136.489 367.642H172.401C172.489 366.492 172.667 364.995 172.667 363.933ZM148.046 349.73C154.223 349.73 158.725 353.612 159.694 359.612H136.314C137.286 353.524 141.785 349.73 148.046 349.73ZM204.782 388.2C214.752 388.2 222.605 383.788 226.048 376.201L215.369 370.378C212.811 374.963 209.017 376.906 204.691 376.906C197.721 376.906 192.248 372.05 192.248 363.76C192.248 355.464 197.721 350.611 204.691 350.611C209.015 350.611 212.808 352.64 215.369 357.139L226.048 351.405C222.605 343.639 214.752 339.318 204.782 339.318C189.343 339.318 178.314 349.464 178.314 363.76C178.314 378.054 189.343 388.2 204.782 388.2ZM262.486 339.318C256.4 339.318 251.105 341.259 247.399 344.965V322.024H233.635V387.491H247.399V364.024C247.399 355.286 252.164 351.229 258.783 351.229C264.869 351.229 268.399 354.759 268.399 362.434V387.491H282.163V360.315C282.163 345.846 273.694 339.318 262.486 339.318Z" fill="url(#paint0_linear_168_14)"/>
<path d="M97.7557 467.295C115.401 467.295 123.96 458.469 123.96 448.161C123.96 425.484 88.0491 433.351 88.0491 421.954C88.0491 418.059 91.3128 414.88 99.7841 414.88C105.255 414.88 111.165 416.47 116.9 419.734L121.311 408.88C115.577 405.264 107.635 403.411 99.872 403.411C82.3118 403.411 73.8407 412.146 73.8407 422.659C73.8407 445.6 109.752 437.661 109.752 449.218C109.752 452.998 106.312 455.82 97.8407 455.82C90.429 455.82 82.666 453.174 77.4586 449.394L72.6052 460.147C78.0761 464.38 87.9584 467.295 97.7528 467.295H97.7557ZM159.695 454.234C158.194 455.384 156.165 455.999 154.137 455.999C150.431 455.999 148.227 453.794 148.227 449.735V430.412H160.047V419.824H148.227V408.265H134.463V419.824H127.136V430.412H134.463V449.91C134.463 461.206 140.99 466.941 152.196 466.941C156.429 466.941 160.577 465.969 163.401 463.94L159.695 454.234ZM190.314 418.059C182.727 418.059 175.049 420.088 169.841 423.794L174.785 433.41C178.227 430.675 183.432 429.001 188.461 429.001C195.873 429.001 199.403 432.441 199.403 438.353H188.461C173.989 438.353 168.079 444.176 168.079 452.557C168.079 460.762 174.695 466.941 185.812 466.941C192.782 466.941 197.723 464.648 200.284 460.325V466.235H213.167V439.149C213.167 424.765 204.786 418.062 190.314 418.062V418.059ZM189.254 457.676C184.398 457.676 181.489 455.384 181.489 451.939C181.489 448.763 183.517 446.383 189.96 446.383H199.4V451.236C197.811 455.56 193.841 457.676 189.254 457.676ZM249.078 466.941C259.048 466.941 266.899 462.532 270.344 454.942L259.666 449.12C257.107 453.704 253.314 455.647 248.987 455.647C242.015 455.647 236.544 450.791 236.544 442.501C236.544 434.206 242.015 429.352 248.987 429.352C253.311 429.352 257.105 431.381 259.666 435.88L270.344 430.146C266.899 422.38 259.048 418.059 249.078 418.059C233.637 418.059 222.607 428.205 222.607 442.501C222.607 456.795 233.637 466.941 249.078 466.941ZM313.313 466.235H329.992L308.462 438.883L328.227 418.765H311.814L291.693 437.824V400.765H277.929V466.233H291.693V454.146L298.311 447.618L313.31 466.235H313.313Z" fill="url(#paint1_linear_168_14)"/>
<path d="M319.958 330.716C319.958 327.747 319.167 324.744 317.716 322.708L313.955 324.643C315.025 325.988 315.68 328.024 315.68 329.992C315.68 332.894 314.333 334.27 312.022 334.27V329.992C312.022 324.332 309.743 322.018 306.466 322.018C303.255 322.018 300.838 324.609 300.838 328.959C300.838 331.685 301.735 333.615 303.426 334.619H301.115V339.658H311.71C317.336 339.658 319.958 336.378 319.958 330.719V330.716ZM304.464 330.303C304.464 328.405 305.358 327.263 306.705 327.263C307.949 327.263 308.88 328.062 308.88 330.577V334.27H306.982C305.289 333.65 304.464 332.098 304.464 330.303ZM319.958 355.808C319.958 353.289 319.098 351.114 317.509 349.663H319.684V344.522H301.115V349.905H310.297C313.712 349.905 315.302 351.769 315.302 354.357C315.302 356.737 313.912 358.118 310.92 358.118H301.117V363.504H311.748C317.408 363.504 319.961 360.19 319.961 355.808H319.958ZM330 382.108H317.716C319.237 380.761 319.958 378.828 319.958 376.549C319.958 371.305 316.231 367.266 310.398 367.266C304.565 367.266 300.838 371.305 300.838 376.549C300.838 379.036 301.631 381 303.255 382.348H301.115V387.494H330V382.108ZM305.254 377.484C305.254 374.792 307.19 372.718 310.398 372.718C313.609 372.718 315.541 374.789 315.541 377.484C315.541 380.141 313.609 382.212 310.398 382.212C307.19 382.212 305.254 380.141 305.254 377.484Z" fill="#2D8123"/>
<path fill-rule="evenodd" clip-rule="evenodd" d="M110.369 41.196H290.124C312.053 41.196 329.988 59.1343 329.988 81.0606V260.818C329.988 282.745 312.053 300.683 290.124 300.683H110.369C88.4398 300.683 70.5042 282.745 70.5042 260.818V81.0606C70.5042 59.1343 88.4398 41.196 110.369 41.196Z" fill="#EDF2D1"/>
<path fill-rule="evenodd" clip-rule="evenodd" d="M101.659 205.741V216.739L100.488 216.736L200.248 274.741L300.002 216.739V205.065L289.963 210.901L200.248 263.065L110.53 210.901L101.659 205.741Z" fill="#233F21"/>
<path fill-rule="evenodd" clip-rule="evenodd" d="M100.488 124.245L200.248 66.2424L300.002 124.245L200.248 182.25L100.488 124.245Z" fill="#A8CF44"/>
<path fill-rule="evenodd" clip-rule="evenodd" d="M101.659 126.593V137.586H100.488L200.248 195.588L300.002 137.586V125.912L289.963 131.748L200.248 183.914L110.53 131.748L101.659 126.593Z" fill="#A8CF44"/>
<path fill-rule="evenodd" clip-rule="evenodd" d="M200.248 238.639L120.066 192.015L100.488 203.398L200.248 261.401L300.002 203.398L280.427 192.015L200.248 238.639Z" fill="#233F21"/>
<path fill-rule="evenodd" clip-rule="evenodd" d="M101.659 166.167V177.162L100.488 177.159L200.248 235.164L300.002 177.162V165.488L289.963 171.323L200.248 223.49L110.53 171.323L101.659 166.167Z" fill="#2D8123"/>
<path fill-rule="evenodd" clip-rule="evenodd" d="M200.248 199.062L120.066 152.441L100.488 163.822L200.248 221.827L300.002 163.822L280.427 152.441L200.248 199.062Z" fill="#2D8123"/>
</g>
<defs>
<linearGradient id="paint0_linear_168_14" x1="105.016" y1="298.692" x2="230.172" y2="401.785" gradientUnits="userSpaceOnUse">
<stop stop-color="#2D8123"/>
<stop offset="0.569" stop-color="#6AA833"/>
<stop offset="1" stop-color="#A8CF44"/>
</linearGradient>
<linearGradient id="paint1_linear_168_14" x1="123.55" y1="378.072" x2="257.589" y2="494.522" gradientUnits="userSpaceOnUse">
<stop stop-color="#2D8123"/>
<stop offset="0.569" stop-color="#6AA833"/>
<stop offset="1" stop-color="#A8CF44"/>
</linearGradient>
<clipPath id="clip0_168_14">
<rect width="400" height="500" fill="white"/>
</clipPath>
</defs>
</svg>
