<svg width="400" height="500" viewBox="0 0 400 500" fill="none" xmlns="http://www.w3.org/2000/svg">
<g clip-path="url(#clip0_168_14)">
<path d="M400 0H0V500H400V0Z" fill="white"/>
<path fill-rule="evenodd" clip-rule="evenodd" d="M156.499 70.0598H172.687C180.816 70.0598 187.406 76.4974 187.406 84.4363V107.382H141.78V84.4363C141.78 76.4974 148.37 70.0598 156.496 70.0598H156.499ZM213.237 107.382H196.681V75.3815C196.681 67.4402 190.088 61 181.962 61H147.229C139.1 61 132.51 67.4402 132.51 75.3815V107.382H122.734C101.838 107.382 84.8989 123.928 84.8989 144.344V186.681C111.177 171.581 126.963 170.007 154.595 163.77C168.408 160.652 188.164 154.81 207.707 148.653C219.494 144.94 235.332 140.424 248.367 136.06C247.807 132.835 247.354 131.954 247.129 131.136C245.31 124.498 234.459 107.385 213.242 107.385L213.237 107.382Z" fill="url(#paint0_linear_168_14)"/>
<path fill-rule="evenodd" clip-rule="evenodd" d="M320.09 100.119C317.033 103.321 312.201 108.896 310.578 110.097C305.876 113.564 295.723 114.81 289.831 112.436C285.49 110.685 281.902 107.61 278.532 102.931C278.72 103.053 278.91 103.174 279.1 103.279C282.811 105.288 288.838 102.093 296.219 95.7476C297.702 94.4666 304.498 89.1348 306.017 87.6736L284.78 84.5962L288.91 74.0577L317.819 72.6491V72.6516L321.899 67.575C325.572 63.1715 337.142 59.501 341.545 63.174C345.929 66.8319 341.51 76.4196 337.895 80.8256C334.777 84.6262 335.335 84.1833 332.498 87.7062L332.495 88.1715L333.621 114.112L324.549 118.673L320.09 100.121V100.119Z" fill="url(#paint1_linear_168_14)"/>
<path fill-rule="evenodd" clip-rule="evenodd" d="M271.199 85.9048L267.178 86.1024L267.181 86.1525C267.304 89.1999 264.924 91.767 261.887 91.8896C258.849 92.0097 256.302 89.6653 256.155 86.6454L254.168 86.743L250.085 86.9331L250.302 89.4201C250.485 91.2366 250.73 93.1156 251.043 95.0221C251.081 95.2423 252.421 101.65 252.424 101.652C255.739 114.683 265.897 122.964 275.302 123.968C285.083 125.009 295.951 120.738 306.062 113.539C283.867 120.177 273.096 104.717 271.199 85.9048ZM274.244 111.025L273.068 109.514C273.341 108.923 274.221 108.24 274.764 107.755C275.447 108.698 275.84 109.689 275.94 110.592C275.395 110.747 274.889 110.81 274.244 111.025ZM274.744 111.816C275.19 111.585 275.535 111.53 275.93 111.57C275.835 112.073 275.758 112.841 275.365 113.384L274.747 111.816H274.744ZM275.227 115.176C277.201 112.991 277.604 109.238 274.937 106.666C272.79 104.6 268.85 104.189 266.32 106.914C264.273 109.123 263.846 112.906 266.565 115.496C268.727 117.55 272.69 117.978 275.227 115.176ZM269.683 107.935C268.997 108.808 268.617 109.186 267.664 109.891C267.176 109.243 266.608 107.645 267.298 107.277C267.779 107.022 269.205 107.485 269.683 107.935ZM270.493 108.383L271.777 109.459L269.147 112.013L268.067 110.675C268.58 110.297 269 109.987 269.425 109.576C269.83 109.183 270.133 108.681 270.496 108.38L270.493 108.383ZM269.841 112.559L272.375 110.087L273.456 111.43C271.392 112.994 272.26 112.529 271.066 113.66C270.699 113.484 269.963 113.006 269.841 112.559ZM268.057 114.305C268.414 113.962 268.765 113.604 269.135 113.267L270.569 114.47C270.501 114.743 270.358 115.056 270.268 115.331C270.161 115.654 270.143 115.866 270.006 116.194C269.423 116.214 268.332 115.799 267.684 115.298C267.301 115.001 267.188 115.141 268.059 114.3L268.057 114.305ZM272.375 108.813L270.871 107.537C271.259 106.944 271.239 106.541 271.427 105.976C272.1 105.896 273.458 106.454 274.111 107.159L272.375 108.813ZM271.859 114.165C272.2 113.489 273.213 112.656 273.904 112.203C274.309 112.876 274.892 114.37 274.286 114.785C273.806 115.116 272.325 114.598 271.859 114.165ZM266.145 108.64L266.77 110.359L265.604 110.632C265.492 110.119 265.84 109.236 266.143 108.64H266.145ZM270.464 105.843C270.531 106.326 270.386 106.704 270.103 107.122C269.523 106.739 269.032 106.634 268.499 106.414C269.13 105.991 269.853 105.981 270.464 105.846V105.843ZM270.966 116.197C270.999 115.791 271.112 115.366 271.417 114.941C272.045 115.396 272.44 115.363 273.043 115.704C272.603 115.974 271.744 116.244 271.274 116.242C270.994 116.242 271.189 116.269 270.966 116.194V116.197ZM267.271 111.07L268.464 112.589C268.227 113.049 267.203 114.04 266.688 114.348C266.075 113.514 265.439 112.328 265.61 111.52C266.11 111.405 266.725 111.328 267.271 111.07ZM280.511 115.403C280.712 115.186 281.052 115.173 281.27 115.373C281.487 115.574 281.5 115.914 281.3 116.131L276.496 121.336C276.296 121.553 275.955 121.568 275.738 121.368C275.52 121.168 275.508 120.828 275.708 120.61L280.511 115.403ZM277.722 115.196C277.92 114.978 278.26 114.961 278.48 115.161C278.698 115.361 278.715 115.699 278.515 115.919L276.025 118.659C275.828 118.876 275.487 118.894 275.267 118.694C275.05 118.493 275.032 118.153 275.232 117.935L277.722 115.196ZM253.73 99.7159L255.529 99.3706C255.989 99.283 256.44 99.5857 256.527 100.046C256.617 100.504 256.312 100.957 255.854 101.044L254.055 101.39C253.595 101.477 253.145 101.175 253.057 100.714C252.967 100.256 253.27 99.8034 253.73 99.7159ZM270.068 96.3957L271.87 96.0504C272.327 95.9603 272.778 96.2656 272.868 96.7234C272.955 97.1838 272.653 97.6342 272.192 97.7243L270.393 98.0695C269.933 98.1571 269.485 97.8544 269.395 97.394C269.308 96.9336 269.61 96.4833 270.068 96.3957ZM265.985 97.2238L267.784 96.8786C268.244 96.791 268.694 97.0937 268.782 97.5541C268.872 98.012 268.567 98.4623 268.109 98.5524L266.308 98.8977C265.85 98.9853 265.399 98.6825 265.312 98.2221C265.224 97.7618 265.525 97.3139 265.985 97.2238ZM261.902 98.0545L263.701 97.7067C264.161 97.6192 264.611 97.9219 264.699 98.3823C264.787 98.8426 264.484 99.293 264.023 99.3806L262.227 99.7259C262.005 99.7685 261.775 99.7213 261.587 99.5947C261.4 99.4681 261.27 99.2724 261.226 99.0503C261.138 98.5924 261.441 98.1421 261.902 98.0545ZM257.818 98.8827L259.615 98.5374C260.075 98.4473 260.526 98.7526 260.616 99.2104C260.703 99.6708 260.4 100.121 259.94 100.209L258.141 100.557C257.681 100.644 257.23 100.341 257.143 99.881C257.055 99.4206 257.358 98.9702 257.818 98.8827Z" fill="url(#paint2_linear_168_14)"/>
<path fill-rule="evenodd" clip-rule="evenodd" d="M249.119 151.304V271.893C249.119 291.486 233.874 307.514 214.601 308.773C213.848 308.825 213.082 308.85 212.314 308.853H215.067C212.975 332.402 184.032 334.658 176.228 316.116L172.978 308.853H156.344C154.05 315.055 153.204 322.749 147.682 326.437C137.752 333.065 120.956 326.219 120.841 308.853H123.606C120.626 308.843 117.731 308.48 114.956 307.794C105.046 305.38 96.7016 298.967 91.7352 290.365C88.5851 284.931 86.7861 278.619 86.7861 271.893V213.944C105.856 198.892 135.162 187.821 160.132 178.598C189.138 167.887 220.721 154.924 248.678 142.067C248.959 145.797 249.121 147.599 249.121 151.307L249.119 151.304ZM211.086 308.85H191.348C193.79 330.16 209.457 325.731 211.086 308.85ZM150.245 308.85H134.464C134.162 329.765 150.7 328.011 150.245 308.85Z" fill="url(#paint3_linear_168_14)"/>
<path fill-rule="evenodd" clip-rule="evenodd" d="M249.118 201.182V271.894C249.118 291.487 233.873 307.515 214.6 308.773C213.797 308.828 212.979 308.853 212.161 308.853H123.745C120.715 308.853 117.773 308.493 114.953 307.795C105.043 305.381 96.6984 298.968 91.7319 290.366C114.918 257.695 162.426 211.308 249.118 201.182Z" fill="url(#paint4_linear_168_14)"/>
<path fill-rule="evenodd" clip-rule="evenodd" d="M249.119 255.571V271.892C249.119 291.485 233.874 307.513 214.601 308.771C213.798 308.826 212.98 308.851 212.161 308.851H138.327C156.174 280.046 189.894 247.36 249.121 255.571H249.119Z" fill="url(#paint5_linear_168_14)"/>
<path fill-rule="evenodd" clip-rule="evenodd" d="M126.083 148.453H126.085C127.662 148.453 128.95 149.744 128.95 151.317V260.89C128.95 262.464 127.662 263.752 126.085 263.752H126.083C124.509 263.752 123.221 262.464 123.221 260.89V151.317C123.221 149.744 124.509 148.453 126.083 148.453ZM147.015 148.453H147.017C148.593 148.453 149.882 149.744 149.882 151.317V260.89C149.882 262.464 148.593 263.752 147.017 263.752H147.015C145.441 263.752 144.152 262.464 144.152 260.89V151.317C144.152 149.744 145.441 148.453 147.015 148.453ZM167.949 148.453H167.951C169.525 148.453 170.814 149.744 170.814 151.317V260.89C170.814 262.464 169.525 263.752 167.951 263.752H167.949C166.375 263.752 165.084 262.464 165.084 260.89V151.317C165.084 149.744 166.375 148.453 167.949 148.453ZM188.883 148.453H188.886C190.459 148.453 191.75 149.744 191.75 151.317V260.89C191.75 262.464 190.459 263.752 188.886 263.752H188.883C187.309 263.752 186.021 262.464 186.021 260.89V151.317C186.021 149.744 187.309 148.453 188.883 148.453ZM209.817 148.453H209.82C211.394 148.453 212.682 149.744 212.682 151.317V260.89C212.682 262.464 211.394 263.752 209.82 263.752H209.817C208.241 263.752 206.953 262.464 206.953 260.89V151.317C206.953 149.744 208.241 148.453 209.817 148.453Z" fill="#FEFEFE"/>
<path fill-rule="evenodd" clip-rule="evenodd" d="M70.1153 265.371C70.1153 265.371 10.5125 199.949 137.592 170.57C173.113 162.356 212.039 150.021 249.471 137.176C257.558 134.401 285.248 124.686 293.144 121.899L249.732 138.9L191.512 163.63C164.939 174.916 112.267 189.128 84.1415 212.827C67.9711 226.458 60.2749 244.274 70.1153 265.371Z" fill="url(#paint6_linear_168_14)"/>
<path d="M89.8655 342.777L79.4922 382.574H67.7553L61.4052 356.381L54.8274 382.574H43.0906L33 342.777H43.3757L49.1004 371.746L56.1885 342.777H66.8446L73.6475 371.746L79.4296 342.777H89.8605H89.8655ZM129.21 342.777V382.574H119.517V366.191H104.44V382.574H94.7444V342.777H104.44V358.367H119.517V342.777H129.21ZM155.003 382.972C151.262 382.972 147.832 382.104 144.712 380.365C141.594 378.629 139.12 376.199 137.288 373.082C135.455 369.962 134.536 366.456 134.536 362.566C134.536 358.673 135.455 355.177 137.288 352.077C139.12 348.977 141.594 346.558 144.712 344.821C147.832 343.083 151.262 342.214 155.003 342.214C158.746 342.214 162.176 343.083 165.293 344.821C168.411 346.558 170.868 348.977 172.664 352.077C174.458 355.177 175.357 358.673 175.357 362.566C175.357 366.456 174.451 369.962 172.634 373.082C170.82 376.199 168.366 378.629 165.266 380.365C162.166 382.104 158.746 382.972 155.003 382.972ZM155.003 374.127C158.178 374.127 160.72 373.069 162.629 370.952C164.535 368.838 165.491 366.038 165.491 362.563C165.491 359.048 164.535 356.241 162.629 354.144C160.72 352.045 158.178 350.996 155.003 350.996C151.79 350.996 149.231 352.037 147.324 354.114C145.415 356.193 144.459 359.008 144.459 362.563C144.459 366.076 145.415 368.883 147.324 370.982C149.231 373.079 151.793 374.127 155.003 374.127ZM190.436 375.093H203.134V382.577H180.741V342.78H190.434V375.093H190.436ZM217.478 350.546V358.598H230.461V366.079H217.478V374.811H232.159V382.577H207.782V342.78H232.159V350.546H217.478ZM252.853 382.972C249.941 382.972 247.334 382.502 245.03 381.553C242.725 380.608 240.884 379.212 239.505 377.36C238.124 375.509 237.396 373.279 237.321 370.67H247.639C247.789 372.143 248.3 373.267 249.171 374.042C250.039 374.818 251.175 375.206 252.573 375.206C254.01 375.206 255.14 374.876 255.974 374.213C256.804 373.552 257.222 372.634 257.222 371.463C257.222 370.48 256.892 369.666 256.229 369.026C255.568 368.383 254.755 367.852 253.792 367.437C252.828 367.024 251.46 366.551 249.683 366.021C247.114 365.228 245.015 364.432 243.389 363.639C241.762 362.848 240.366 361.675 239.195 360.124C238.022 358.575 237.439 356.553 237.439 354.061C237.439 350.356 238.78 347.456 241.462 345.357C244.147 343.26 247.639 342.212 251.95 342.212C256.334 342.212 259.867 343.26 262.551 345.357C265.236 347.456 266.67 350.376 266.86 354.116H256.369C256.294 352.83 255.823 351.822 254.953 351.084C254.085 350.346 252.969 349.976 251.608 349.976C250.434 349.976 249.491 350.288 248.773 350.914C248.055 351.534 247.695 352.435 247.695 353.606C247.695 354.892 248.298 355.893 249.508 356.613C250.719 357.332 252.608 358.107 255.175 358.935C257.745 359.803 259.837 360.637 261.443 361.43C263.049 362.223 264.438 363.376 265.609 364.888C266.782 366.399 267.365 368.345 267.365 370.727C267.365 372.994 266.79 375.053 265.636 376.905C264.483 378.756 262.809 380.23 260.62 381.326C258.428 382.422 255.836 382.97 252.853 382.97V382.972ZM298.092 375.546H283.24L280.861 382.577H270.713L285.11 342.78H296.333L310.735 382.577H300.472L298.092 375.546ZM295.6 368.065L290.666 353.493L285.79 368.065H295.598H295.6ZM324.794 375.093H337.494V382.577H315.098V342.78H324.791V375.093H324.794ZM351.835 350.546V358.598H364.818V366.079H351.835V374.811H366.517V382.577H342.14V342.78H366.517V350.546H351.835Z" fill="#065191"/>
<path d="M172.375 385.427C172.375 385.064 171.869 384.921 171.654 385.209C163.768 392.878 138.448 387.596 129.19 385.715C129.19 385.715 109.947 380.651 106.257 399.966C103.943 411.758 111.902 416.169 116.313 416.387C120.581 416.602 121.594 414.288 121.594 412.626C121.594 411.831 121.304 411.178 121.089 410.672C120.944 410.454 120.511 410.454 120.438 410.745C119.788 412.554 118.557 412.986 118.557 412.986C117.691 413.347 116.245 413.492 115.157 413.204C105.972 410.452 108.431 400.184 108.431 400.184C111.974 384.411 129.916 389.983 129.916 389.983C131.362 390.488 132.808 390.849 134.182 391.284C131.36 397.582 128.467 408.863 127.382 414.363C127.382 414.363 125.212 423.402 126.658 428.974C127.381 431.576 128.828 433.46 131.362 433.893C131.723 433.966 132.01 433.533 131.795 433.17C130.782 431.651 130.349 427.601 133.749 415.376C136.133 406.839 139.534 396.566 139.534 396.566C140.112 394.324 138.956 392.95 137.582 392.227C150.53 395.628 157.618 396.06 157.618 396.06C172.448 397.291 172.738 388.464 172.375 385.427ZM171.216 387.596C171.216 387.596 171.507 391.284 168.615 391.865C168.615 391.865 170.566 389.838 171.216 387.596ZM148.864 433.748C154.578 433.533 157.761 429.047 159.497 424.418C164.706 422.246 168.394 417.905 169.698 415.954C170.276 415.086 170.348 414 169.985 413.204C169.843 412.914 169.41 412.914 169.192 413.132C166.37 416.892 163.333 419.569 160.511 421.233C161.379 417.545 161.524 414.435 161.524 414.435C161.524 414.435 162.392 402.713 154.436 402.713C154.436 402.713 148.216 402.498 145.031 410.742C143.007 412.694 140.765 415.951 139.824 421.085C139.824 421.085 137.51 434.106 148.866 433.746L148.864 433.748ZM159.497 407.632C159.497 407.632 157.978 405.681 156.965 404.812C156.965 404.812 159.279 405.173 159.497 407.632ZM149.657 416.026C150.815 407.922 154.433 406.186 154.433 406.186C158.772 405.971 158.339 415.301 158.339 415.301C158.121 418.268 157.688 420.725 157.035 422.679C155.371 423.185 153.925 423.257 152.697 422.897C149.009 421.881 149.657 416.024 149.657 416.024V416.026ZM146.114 423.26C147.343 424.491 149.151 425.356 151.898 425.647C153.275 425.789 154.648 425.717 155.952 425.501C153.2 431.431 149.006 431.797 149.006 431.797C145.749 432.012 145.749 426.732 146.111 423.26H146.114ZM171.141 433.243C171.141 433.243 174.687 433.605 178.955 425.864C178.81 434.111 184.597 433.748 184.597 433.748C192.191 433.533 197.905 418.483 198.774 416.242C198.846 416.026 198.921 415.736 198.921 415.446C198.921 414.653 198.559 413.927 198.271 413.349C198.053 412.916 197.475 412.989 197.327 413.422C192.481 426.152 185.901 432.012 184.742 431.219C183.366 430.275 186.984 417.185 190.53 408.14C190.672 407.852 190.745 407.492 190.745 407.199C190.962 404.162 188.863 402.498 186.621 402.135C185.828 401.99 185.103 402.353 184.815 403.076C183.584 406.189 182.643 409.081 181.848 411.613C174.829 432.304 171.359 430.711 171.359 430.711C169.983 429.77 173.383 417.548 176.783 408.578C177.144 407.635 177.144 406.624 176.711 405.756C175.843 403.874 174.106 403.296 172.225 403.224C171.647 403.224 171.066 403.586 170.849 404.092C165.785 416.967 165.57 423.622 165.57 423.622C164.626 433.678 171.137 433.243 171.137 433.243H171.141ZM188.938 408.213C188.938 408.213 188.721 405.826 188.218 404.525C188.218 404.525 190.82 405.826 188.938 408.213ZM175.265 408.863C175.265 408.863 175.337 406.694 175.122 405.608C175.122 405.608 176.568 406.621 175.265 408.863ZM198.846 433.893C199.209 433.893 199.569 433.605 199.569 433.17C199.642 432.012 199.857 430.711 200.002 429.337C204.996 413.494 212.877 406.334 214.036 406.479C214.036 406.479 205.429 417.835 210.636 421.018C217.148 424.055 222.936 416.679 222.936 416.679C223.514 415.736 223.801 414.438 223.656 413.349C223.656 413.062 223.223 412.989 223.078 413.207C220.836 416.462 217.003 419.064 213.168 419.427C212.662 419.427 212.445 418.846 212.805 418.558C218.449 413.639 220.909 405.465 217.581 403.441C213.243 400.837 207.526 408.793 207.526 408.793C206.004 410.747 204.631 412.844 203.475 414.725C204.125 412.916 204.778 411.107 205.572 409.083C205.717 408.793 205.789 408.505 205.789 408.215C206.152 405.033 204.053 402.863 201.738 402.285C201.16 402.14 200.58 402.503 200.292 403.008C197.833 409.156 196.384 414.438 195.516 418.273C194.575 422.034 193.925 427.676 193.925 430.353C194.288 432.595 196.747 433.898 198.844 433.898L198.846 433.893ZM217.509 409.081C217.509 409.081 217.799 407.129 217.221 405.535C217.221 405.535 219.175 406.766 217.509 409.081ZM203.908 409.008C203.908 409.008 203.908 406.839 203.69 405.753C203.69 405.753 205.139 406.839 203.908 409.008ZM224.96 433.748C232.556 433.533 238.345 418.483 239.139 416.314C239.211 416.026 239.284 415.736 239.284 415.521C239.284 414.725 238.993 413.927 238.633 413.349C238.418 412.989 237.837 413.062 237.692 413.422C232.843 426.152 226.263 432.084 225.177 431.291C223.801 430.275 226.768 418.846 230.241 409.879C230.386 409.589 230.457 409.226 230.457 408.936C230.747 405.896 228.578 404.232 226.263 403.799C225.54 403.729 224.887 404.089 224.599 404.815C219.608 417.545 219.39 424.2 219.39 424.2C218.449 434.183 224.96 433.748 224.96 433.748ZM229.446 408.575C229.446 410.094 228.725 410.382 228.725 410.382C228.725 410.382 229.085 407.852 228.507 406.694C228.507 406.694 229.521 407.129 229.448 408.575H229.446ZM228.58 403.006C230.604 404.525 232.05 402.355 232.631 401.197C232.846 400.764 232.991 400.256 232.918 399.748C232.558 397.361 230.677 396.566 229.518 396.348C229.085 396.276 228.578 396.493 228.432 396.999C226.624 401.412 228.578 403.003 228.578 403.003L228.58 403.006ZM231.908 398.81C231.908 398.81 232.921 400.114 231.617 401.56C231.617 401.56 232.05 399.175 231.908 398.81ZM232.993 433.243C232.921 437.076 237.697 440.621 242.759 437.076C247.17 434.108 246.232 425.069 245.216 419.497C248.401 417.4 251.801 416.169 253.102 415.664C253.895 415.376 254.476 414.723 254.693 413.927C254.693 413.782 254.694 413.567 254.764 413.349C254.764 413.062 254.476 412.771 254.115 412.916C250.355 414.075 247.243 415.446 244.641 416.967C244.568 416.532 244.495 416.244 244.495 415.954C244.133 414.578 243.917 413.349 243.772 412.336C247.533 410.022 249.702 406.694 248.836 404.307C247.75 401.342 243.554 402.716 243.554 402.716C243.554 402.716 237.48 404.307 236.754 409.734C236.754 409.734 236.106 415.158 238.781 421.381C232.778 427.31 232.993 433.245 232.993 433.245V433.243ZM247.75 406.621C247.75 406.621 247.46 404.815 246.737 403.947C246.737 403.947 248.616 404.307 247.75 406.621ZM244.568 405.248C244.568 405.248 245.799 405.03 245.869 406.406C245.869 407.272 245.726 407.852 243.485 409.949C243.194 405.32 244.57 405.248 244.57 405.248H244.568ZM239.646 424.273C240.297 427.458 240.735 432.52 236.972 435.197C236.972 435.197 233.571 431.579 239.646 424.273ZM255.056 433.893C255.417 433.893 255.777 433.605 255.777 433.17C255.849 432.229 255.995 431.073 256.14 429.988C258.524 422.319 260.771 418.123 264.459 411.976C266.846 407.997 268.51 406.334 269.09 406.479C269.09 406.479 269.595 406.549 267.641 411.037C265.69 415.523 262.362 425.504 264.459 428.541C265.617 430.135 267.786 430.423 269.017 430.35C269.523 430.35 270.031 429.99 270.176 429.485C270.681 427.748 272.057 423.337 275.745 415.739C278.42 410.024 280.377 407.274 280.882 407.71C281.317 408 280.954 408.868 280.376 410.169C279.653 412.051 278.713 414.147 278.713 414.147C275.745 421.526 275.385 426.445 275.385 426.445C274.88 434.836 281.245 433.751 281.245 433.751C288.911 433.535 294.701 418.343 295.421 416.244C295.494 416.029 295.566 415.811 295.566 415.596C295.566 414.653 295.206 413.785 294.843 413.209C294.628 412.919 294.265 412.991 294.12 413.282C289.274 426.154 282.548 432.089 281.462 431.294C280.014 430.278 284.067 419.357 285.441 416.174C287.97 410.027 288.768 404.237 285.295 402.793C280.449 400.769 276.471 407.785 273.143 414.803C270.464 420.3 269.165 424.641 269.165 424.641C268.732 423.627 273.143 412.921 273.143 412.921C276.976 404.097 272.708 402.866 272.708 402.866C268.007 400.697 263.308 408.868 263.308 408.868C261.714 411.255 260.41 413.717 259.327 415.814C260.05 413.717 260.846 411.545 261.787 409.086C261.932 408.796 262.002 408.508 262.002 408.218C262.365 405.035 260.268 402.866 257.954 402.288C257.373 402.143 256.795 402.506 256.505 403.011C254.048 409.158 252.599 414.44 251.731 418.276C250.788 422.036 250.137 427.678 250.137 430.355C250.5 432.597 252.962 433.901 255.059 433.901L255.056 433.893ZM286.161 407.632C286.161 407.632 285.798 404.882 285.218 404.089C285.218 404.089 287.244 405.03 286.161 407.632ZM273.501 407.922C273.501 407.922 273.141 405.173 272.56 404.377C272.56 404.377 274.584 405.32 273.501 407.922ZM260.265 408.718C260.265 408.718 260.12 406.546 259.833 405.46C259.833 405.46 261.351 406.476 260.265 408.718Z" fill="#D44C94"/>
</g>
<defs>
<linearGradient id="paint0_linear_168_14" x1="116.079" y1="142.067" x2="209.711" y2="156.299" gradientUnits="userSpaceOnUse">
<stop stop-color="#D44C94"/>
<stop offset="1" stop-color="#A52D53"/>
</linearGradient>
<linearGradient id="paint1_linear_168_14" x1="332.568" y1="73.0519" x2="295.533" y2="102.888" gradientUnits="userSpaceOnUse">
<stop stop-color="#258BC3"/>
<stop offset="1" stop-color="#065191"/>
</linearGradient>
<linearGradient id="paint2_linear_168_14" x1="260.886" y1="109.866" x2="292.704" y2="115.574" gradientUnits="userSpaceOnUse">
<stop stop-color="#D44C94"/>
<stop offset="1" stop-color="#A52D53"/>
</linearGradient>
<linearGradient id="paint3_linear_168_14" x1="231.154" y1="194.161" x2="120.238" y2="262.396" gradientUnits="userSpaceOnUse">
<stop stop-color="#258BC3"/>
<stop offset="1" stop-color="#065191"/>
</linearGradient>
<linearGradient id="paint4_linear_168_14" x1="213.712" y1="213.822" x2="142.155" y2="287.897" gradientUnits="userSpaceOnUse">
<stop stop-color="#569AD0"/>
<stop offset="1" stop-color="#446CA6"/>
</linearGradient>
<linearGradient id="paint5_linear_168_14" x1="216.02" y1="255.003" x2="181.997" y2="303.917" gradientUnits="userSpaceOnUse">
<stop stop-color="#258BC3"/>
<stop offset="1" stop-color="#065191"/>
</linearGradient>
<linearGradient id="paint6_linear_168_14" x1="102.456" y1="209.051" x2="236.028" y2="236.073" gradientUnits="userSpaceOnUse">
<stop stop-color="#D44C94"/>
<stop offset="1" stop-color="#A52D53"/>
</linearGradient>
<clipPath id="clip0_168_14">
<rect width="400" height="500" fill="white"/>
</clipPath>
</defs>
</svg>
