<svg xmlns="http://www.w3.org/2000/svg" width="122.003" height="157.161" viewBox="0 0 122.003 157.161">
  <g id="OutMazed_Tourism" data-name="OutMazed Tourism" transform="translate(-150.181 -79.081)">
    <path id="Path_4604" data-name="Path 4604" d="M449.9,708.3c.317-.268.635-.537.927-.8l.22.073a3.02,3.02,0,0,1-.293.9c-.122.146-.513.073-.757.1A1.187,1.187,0,0,1,449.9,708.3Z" transform="translate(-226.557 -475.042)" fill="#fff"/>
    <path id="Path_4605" data-name="Path 4605" d="M325.4,704.5c.708.122,1.147.171,1.586.244a.491.491,0,0,0,.1.2c-.439.171-.9.342-1.342.537a8.8,8.8,0,0,1-.344-.981Z" transform="translate(-132.441 -472.774)" fill="#fff"/>
    <path id="Path_4606" data-name="Path 4606" d="M429.71,683.881c.659-.537,1.415-1.635,2.587-.927,1.22.757.073,1.782.024,2.782A20.143,20.143,0,0,1,433.639,684a6.14,6.14,0,0,1,1.391-1.1,1.292,1.292,0,0,1,1.684.317c.439.513.268,1.025-.024,1.562a28.835,28.835,0,0,0-1.733,3.734c1.855-1.1,2.953-2.929,4.466-4.344a.863.863,0,0,1,.22.1c-.024.22.024.488-.1.659-1.367,1.952-2.758,3.88-4.173,5.809a2.2,2.2,0,0,1-.976.708,1.281,1.281,0,0,1-1.977-1.123,12.738,12.738,0,0,1,.366-2.538,4.8,4.8,0,0,0,.22-1.025c-.537.927-1.049,1.855-1.586,2.782a11.682,11.682,0,0,1-.83,1.294c-.317.439-.634.952-1.318.586a1.324,1.324,0,0,1-.732-1.562c.2-.9.439-1.782.683-2.66a1.544,1.544,0,0,0,.073-.83c-.415.708-.854,1.391-1.269,2.1-.513.83-1,1.66-1.513,2.489-.293.488-.708.8-1.294.537a1.059,1.059,0,0,1-.464-1.464l1.83-4.759c.073-.171.122-.317.268-.683-1.172,1-2.2,1.83-3.173,2.733a1.078,1.078,0,0,0-.22.83,3.409,3.409,0,0,1-3.392,3.856,1.572,1.572,0,0,1-1.489-.952,1.2,1.2,0,0,1,.366-1.538,3,3,0,0,0,1.318-3.88,2.206,2.206,0,0,1,0-.586c-.22.293-.342.464-.464.635-1.171,1.611-2.294,3.295-3.563,4.832a3.738,3.738,0,0,1-1.806,1.049.978.978,0,0,1-1.269-.927,5.913,5.913,0,0,1,.049-2.172,14.2,14.2,0,0,1,2.294-5.149,1.154,1.154,0,0,1,1.806-.268,1.117,1.117,0,0,1,.342,1.733c-.586.976-1.147,1.953-1.684,2.953a7.91,7.91,0,0,0-.317.805c.049.049.122.1.171.146.635-.61,1.318-1.22,1.928-1.879.561-.586,1.049-1.245,1.611-1.83.268-.293.415-.879,1.074-.61.073.024.293-.268.415-.439a2.921,2.921,0,0,1,2.587-1.245,1.284,1.284,0,0,1,.9.659,2.4,2.4,0,0,1-.146,1.293c-.024.146-.317.2-.488.317l-.488-.976a5.8,5.8,0,0,0-.634,1.22c-.073.293.122.659.22,1.147.732-.464,1.415-.854,2.026-1.294a14.732,14.732,0,0,0,3.026-2.2,1.3,1.3,0,0,1,1.245-.1C429.466,682.905,429.539,683.491,429.71,683.881Zm-9.274,6.419c.024.1.049.171.073.268.269-.024.635.049.757-.1a2.078,2.078,0,0,0,.293-.9l-.22-.073C421.07,689.763,420.753,690.032,420.436,690.3Z" transform="translate(-198.728 -456.255)" fill="#fff"/>
    <path id="Path_4607" data-name="Path 4607" d="M316.942,685.709c.781-.8,1.391-1.489,2.026-2.148.415-.415.415-.415.8.122.244-.342.488-.659.732-.976a.932.932,0,0,1,1.391-.366,1.057,1.057,0,0,1,.366,1.538c-.586,1.147-1.171,2.318-1.733,3.49a10.235,10.235,0,0,0-.391,1.123c.049.049.122.1.171.146a7.515,7.515,0,0,0,.586-.659c.708-1.123,1.391-2.245,2.1-3.368.439-.683.879-1.367,1.367-2,.342-.439.757-.708,1.318-.268a1.122,1.122,0,0,1,.366,1.562c-.561,1.049-1.1,2.1-1.635,3.173a1.2,1.2,0,0,0-.1.854,9.769,9.769,0,0,0,.927-.781c.952-1.025,1.879-2.1,2.855-3.1a2.72,2.72,0,0,1,.83-.464.645.645,0,0,1,.122.146c.171-.342.317-.683.488-1.025.366-.781.952-1.1,1.611-.854.781.293.561.927.39,1.562a4.707,4.707,0,0,1,1.074-.952,4.04,4.04,0,0,1,1.757-.415,1.058,1.058,0,0,1,.9,1.489A9.055,9.055,0,0,1,334,685.685a1.467,1.467,0,0,1-1.806.269.723.723,0,0,1-.244-.635,5.286,5.286,0,0,0,.317-1.294A19.171,19.171,0,0,0,331,685.88c-.61,1.074-1.147,2.221-1.733,3.319a3.37,3.37,0,0,1-.757,1.123,1.6,1.6,0,0,1-1.171.366.917.917,0,0,1-.488-1.293c.342-1.025.732-2.026,1.1-3.051a6.341,6.341,0,0,0,.415-1.367c-.952,1.318-1.9,2.636-2.855,3.929a10.116,10.116,0,0,1-1.049,1.245,1.782,1.782,0,0,1-2.026.659c-.83-.317-.659-1.147-.757-1.806a12.1,12.1,0,0,1-1.2,1.293,1.661,1.661,0,0,1-2,.439,1.617,1.617,0,0,1-.683-1.928c.244-1.074.635-2.123.976-3.173a9.588,9.588,0,0,0,.342-1c-1.074,1.538-2.855,2.294-3.807,3.978a4.321,4.321,0,0,1-3,2.2,1.751,1.751,0,0,1-2.245-1.611,1.472,1.472,0,0,1-.024-.561,12.184,12.184,0,0,1,3.563-6.3,3.046,3.046,0,0,1,1.318-.561,1.728,1.728,0,0,1,2.172,1.782A13.8,13.8,0,0,1,316.942,685.709Zm-1.684-1.611c-.854.9-1.635,1.708-2.416,2.514.952.317,1.855.537,2.367-.122a5.449,5.449,0,0,0,.854-2.294c.146-1.074-.635-1.489-1.586-.976.293.317.586.634.781.88Zm-3.124,3.978c.122.415.22.683.317.976.439-.171.9-.342,1.342-.537a.491.491,0,0,0-.1-.2c-.412-.043-.851-.115-1.559-.238Z" transform="translate(-120.811 -455.569)" fill="#fff"/>
    <path id="Path_4609" data-name="Path 4609" d="M271.618,131.981a64.3,64.3,0,0,1-1.147,23.259,58.549,58.549,0,0,1-7.956,18.377,42.455,42.455,0,0,1-7.2,8.566,2.82,2.82,0,0,1-1.22.708,1.4,1.4,0,0,1-1.611-.83,1.566,1.566,0,0,1,.342-1.879c.635-.659,1.342-1.269,1.977-1.928a53.067,53.067,0,0,0,13.13-26.578,58.616,58.616,0,0,0,.635-18.695,56.7,56.7,0,0,0-13.3-30.263,55.892,55.892,0,0,0-31.532-19.061c-18.841-3.978-35.754.317-50.4,12.837a57.05,57.05,0,0,0-14.082,68.36,61.268,61.268,0,0,0,10.2,15.2c.732.8.781,1.635.146,2.245a1.724,1.724,0,0,1-2.416,0,39.64,39.64,0,0,1-2.831-3.246,64.311,64.311,0,0,1-13.228-29.043,57.9,57.9,0,0,1,4.32-34.534c8.054-17.694,21.575-29.165,40.294-34.412a53.99,53.99,0,0,1,14.521-1.977,61.09,61.09,0,0,1,61.14,51.161C271.447,130.809,271.545,131.4,271.618,131.981Z" fill="#fff"/>
    <path id="Path_4610" data-name="Path 4610" d="M236.917,569.946c-.781.879-1.391,1.66-2.123,2.343a4,4,0,0,1-1.611.879,1.209,1.209,0,0,1-1.1-.366,2.421,2.421,0,0,1-.1-1.269,2.6,2.6,0,0,1,.293-.659l-.22-.146c-.2.2-.366.391-.561.586a17.765,17.765,0,0,1-1.708,1.611,1.428,1.428,0,0,1-2.27-1.66,20.476,20.476,0,0,1,.732-2.05c.122-.317.293-.635.513-1.147-1.782,1.22-3.441,2.27-4.979,3.441a9.987,9.987,0,0,1-6.3,2.441,3.125,3.125,0,0,1-3.368-3.026,17.013,17.013,0,0,1,.146-3.148c.122-1.172.317-2.343.488-3.514a10.17,10.17,0,0,1,10.69-8.225,4.364,4.364,0,0,1,3.978,4.3,13.243,13.243,0,0,1-2.563,7.737,7.266,7.266,0,0,1-.488.708c.049.073.122.146.171.22,1.1-.854,2.2-1.684,3.27-2.538a5.387,5.387,0,0,0,.708-.781.85.85,0,0,1,1.342-.073c.464.366.317.757.049,1.2-.683,1.172-1.342,2.343-1.977,3.539a5.149,5.149,0,0,0-.293,1.049c.073.049.122.1.2.146.22-.146.513-.22.659-.415.854-1.074,1.66-2.2,2.514-3.27a23.224,23.224,0,0,1,1.855-2.245,1.125,1.125,0,0,1,1.049-.049c.513.244.586.683.244,1.22-.635,1-1.245,2.026-1.806,3.075a1.943,1.943,0,0,0-.146,1.025c3.026-1.562,4.881-4.173,6.565-7-.659-.22-1.293-.415-2-.659.122-.1.171-.146.2-.122a3.43,3.43,0,0,0,4-1.83,11.29,11.29,0,0,1,1.269-1.586,1.425,1.425,0,0,1,1.928-.293.677.677,0,0,1,.1.683,14.03,14.03,0,0,1-1.025,1.611,4.118,4.118,0,0,0,.757-.317c2.27-1.562,4.564-3.1,6.809-4.686.854-.586,1.22-.635,1.952.073a.992.992,0,0,1,.2,1.367c-1.342,2.538-2.611,5.1-3.9,7.663a2.066,2.066,0,0,0-.22.781c1.147-1.269,2.245-2.563,3.466-3.758,1.538-1.513,3.148-2.978,4.759-4.417.342-.293.683-.854,1.318-.366a1.7,1.7,0,0,1,.61,2.075c-.83,1.391-1.733,2.758-2.611,4.125-.83,1.294-1.66,2.587-2.489,3.9a2.187,2.187,0,0,0-.2.561.741.741,0,0,0,.171.122c.2-.22.39-.439.561-.659,1.855-2.172,3.71-4.369,5.589-6.541a3.941,3.941,0,0,1,1.562-1.123,4.408,4.408,0,0,1,1.782.049.744.744,0,0,1,.2.635,3.2,3.2,0,0,1-.537.976,21.219,21.219,0,0,0-3.9,10.275,6.824,6.824,0,0,0,1.1,4.686,1.291,1.291,0,0,1-1.708.561c-1.562-.61-1.9-2-1.952-3.441a19.835,19.835,0,0,1,1.83-8.1c.415-1.074.952-2.1,1.293-3.27-.854,1.049-1.733,2.074-2.563,3.124-.83,1.074-1.635,2.148-2.416,3.27s-1.513,2.294-2.27,3.466a2.454,2.454,0,0,1-1.635-3.173,32.007,32.007,0,0,1,4.369-7.493l.513-.732c.024-.024,0-.1-.024-.146a2.291,2.291,0,0,0-.244-.244c-1.489,1.586-2.977,3.2-4.466,4.783-.293.317-.561.659-.879.952a13.992,13.992,0,0,0-4.076,6.785c-.2.805-.513.879-1.2.366a6,6,0,0,1-.976-.952,1.954,1.954,0,0,1-.317-2.44c1.782-3.2,3.49-6.419,5.223-9.616a4.1,4.1,0,0,0,.415-1c-.244.22-.513.415-.757.635a15.22,15.22,0,0,1-6.492,3.514.985.985,0,0,0-.635.439c-1.171,1.757-2.319,3.539-3.441,5.32a2.159,2.159,0,0,0-.268,1.147c2.026-.976,3.417-2.685,5.1-4.051a3.5,3.5,0,0,1-.293.513c-1.367,1.659-2.685,3.344-4.125,4.906a3.472,3.472,0,0,1-1.952.976c-1.025.171-1.611-.537-1.513-1.586A8.16,8.16,0,0,1,236.917,569.946Zm-16.278-8.2c-.683,1.123-1.367,2.05-1.879,3.1-.537,1.049-.879,2.2-1.318,3.319a.8.8,0,0,0,.39,1.1,6.79,6.79,0,0,0,4.954.659,4.475,4.475,0,0,0,1.9-1.489,12.742,12.742,0,0,0,1.464-1.953,10.536,10.536,0,0,0,1.83-5.638,2.471,2.471,0,0,0-2.245-2.563,8.085,8.085,0,0,0-6.882,3.173c.565.072,1.147.17,1.785.292Z" transform="translate(-48.302 -360.502)" fill="#fff"/>
    <path id="Path_4611" data-name="Path 4611" d="M284.541,193c2.1,2.489,4.149,4.906,6.2,7.322q15.156,17.938,30.336,35.852a6.466,6.466,0,0,1,.513.635,1.709,1.709,0,0,1-.171,2.294,1.561,1.561,0,0,1-2.294-.268c-1.269-1.464-2.538-2.977-3.783-4.466q-15.266-18.048-30.531-36.12a2.838,2.838,0,0,1-.22-.342c-1.44,1.684-2.782,3.27-4.125,4.857q-15.046,17.792-30.116,35.608a1.629,1.629,0,1,1-2.465-2.074l35.8-42.319C283.931,193.708,284.2,193.415,284.541,193Z" transform="translate(-73.449 -86.108)" fill="#fff"/>
    <path id="Path_4612" data-name="Path 4612" d="M492.771,586.662a3.826,3.826,0,0,0-.073.586c0,.83.513,1.22,1.269.854a6.164,6.164,0,0,0,1.416-.927c1.611-1.464,3.148-2.953,4.759-4.417a5.82,5.82,0,0,1,1.684-1.074c1.367-.561,2.074-.22,2.66,1.147.732-1.049,1.415-2.074,2.123-3.075.439-.586.927-1.123,1.391-1.684.513-.634,1-.317,1.489.024.537.366.415.781.1,1.245-1.415,2.1-2.831,4.222-4.222,6.37a3.032,3.032,0,0,0-.439,1.44c2.05-.927,3.368-2.685,5.15-3.978-.513.708-1,1.44-1.562,2.1-.927,1.1-1.83,2.221-2.831,3.222a3.916,3.916,0,0,1-1.879,1c-.805.2-1.293-.268-1.367-1.1a17.042,17.042,0,0,1,.122-2.2c-.561.732-1.1,1.464-1.684,2.148-.879,1-1.684,1.293-2.367.952-.708-.342-1-1.269-.757-2.538.073-.366.2-.732.366-1.318-.439.464-.708.8-1.025,1.1-.952.83-1.9,1.66-2.9,2.441a2.91,2.91,0,0,1-1.269.512c-1.782.293-2.855-.732-2.465-2.489a7.509,7.509,0,0,1,4.417-5.369c.1-.049.2-.122.293-.1.561.049,1.367-.049,1.635.268a2.124,2.124,0,0,1,.2,1.733,4.7,4.7,0,0,1-2.88,3A5.348,5.348,0,0,1,492.771,586.662Zm6.712,1a6.045,6.045,0,0,0,.952-.366,16.573,16.573,0,0,0,1.708-1.489A22.081,22.081,0,0,0,504,583.66c.146-.22.171-.8.024-.9a1.686,1.686,0,0,0-1-.1.843.843,0,0,0-.464.317c-.952,1.269-1.9,2.538-2.855,3.832a6.666,6.666,0,0,0-.223.853Zm-6.541-1.684a4.242,4.242,0,0,0,3.246-2.929c.024-.122-.049-.342-.1-.342a.7.7,0,0,0-.513.073,16.171,16.171,0,0,0-1.733,1.684,10.328,10.328,0,0,0-.9,1.514Z" transform="translate(-257.151 -376.925)" fill="#fff"/>
    <path id="Path_4613" data-name="Path 4613" d="M418.346,597.791c-.415.561-.781,1.147-1.22,1.66a7.815,7.815,0,0,1-1.513,1.464,1.347,1.347,0,0,1-2.2-1.05,4.237,4.237,0,0,1,.146-1.757,7.292,7.292,0,0,1,3.88-4.637,2.6,2.6,0,0,1,.854-.22c1.171-.1,1.611.244,1.806,1.513.464-.366.879-.708,1.293-1.049a1.016,1.016,0,0,1,1.513.122c.488.464.073.8-.2,1.2-.659.976-1.318,1.977-1.952,2.978a3.134,3.134,0,0,0-.22.854c.073.049.122.073.2.122a7.113,7.113,0,0,0,.732-.415c.9-.781,1.806-1.562,2.685-2.367a2.264,2.264,0,0,0,.976-1.66,1.2,1.2,0,0,1,1.171-1.123,17.825,17.825,0,0,1,6.126.22,1.2,1.2,0,0,1,.732.586c.049.146-.268.537-.513.708-2.148,1.44-4.32,2.88-6.419,4.442,1.025-.22,2.05-.488,3.075-.659a8.706,8.706,0,0,1,1.782-.049.632.632,0,0,1,.464.39c.122.61-.781,1.611-1.416,1.66-2.05.171-4.076.342-6.126.488a1.782,1.782,0,0,1-.854-.122,1.953,1.953,0,0,1,.1-1.2,4.437,4.437,0,0,1,1.269-1.342c1.855-1.293,3.758-2.538,5.662-3.807.2-.122.39-.268.586-.391-.024-.073-.049-.146-.073-.244-1.245.293-2.489.61-3.734.854a3.822,3.822,0,0,0-2.514,1.684,31.587,31.587,0,0,1-3.124,3.612,4.133,4.133,0,0,1-1.879,1c-.83.2-1.318-.317-1.367-1.2a5.787,5.787,0,0,1,.073-1.123c.049-.366.171-.732.244-1.1a.052.052,0,0,0-.045-.042Zm-3.222,1.293c.049.073.122.171.171.244.244-.1.586-.1.757-.268,1.22-1.171,2.416-2.367,3.563-3.612.171-.2.073-.659.1-1-.342-.024-.8-.171-1.025-.024a11.548,11.548,0,0,0-3.566,4.66Z" transform="translate(-198.956 -388.664)" fill="#fff"/>
    <g id="Group_76" data-name="Group 76" transform="translate(165.429 89.344)">
      <g id="Group_75" data-name="Group 75">
        <path id="Path_4621" data-name="Path 4621" d="M212.6,223.026,214.357,220l.561.317-1.367,2.367,1.635.952,1.147-1.977.561.317-1.147,1.977,1.9,1.1,1.415-2.441.561.317-1.806,3.1Z" transform="translate(-212.6 -195.863)" fill="#fff"/>
        <path id="Path_4622" data-name="Path 4622" d="M234.738,204.248,232.2,204l.513-.659,1.147.122c.268.049.586.073.854.1l.024-.024c-.122-.268-.22-.513-.342-.781l-.439-1.025.488-.635.927,2.441,2.685.22-.513.659-1.22-.122c-.317-.049-.635-.073-.927-.1l-.024.024c.122.268.244.561.366.854l.464,1.123-.488.635Z" transform="translate(-227.417 -181.576)" fill="#fff"/>
        <path id="Path_4623" data-name="Path 4623" d="M250.2,184.763l.439-.439.415.317.024-.024a2.382,2.382,0,0,1,.586-1.464c.83-.8,1.9-.61,2.88.39,1.074,1.1,1.049,2.367.317,3.1a2.151,2.151,0,0,1-1.245.513l.561.537,1.074,1.074-.537.537Zm3.783-.659c-.708-.708-1.391-.952-2-.342a1.832,1.832,0,0,0-.415,1.269l1.66,1.684a1.647,1.647,0,0,0,1.1-.439c.509-.512.436-1.391-.345-2.176Z" transform="translate(-241.023 -167.63)" fill="#fff"/>
        <path id="Path_4624" data-name="Path 4624" d="M270.59,167.354l-3.49-4.491.61-.464,3.514,4.539c.146.2.268.2.366.122a.55.55,0,0,0,.122-.122l.439.39a1.651,1.651,0,0,1-.293.317C271.4,168.013,271,167.867,270.59,167.354Z" transform="translate(-253.799 -152.321)" fill="#fff"/>
        <path id="Path_4625" data-name="Path 4625" d="M289.809,158.2a2.1,2.1,0,1,1,3,.927,2.139,2.139,0,0,1-3-.927Zm2.88-1.757c-.537-.879-1.342-1.2-2-.8s-.732,1.269-.22,2.148,1.342,1.2,2,.8c.66-.418.757-1.272.22-2.151Z" transform="translate(-270.651 -146.581)" fill="#fff"/>
        <path id="Path_4626" data-name="Path 4626" d="M313.3,142.549l.561-.268.391.708h.024a1.5,1.5,0,0,1,.781-1.367,1.193,1.193,0,0,1,.464-.122l.146.659a1.483,1.483,0,0,0-.439.122c-.342.146-.659.586-.61,1.415l1.171,2.636-.683.317Z" transform="translate(-288.724 -136.521)" fill="#fff"/>
        <path id="Path_4627" data-name="Path 4627" d="M331.107,130.131a.479.479,0,0,1,.342-.635.5.5,0,0,1,.659.293.487.487,0,0,1-.342.635.464.464,0,0,1-.659-.293Zm.586,1.318.732-.244,1.44,4.247-.732.244Z" transform="translate(-302.162 -127.422)" fill="#fff"/>
        <path id="Path_4628" data-name="Path 4628" d="M351.1,130.335l.61-.122.2.61h.024a2.09,2.09,0,0,1,1.318-1.049c.927-.2,1.464.317,1.708,1.44l.586,2.782-.732.146-.561-2.685c-.171-.83-.488-1.123-1.074-1-.439.1-.708.39-1.049.927l.683,3.173-.732.146Z" transform="translate(-317.298 -127.626)" fill="#fff"/>
        <path id="Path_4629" data-name="Path 4629" d="M380.558,131.713a1.246,1.246,0,0,1,.586-1.049v-.049a.819.819,0,0,1-.439-.708,1.059,1.059,0,0,1,.439-.854V129a1.536,1.536,0,0,1-.659-1.171,1.579,1.579,0,0,1,1.562-1.708,1.682,1.682,0,0,1,.635.073l1.562-.1.049.586-.927.073a1.444,1.444,0,0,1,.439.9,1.519,1.519,0,0,1-1.538,1.66,1.661,1.661,0,0,1-.683-.1.628.628,0,0,0-.244.537c.024.293.22.464.83.439l.879-.049c1.049-.073,1.586.22,1.635.952.049.83-.781,1.611-2.148,1.708C381.387,132.86,380.606,132.494,380.558,131.713Zm2.538-4.027a.959.959,0,1,0-1.9.146.99.99,0,0,0,1.025,1,1.048,1.048,0,0,0,.879-1.146Zm.8,3.563c-.024-.415-.342-.537-.952-.488l-.781.049a4.9,4.9,0,0,1-.586-.024,1.044,1.044,0,0,0-.415.781c.024.488.537.757,1.342.708.9-.075,1.441-.562,1.391-1.025Z" transform="translate(-339.507 -124.88)" fill="#fff"/>
        <path id="Path_4630" data-name="Path 4630" d="M423.554,121.1l3.466.513-.1.635-2.685-.39-.268,1.879,2.27.342-.1.635-2.27-.342-.317,2.172,2.782.415-.1.635-3.539-.513Z" transform="translate(-371.424 -121.1)" fill="#fff"/>
        <path id="Path_4631" data-name="Path 4631" d="M451.1,132l.757.22.1,2.685c0,.464.024.927.024,1.391H452c.244-.366.513-.781.757-1.147l1.513-2.221.708.2L452.223,137l-.854-.244Z" transform="translate(-392.893 -129.34)" fill="#fff"/>
        <path id="Path_4632" data-name="Path 4632" d="M473.444,144.365a2.164,2.164,0,0,1,2.807-1.342c1.049.464,1.318,1.464.8,2.66l-.2.39-2.758-1.22a1.472,1.472,0,0,0,.732,2.026A1.95,1.95,0,0,0,476,147l.049.561a2.666,2.666,0,0,1-1.538-.171,2.141,2.141,0,0,1-1.068-3.026Zm3.026.927c.366-.83.2-1.44-.464-1.708a1.371,1.371,0,0,0-1.733.757Z" transform="translate(-409.599 -137.556)" fill="#fff"/>
        <path id="Path_4633" data-name="Path 4633" d="M496.919,153.3l.537.317-.366.732.024.024a1.482,1.482,0,0,1,1.562-.146,1.187,1.187,0,0,1,.366.317l-.464.513a1.028,1.028,0,0,0-.342-.293c-.317-.2-.854-.2-1.513.317l-1.464,2.489-.659-.39Z" transform="translate(-425.776 -145.441)" fill="#fff"/>
        <path id="Path_4634" data-name="Path 4634" d="M505.6,168.825l.488-.39a2.129,2.129,0,0,0,.22.268c.415.317.9.171,1.391-.146l.293-.2,1.293-4.661.635.464-.781,2.538c-.122.39-.293.854-.415,1.269l.024.024c.342-.244.732-.537,1.074-.781l2.148-1.489.586.439-4.3,2.84c-.781.513-1.562.781-2.294.22A1.1,1.1,0,0,1,505.6,168.825Z" transform="translate(-434.092 -153.303)" fill="#fff"/>
        <path id="Path_4635" data-name="Path 4635" d="M533.373,185.291a2.126,2.126,0,0,1,3.051-.293,1.854,1.854,0,0,1,.513,1.269l.513-.561,1.22-1.22.537.537-4.661,4.637-.439-.439.342-.415-.024-.024a2.031,2.031,0,0,1-1.415-.513C532.226,187.463,532.323,186.341,533.373,185.291Zm1.464,3.026,1.66-1.66a1.577,1.577,0,0,0-.439-1.1c-.513-.513-1.391-.415-2.123.293-.757.757-.9,1.538-.342,2.074a1.541,1.541,0,0,0,1.244.393Z" transform="translate(-454.421 -169.013)" fill="#fff"/>
        <path id="Path_4636" data-name="Path 4636" d="M550.94,206.962c.781-.586,1.684-.2,3,1.2.464-.342.781-.83.342-1.416a2.494,2.494,0,0,0-1.2-.781l.244-.561a3.477,3.477,0,0,1,1.538,1.049c.659.879.342,1.684-.537,2.343l-2.2,1.66-.366-.513.391-.366-.024-.024a2.444,2.444,0,0,1-1.415-.8,1.163,1.163,0,0,1,.227-1.786Zm1.586,2.245,1-.757c-1.049-1.1-1.635-1.293-2.1-.927a.67.67,0,0,0-.1,1.049,1.831,1.831,0,0,0,1.2.635Z" transform="translate(-467.961 -184.826)" fill="#fff"/>
        <path id="Path_4637" data-name="Path 4637" d="M556.7,228.746l.61-.171a2.543,2.543,0,0,0,.1.342c.244.439.757.513,1.342.415l.342-.073,3.051-3.758.39.683L560.8,228.21c-.268.317-.61.659-.879,1l.024.024c.415-.1.879-.2,1.293-.293l2.563-.513.366.659-5.076.9c-.927.171-1.757.073-2.2-.708A1.613,1.613,0,0,1,556.7,228.746Z" transform="translate(-472.72 -200.021)" fill="#fff"/>
      </g>
    </g>
    <g id="Group_77" data-name="Group 77" transform="translate(253.558 197.485)">
      <circle id="Ellipse_46" data-name="Ellipse 46" cx="2.245" cy="2.245" r="2.245" transform="translate(0 0)" fill="none" stroke="#fff" stroke-miterlimit="10" stroke-width="0.5"/>
      <text id="TM" transform="translate(1.529 2.893)" fill="#fff" font-size="1" font-family="Poppins-Regular, Poppins"><tspan x="0" y="0">TM</tspan></text>
    </g>
    <path id="Path_4638" data-name="Path 4638" d="M428.9,670.286a3.455,3.455,0,0,1,1.391-2.782,1.019,1.019,0,0,1,1.708.854,2.9,2.9,0,0,1-1.074,2.587,1.643,1.643,0,0,1-1.367.293C429.242,671.116,429.071,670.506,428.9,670.286Z" transform="translate(-210.682 -444.612)" fill="#fff"/>
    <g id="Group_78" data-name="Group 78" transform="translate(181.086 221.673)">
      <path id="Path_4639" data-name="Path 4639" d="M285.7,664.258l-.073,1.025v.024a50.847,50.847,0,0,1-1.44,6.394c-1.245,4.1-1.416,5.174-2.2,5.247a9.249,9.249,0,0,1-1.147.122c.268-.513.317-.537.391-.683,1.123-2.148,2.148-6.736,2.733-10.324.049-.268.122-.683.049-.708-.122-.049,0,0-.024,0a9.753,9.753,0,0,0-7.151-.61.066.066,0,0,1-.049-.122,8.745,8.745,0,0,1,2.733-1.171,8.15,8.15,0,0,1,3.49.1,13.832,13.832,0,0,0,1.391.317C286.208,664.258,285.7,664.258,285.7,664.258Z" transform="translate(-276.752 -663.308)" fill="#fff" stroke="#fff" stroke-miterlimit="10" stroke-width="1.5"/>
      <path id="Path_4640" data-name="Path 4640" d="M312.7,666.977l.171-1.513c1.562.464,2.636.342,6.712-.415a1.368,1.368,0,0,1,.244-.049c.024,0,.073.049,0,.1a13.03,13.03,0,0,1-6.028,1.952,5.42,5.42,0,0,1-1.1-.075Z" transform="translate(-303.927 -664.587)" fill="#fff" stroke="#fff" stroke-miterlimit="10" stroke-width="1.5"/>
    </g>
    <g id="Group_79" data-name="Group 79" transform="translate(187.077 136.638)">
      <path id="Path_4641" data-name="Path 4641" d="M301.3,346.51c.049-.415.1-.83.171-1.245a11.166,11.166,0,0,1,22.16,1.709,9.158,9.158,0,0,1-1.049,4.3,38.274,38.274,0,0,1-2.88,4.686c-1.416,2.1-2.807,4.2-4,6.419a36.671,36.671,0,0,0-3.148,7.883,2.224,2.224,0,0,1-.073.22c-.073-.366-.146-.683-.22-1a31.03,31.03,0,0,0-3.929-9.518c-1.245-2.026-2.66-3.9-4.027-5.857a23.1,23.1,0,0,1-2.343-3.954,7.721,7.721,0,0,1-.61-2.343c0-.024-.024-.073-.024-.1C301.3,347.34,301.3,346.925,301.3,346.51Zm17.084.683a5.906,5.906,0,1,0-5.882,5.931,5.906,5.906,0,0,0,5.882-5.931Z" transform="translate(-301.3 -330.862)" fill="#f58362"/>
      <path id="Path_4642" data-name="Path 4642" d="M354.8,420.293c.9-2.416,1.538-4.881,2.2-7.37l1.147.073a86.223,86.223,0,0,0,9.4.146,8.244,8.244,0,0,0,2.978-.537,4.529,4.529,0,0,0,1.049-.61,1.383,1.383,0,0,0,.39-1.708,2.446,2.446,0,0,0-.83-1.1c-.464-.342-.927-.635-1.415-.952a11.488,11.488,0,0,1-2.148-1.611,3.523,3.523,0,0,1-.537-.659,1.831,1.831,0,0,1-.024-2.172,4.956,4.956,0,0,1,2.392-1.9,10.323,10.323,0,0,1,3.319-.683,18.542,18.542,0,0,1,4.783.366c-.439.024-.879.024-1.342.049a22.085,22.085,0,0,0-4.369.561,5.83,5.83,0,0,0-1.635.635,1.569,1.569,0,0,0-.317.244,1.15,1.15,0,0,0-.293,1.513,2.33,2.33,0,0,0,1,1c.879.464,1.757.927,2.66,1.367a13.488,13.488,0,0,1,2.953,1.806,6.17,6.17,0,0,1,1.513,1.855,4.243,4.243,0,0,1-.171,4.539,8.642,8.642,0,0,1-3.2,2.88,14.309,14.309,0,0,1-5.442,1.782,78.026,78.026,0,0,1-9.25.488c-1.538,0-3.1-.024-4.637-.049C354.946,420.317,354.873,420.293,354.8,420.293Z" transform="translate(-341.743 -380.117)" fill="#fff"/>
      <path id="Path_4643" data-name="Path 4643" d="M429.533,335.192a21.587,21.587,0,0,0-1.074-3.441,23.9,23.9,0,0,0-2.294-4.076c-.708-1.025-1.44-2.05-2.148-3.1a6.02,6.02,0,0,1-.976-2.172,5.625,5.625,0,0,1,.439-3.514,6.612,6.612,0,0,1,12.545,1.245,5.625,5.625,0,0,1-.683,4.149c-.708,1.2-1.489,2.343-2.245,3.514a26.368,26.368,0,0,0-3.124,6.126,7.072,7.072,0,0,0-.44,1.269Zm-.024-17.206a3.479,3.479,0,1,0,2.48,1.027,3.5,3.5,0,0,0-2.48-1.027Z" transform="translate(-393.242 -314.882)" fill="#f58362"/>
    </g>
  </g>
</svg>
