<svg id="OutMazed_Tourism" data-name="OutMazed Tourism" xmlns="http://www.w3.org/2000/svg" xmlns:xlink="http://www.w3.org/1999/xlink" width="112.111" height="144.464" viewBox="0 0 112.111 144.464">
  <defs>
    <linearGradient id="linear-gradient" y1="0.5" x2="1" y2="0.5" gradientUnits="objectBoundingBox">
      <stop offset="0" stop-color="#0061ab"/>
      <stop offset="0.178" stop-color="#006ab0"/>
      <stop offset="0.469" stop-color="#0082bc"/>
      <stop offset="0.834" stop-color="#00aad0"/>
      <stop offset="1" stop-color="#00beda"/>
    </linearGradient>
    <linearGradient id="linear-gradient-2" y1="0.5" x2="1" y2="0.5" gradientUnits="objectBoundingBox">
      <stop offset="0" stop-color="#0061ab"/>
      <stop offset="1" stop-color="#00beda"/>
    </linearGradient>
    <linearGradient id="linear-gradient-3" y1="0.5" x2="1" y2="0.5" gradientUnits="objectBoundingBox">
      <stop offset="0" stop-color="#f69174"/>
      <stop offset="1" stop-color="#f47a57"/>
    </linearGradient>
    <linearGradient id="linear-gradient-4" x1="0" y1="0.503" x2="1.001" y2="0.503" xlink:href="#linear-gradient-2"/>
    <linearGradient id="linear-gradient-5" x1="-0.003" y1="0.499" x2="0.997" y2="0.499" xlink:href="#linear-gradient-3"/>
  </defs>
  <path id="Path_4604" data-name="Path 4604" d="M449.9,708.24c.292-.247.583-.493.852-.74l.2.067a2.769,2.769,0,0,1-.269.83c-.112.135-.471.067-.7.09A1.1,1.1,0,0,1,449.9,708.24Z" transform="translate(-382.671 -566.534)" fill="#fff"/>
  <path id="Path_4605" data-name="Path 4605" d="M325.4,704.5c.651.112,1.054.157,1.458.224a.45.45,0,0,0,.09.18c-.4.157-.83.314-1.234.494A8.093,8.093,0,0,1,325.4,704.5Z" transform="translate(-286.099 -564.207)" fill="#fff"/>
  <path id="Path_4606" data-name="Path 4606" d="M428.366,683.782c.606-.493,1.3-1.5,2.378-.852,1.122.7.067,1.638.022,2.557a18.482,18.482,0,0,1,1.211-1.593,5.642,5.642,0,0,1,1.279-1.01,1.187,1.187,0,0,1,1.548.292c.4.471.247.942-.022,1.436a26.505,26.505,0,0,0-1.593,3.432c1.7-1.009,2.714-2.692,4.105-3.993a.79.79,0,0,1,.2.09c-.022.2.022.449-.09.606-1.256,1.795-2.535,3.567-3.836,5.339a2.025,2.025,0,0,1-.9.651,1.177,1.177,0,0,1-1.817-1.032,11.706,11.706,0,0,1,.336-2.333,4.4,4.4,0,0,0,.2-.942c-.494.852-.964,1.7-1.458,2.557a10.751,10.751,0,0,1-.763,1.189c-.292.4-.583.875-1.211.539a1.217,1.217,0,0,1-.673-1.436c.18-.83.4-1.638.628-2.445a1.419,1.419,0,0,0,.067-.763c-.381.651-.785,1.279-1.167,1.929-.471.763-.92,1.525-1.391,2.288-.269.449-.65.74-1.189.493a.973.973,0,0,1-.426-1.346l1.682-4.374c.067-.157.112-.292.247-.628-1.077.92-2.019,1.682-2.916,2.512a.991.991,0,0,0-.2.763,3.134,3.134,0,0,1-3.118,3.544,1.445,1.445,0,0,1-1.368-.875,1.1,1.1,0,0,1,.336-1.413,2.754,2.754,0,0,0,1.211-3.567,2.023,2.023,0,0,1,0-.538c-.2.269-.314.426-.426.583-1.077,1.481-2.109,3.028-3.275,4.442a3.436,3.436,0,0,1-1.66.964.9.9,0,0,1-1.167-.852,5.433,5.433,0,0,1,.045-2,13.053,13.053,0,0,1,2.109-4.733,1.06,1.06,0,0,1,1.66-.247,1.027,1.027,0,0,1,.314,1.593c-.538.9-1.054,1.795-1.548,2.714a7.242,7.242,0,0,0-.292.74c.045.045.112.09.157.135.583-.561,1.211-1.122,1.772-1.727.516-.538.965-1.144,1.48-1.682.247-.269.381-.808.987-.561.067.022.269-.247.381-.4a2.685,2.685,0,0,1,2.378-1.144,1.18,1.18,0,0,1,.83.606,2.2,2.2,0,0,1-.135,1.189c-.022.135-.292.179-.449.292l-.449-.9a5.33,5.33,0,0,0-.583,1.122c-.067.269.112.606.2,1.054.673-.426,1.3-.785,1.862-1.189a13.546,13.546,0,0,0,2.781-2.019,1.2,1.2,0,0,1,1.144-.09C428.142,682.884,428.209,683.423,428.366,683.782Zm-8.524,5.9c.022.09.045.157.067.247.247-.022.583.045.7-.09a1.91,1.91,0,0,0,.269-.83l-.2-.067C420.425,689.188,420.133,689.435,419.842,689.682Z" transform="translate(-354.115 -547.257)" fill="#5f6266"/>
  <path id="Path_4607" data-name="Path 4607" d="M316.382,685.388c.718-.74,1.279-1.368,1.862-1.974.381-.381.381-.381.74.112.224-.314.449-.606.673-.9a.856.856,0,0,1,1.279-.337.971.971,0,0,1,.337,1.413c-.538,1.054-1.077,2.131-1.593,3.208a9.407,9.407,0,0,0-.359,1.032c.045.045.112.09.157.135a6.907,6.907,0,0,0,.538-.606c.65-1.032,1.279-2.064,1.929-3.1.4-.628.808-1.256,1.256-1.839.314-.4.7-.651,1.211-.247a1.031,1.031,0,0,1,.336,1.436c-.516.965-1.009,1.929-1.5,2.916a1.1,1.1,0,0,0-.09.785,8.984,8.984,0,0,0,.852-.718c.875-.942,1.727-1.929,2.625-2.849a2.5,2.5,0,0,1,.763-.426.593.593,0,0,1,.112.135c.157-.314.292-.628.449-.942.336-.718.875-1.009,1.481-.785.718.269.516.853.359,1.436a4.329,4.329,0,0,1,.987-.875,3.714,3.714,0,0,1,1.615-.381.972.972,0,0,1,.83,1.368,8.325,8.325,0,0,1-1.167,1.974,1.348,1.348,0,0,1-1.66.247.664.664,0,0,1-.224-.583,4.858,4.858,0,0,0,.292-1.189,17.577,17.577,0,0,0-1.167,1.7c-.561.987-1.054,2.041-1.593,3.051a3.1,3.1,0,0,1-.7,1.032,1.466,1.466,0,0,1-1.077.337.843.843,0,0,1-.449-1.189c.314-.942.673-1.862,1.009-2.8a5.827,5.827,0,0,0,.381-1.256c-.875,1.211-1.75,2.423-2.625,3.612a9.3,9.3,0,0,1-.965,1.144,1.638,1.638,0,0,1-1.862.605c-.763-.291-.606-1.054-.7-1.66a11.126,11.126,0,0,1-1.1,1.189,1.527,1.527,0,0,1-1.839.4,1.486,1.486,0,0,1-.628-1.772c.224-.987.583-1.952.9-2.916a8.784,8.784,0,0,0,.314-.92c-.987,1.413-2.625,2.109-3.5,3.656a3.97,3.97,0,0,1-2.759,2.019,1.609,1.609,0,0,1-2.064-1.48,1.352,1.352,0,0,1-.022-.516,11.2,11.2,0,0,1,3.275-5.788,2.807,2.807,0,0,1,1.211-.516,1.588,1.588,0,0,1,2,1.638A12.683,12.683,0,0,1,316.382,685.388Zm-1.548-1.48c-.785.83-1.5,1.57-2.221,2.31.875.292,1.7.494,2.176-.112a5.008,5.008,0,0,0,.785-2.109c.135-.987-.583-1.368-1.458-.9C314.386,683.392,314.655,683.684,314.834,683.908Zm-2.871,3.657c.112.381.2.628.292.9.4-.157.83-.314,1.234-.494a.452.452,0,0,0-.09-.179C313.017,687.744,312.613,687.677,311.963,687.565Z" transform="translate(-274.164 -546.554)" fill="#5f6266"/>
  <path id="Path_4609" data-name="Path 4609" d="M261.8,127.7a59.1,59.1,0,0,1-1.054,21.378,53.813,53.813,0,0,1-7.313,16.891,39.025,39.025,0,0,1-6.617,7.874,2.593,2.593,0,0,1-1.122.651,1.29,1.29,0,0,1-1.48-.763,1.439,1.439,0,0,1,.314-1.727c.583-.606,1.234-1.167,1.817-1.772a48.776,48.776,0,0,0,12.069-24.429A53.877,53.877,0,0,0,259,128.624a52.117,52.117,0,0,0-12.226-27.816,51.373,51.373,0,0,0-28.982-17.52c-17.318-3.656-32.863.292-46.323,11.8a52.437,52.437,0,0,0-12.943,62.833A56.313,56.313,0,0,0,167.9,171.9c.673.74.718,1.5.135,2.064a1.584,1.584,0,0,1-2.221,0,36.439,36.439,0,0,1-2.6-2.983,59.111,59.111,0,0,1-12.158-26.694,53.22,53.22,0,0,1,3.97-31.742c7.4-16.263,19.83-26.807,37.036-31.629a49.625,49.625,0,0,1,13.347-1.817A56.15,56.15,0,0,1,261.6,126.112C261.643,126.627,261.733,127.166,261.8,127.7Z" transform="translate(-150.2 -79.092)" fill="url(#linear-gradient)"/>
  <path id="Path_4610" data-name="Path 4610" d="M235.072,568.817c-.718.808-1.279,1.526-1.952,2.153a3.671,3.671,0,0,1-1.481.808,1.11,1.11,0,0,1-1.009-.336,2.226,2.226,0,0,1-.09-1.167,2.393,2.393,0,0,1,.269-.606l-.2-.135c-.179.18-.336.359-.516.539a16.338,16.338,0,0,1-1.57,1.481,1.312,1.312,0,0,1-2.086-1.526,18.824,18.824,0,0,1,.673-1.884c.112-.292.269-.583.471-1.054-1.638,1.122-3.163,2.086-4.576,3.163a9.179,9.179,0,0,1-5.788,2.243,2.872,2.872,0,0,1-3.1-2.782,15.636,15.636,0,0,1,.135-2.894c.112-1.077.292-2.154.449-3.23a9.348,9.348,0,0,1,9.825-7.56,4.012,4.012,0,0,1,3.656,3.948,12.173,12.173,0,0,1-2.355,7.111,6.681,6.681,0,0,1-.449.651c.045.067.112.135.157.2,1.009-.785,2.019-1.548,3.006-2.333a4.942,4.942,0,0,0,.651-.718.781.781,0,0,1,1.234-.067c.426.337.292.7.045,1.1-.628,1.077-1.234,2.154-1.817,3.253a4.734,4.734,0,0,0-.269.965c.067.045.112.09.179.135.2-.135.471-.2.606-.381.785-.987,1.525-2.019,2.311-3.006a21.35,21.35,0,0,1,1.7-2.064,1.035,1.035,0,0,1,.965-.045c.471.224.538.628.224,1.122-.583.92-1.144,1.862-1.66,2.826a1.786,1.786,0,0,0-.135.942c2.782-1.436,4.486-3.836,6.034-6.438-.606-.2-1.189-.381-1.839-.606.112-.09.157-.134.18-.112a3.152,3.152,0,0,0,3.679-1.682,10.377,10.377,0,0,1,1.166-1.458,1.31,1.31,0,0,1,1.772-.269.622.622,0,0,1,.09.628,12.9,12.9,0,0,1-.942,1.481,3.776,3.776,0,0,0,.7-.292c2.086-1.435,4.195-2.849,6.259-4.307.785-.538,1.122-.583,1.795.067a.912.912,0,0,1,.179,1.256c-1.234,2.333-2.4,4.688-3.589,7.044a1.9,1.9,0,0,0-.2.718c1.054-1.167,2.064-2.355,3.185-3.455,1.413-1.391,2.894-2.737,4.374-4.06.314-.269.628-.785,1.211-.336a1.558,1.558,0,0,1,.561,1.907c-.763,1.279-1.593,2.535-2.4,3.791-.763,1.189-1.525,2.378-2.288,3.589a2.009,2.009,0,0,0-.18.516.671.671,0,0,0,.157.112c.179-.2.359-.4.516-.605,1.7-2,3.41-4.016,5.137-6.012a3.621,3.621,0,0,1,1.436-1.032,4.051,4.051,0,0,1,1.638.045.685.685,0,0,1,.179.583,2.939,2.939,0,0,1-.493.9,19.5,19.5,0,0,0-3.589,9.444,6.272,6.272,0,0,0,1.009,4.307,1.186,1.186,0,0,1-1.57.516c-1.436-.561-1.75-1.84-1.795-3.163a18.231,18.231,0,0,1,1.682-7.448c.381-.987.875-1.929,1.189-3.006-.785.965-1.593,1.907-2.355,2.871-.763.987-1.5,1.974-2.221,3.006s-1.391,2.109-2.086,3.185a2.256,2.256,0,0,1-1.5-2.916,29.415,29.415,0,0,1,4.015-6.887l.471-.673c.022-.022,0-.09-.022-.135a2.107,2.107,0,0,0-.224-.224c-1.368,1.458-2.737,2.939-4.105,4.4-.269.292-.516.606-.808.875a12.86,12.86,0,0,0-3.746,6.236c-.179.74-.471.808-1.1.336a5.519,5.519,0,0,1-.9-.875,1.8,1.8,0,0,1-.292-2.243c1.638-2.939,3.208-5.9,4.8-8.838a3.775,3.775,0,0,0,.381-.919c-.224.2-.471.381-.7.583a13.989,13.989,0,0,1-5.967,3.23.906.906,0,0,0-.583.4c-1.077,1.615-2.131,3.253-3.163,4.89a1.985,1.985,0,0,0-.247,1.054c1.862-.9,3.14-2.468,4.688-3.724a3.2,3.2,0,0,1-.269.471c-1.256,1.525-2.468,3.073-3.791,4.509a3.19,3.19,0,0,1-1.795.9c-.942.157-1.48-.493-1.391-1.458A7.5,7.5,0,0,1,235.072,568.817Zm-14.962-7.537c-.628,1.032-1.256,1.884-1.727,2.849-.493.965-.808,2.019-1.211,3.051a.736.736,0,0,0,.359,1.01,6.241,6.241,0,0,0,4.554.606c.651-.135,1.234-.83,1.75-1.368a11.7,11.7,0,0,0,1.346-1.795,9.684,9.684,0,0,0,1.682-5.182,2.271,2.271,0,0,0-2.064-2.355,7.431,7.431,0,0,0-6.326,2.916C218.988,561.078,219.526,561.168,220.109,561.28Z" transform="translate(-199.763 -449.005)" fill="#5f6266"/>
  <path id="Path_4611" data-name="Path 4611" d="M281.535,193c1.929,2.288,3.813,4.509,5.7,6.73q13.93,16.488,27.883,32.953a5.962,5.962,0,0,1,.471.583,1.571,1.571,0,0,1-.157,2.109,1.434,1.434,0,0,1-2.109-.247c-1.166-1.346-2.333-2.737-3.477-4.105q-14.031-16.589-28.063-33.2a2.584,2.584,0,0,1-.2-.314c-1.324,1.548-2.557,3.006-3.791,4.464q-13.83,16.353-27.681,32.729a1.5,1.5,0,1,1-2.266-1.907l32.908-38.9C280.974,193.651,281.221,193.381,281.535,193Z" transform="translate(-225.567 -167.448)" fill="url(#linear-gradient-2)"/>
  <path id="Path_4612" data-name="Path 4612" d="M492.577,585.938a3.513,3.513,0,0,0-.067.538c0,.763.471,1.122,1.166.785a5.664,5.664,0,0,0,1.3-.852c1.481-1.346,2.894-2.714,4.374-4.06a5.35,5.35,0,0,1,1.548-.987c1.256-.516,1.907-.2,2.445,1.054.673-.965,1.3-1.907,1.952-2.827.4-.538.852-1.032,1.279-1.548.471-.583.92-.292,1.368.023.493.336.381.718.09,1.144-1.3,1.929-2.6,3.881-3.881,5.855a2.786,2.786,0,0,0-.4,1.324c1.884-.853,3.1-2.468,4.733-3.656-.471.651-.92,1.323-1.436,1.929-.852,1.01-1.682,2.042-2.6,2.961a3.6,3.6,0,0,1-1.727.92c-.74.18-1.189-.247-1.256-1.009a15.646,15.646,0,0,1,.112-2.019c-.516.673-1.01,1.346-1.548,1.974-.807.92-1.548,1.189-2.176.875-.651-.314-.92-1.167-.7-2.333.067-.336.18-.673.337-1.211-.4.426-.651.74-.942,1.009-.875.763-1.75,1.526-2.669,2.243a2.673,2.673,0,0,1-1.167.471c-1.638.269-2.625-.673-2.266-2.288a6.9,6.9,0,0,1,4.06-4.935c.09-.045.18-.112.269-.09.516.045,1.256-.045,1.5.247a1.953,1.953,0,0,1,.18,1.593,4.317,4.317,0,0,1-2.647,2.759A4.91,4.91,0,0,1,492.577,585.938Zm6.169.92a5.558,5.558,0,0,0,.875-.337,15.235,15.235,0,0,0,1.57-1.368,20.3,20.3,0,0,0,1.7-1.974c.135-.2.157-.74.022-.83a1.55,1.55,0,0,0-.92-.09.777.777,0,0,0-.426.292c-.875,1.166-1.75,2.333-2.625,3.522A6.155,6.155,0,0,0,498.746,586.857Zm-6.012-1.548a3.9,3.9,0,0,0,2.984-2.692c.022-.112-.045-.314-.09-.314a.647.647,0,0,0-.471.067,14.871,14.871,0,0,0-1.593,1.548A9.508,9.508,0,0,0,492.734,585.309Z" transform="translate(-414.064 -465.856)" fill="#5f6266"/>
  <path id="Path_4613" data-name="Path 4613" d="M417.945,597.422c-.381.516-.718,1.054-1.121,1.525a7.187,7.187,0,0,1-1.391,1.346,1.238,1.238,0,0,1-2.019-.965,3.893,3.893,0,0,1,.135-1.615,6.7,6.7,0,0,1,3.567-4.262,2.386,2.386,0,0,1,.785-.2c1.077-.09,1.481.224,1.66,1.391.426-.336.808-.651,1.189-.965a.934.934,0,0,1,1.391.112c.449.426.067.74-.179,1.1-.606.9-1.211,1.817-1.795,2.737a2.884,2.884,0,0,0-.2.785c.067.045.112.067.18.112a6.5,6.5,0,0,0,.673-.381c.83-.718,1.66-1.436,2.468-2.176a2.08,2.08,0,0,0,.9-1.525,1.1,1.1,0,0,1,1.077-1.032,16.378,16.378,0,0,1,5.63.2,1.1,1.1,0,0,1,.673.539c.045.135-.247.494-.471.651-1.974,1.323-3.971,2.647-5.9,4.083.942-.2,1.884-.448,2.826-.606a8,8,0,0,1,1.638-.045.581.581,0,0,1,.426.359c.112.561-.718,1.48-1.3,1.525-1.884.157-3.746.314-5.631.449a1.64,1.64,0,0,1-.785-.112,1.8,1.8,0,0,1,.09-1.1,4.079,4.079,0,0,1,1.166-1.234c1.7-1.189,3.455-2.333,5.2-3.5.179-.112.359-.247.538-.359-.023-.067-.045-.135-.067-.224-1.144.269-2.288.561-3.432.785a3.513,3.513,0,0,0-2.31,1.548,29.055,29.055,0,0,1-2.871,3.32,3.8,3.8,0,0,1-1.727.92c-.763.18-1.211-.292-1.256-1.1a5.318,5.318,0,0,1,.067-1.032c.045-.336.157-.673.224-1.01A.048.048,0,0,0,417.945,597.422Zm-2.961,1.189c.045.067.112.157.157.224.224-.09.538-.09.7-.247,1.122-1.077,2.221-2.176,3.275-3.32.157-.179.067-.606.09-.92-.314-.023-.74-.157-.942-.023A10.614,10.614,0,0,0,414.984,598.612Z" transform="translate(-354.35 -477.902)" fill="#5f6266"/>
  <g id="Group_76" data-name="Group 76" transform="translate(13.998 9.423)">
    <g id="Group_75" data-name="Group 75" transform="translate(0)">
      <path id="Path_4621" data-name="Path 4621" d="M212.6,222.782,214.215,220l.516.292-1.256,2.176,1.5.875,1.054-1.817.516.292-1.054,1.817,1.75,1.009,1.3-2.243.516.292-1.66,2.849Z" transform="translate(-212.6 -197.815)" fill="#8b8d90"/>
      <path id="Path_4622" data-name="Path 4622" d="M234.533,203.994l-2.333-.224.471-.606,1.054.112c.247.045.538.067.785.09l.022-.022c-.112-.247-.2-.471-.314-.718l-.4-.942.449-.583.852,2.243,2.468.2-.471.606-1.122-.112c-.292-.045-.583-.067-.852-.09l-.022.022c.112.247.224.516.336.785l.426,1.032-.449.583Z" transform="translate(-227.803 -183.154)" fill="#8b8d90"/>
      <path id="Path_4623" data-name="Path 4623" d="M250.2,184.592l.4-.4.381.292.022-.022a2.189,2.189,0,0,1,.538-1.346c.763-.74,1.75-.561,2.647.359a1.788,1.788,0,0,1-.852,3.32l.516.494.987.987-.493.493Zm3.477-.606c-.651-.651-1.279-.875-1.839-.314a1.684,1.684,0,0,0-.381,1.167l1.525,1.548a1.514,1.514,0,0,0,1.009-.4C254.462,185.512,254.395,184.7,253.677,183.987Z" transform="translate(-241.766 -168.845)" fill="#8b8d90"/>
      <path id="Path_4624" data-name="Path 4624" d="M270.308,166.954l-3.208-4.128.561-.426,3.23,4.172c.134.179.247.179.336.112a.5.5,0,0,0,.112-.112l.4.359a1.517,1.517,0,0,1-.269.292C271.048,167.559,270.689,167.425,270.308,166.954Z" transform="translate(-254.874 -153.136)" fill="#8b8d90"/>
      <path id="Path_4625" data-name="Path 4625" d="M289.776,157.924a1.932,1.932,0,1,1,2.759.852A1.966,1.966,0,0,1,289.776,157.924Zm2.647-1.615c-.494-.808-1.234-1.1-1.839-.74s-.673,1.166-.2,1.974,1.234,1.1,1.839.74C292.826,157.9,292.916,157.116,292.423,156.308Z" transform="translate(-272.166 -147.246)" fill="#8b8d90"/>
      <path id="Path_4626" data-name="Path 4626" d="M313.3,142.465l.516-.247.359.651h.022a1.378,1.378,0,0,1,.718-1.256,1.1,1.1,0,0,1,.426-.112l.135.606a1.362,1.362,0,0,0-.4.112c-.314.135-.606.538-.561,1.3l1.077,2.423-.628.292Z" transform="translate(-290.711 -136.924)" fill="#8b8d90"/>
      <path id="Path_4627" data-name="Path 4627" d="M331.1,130.077a.44.44,0,0,1,.314-.583.456.456,0,0,1,.606.269.447.447,0,0,1-.314.583A.427.427,0,0,1,331.1,130.077Zm.538,1.211.673-.224,1.324,3.9-.673.224Z" transform="translate(-304.5 -127.587)" fill="#8b8d90"/>
      <path id="Path_4628" data-name="Path 4628" d="M351.1,130.287l.561-.112.179.561h.022a1.921,1.921,0,0,1,1.211-.965c.852-.179,1.346.292,1.57,1.324l.538,2.557-.673.135-.516-2.467c-.157-.763-.449-1.032-.987-.92-.4.09-.65.359-.965.852l.628,2.916L352,134.3Z" transform="translate(-320.031 -127.797)" fill="#8b8d90"/>
      <path id="Path_4629" data-name="Path 4629" d="M380.551,131.259a1.145,1.145,0,0,1,.538-.965v-.045a.752.752,0,0,1-.4-.651.974.974,0,0,1,.4-.785v-.045a1.411,1.411,0,0,1-.606-1.077,1.451,1.451,0,0,1,1.436-1.57,1.547,1.547,0,0,1,.583.067l1.436-.09.045.538-.852.067a1.326,1.326,0,0,1,.4.83,1.4,1.4,0,0,1-1.413,1.525,1.527,1.527,0,0,1-.628-.09.577.577,0,0,0-.224.494c.022.269.2.426.763.4l.807-.045c.965-.067,1.458.2,1.5.875.045.763-.718,1.481-1.974,1.57C381.314,132.314,380.6,131.977,380.551,131.259Zm2.333-3.7a.882.882,0,1,0-1.75.135.91.91,0,0,0,.942.92A.963.963,0,0,0,382.884,127.558Zm.74,3.275c-.022-.381-.314-.494-.875-.449l-.718.045a4.505,4.505,0,0,1-.538-.022.96.96,0,0,0-.381.718c.022.449.494.7,1.234.651C383.176,131.708,383.669,131.259,383.624,130.833Z" transform="translate(-342.82 -124.978)" fill="#8b8d90"/>
      <path id="Path_4630" data-name="Path 4630" d="M423.485,121.1l3.185.471-.09.583-2.468-.359-.247,1.727,2.086.314-.09.583-2.086-.314-.292,2,2.557.381-.09.583L422.7,126.6Z" transform="translate(-375.57 -121.1)" fill="#8b8d90"/>
      <path id="Path_4631" data-name="Path 4631" d="M451.1,132l.7.2.09,2.467c0,.426.022.852.022,1.279h.022c.224-.336.471-.718.7-1.054l1.391-2.041.651.179-2.535,3.567-.785-.224Z" transform="translate(-397.599 -129.555)" fill="#8b8d90"/>
      <path id="Path_4632" data-name="Path 4632" d="M473.425,144.244A1.989,1.989,0,0,1,476,143.01a1.677,1.677,0,0,1,.74,2.445l-.18.359-2.535-1.122a1.353,1.353,0,0,0,.673,1.862,1.792,1.792,0,0,0,1.077.112l.045.516a2.45,2.45,0,0,1-1.413-.157A1.968,1.968,0,0,1,473.425,144.244Zm2.782.852c.336-.763.179-1.324-.426-1.57a1.26,1.26,0,0,0-1.593.7Z" transform="translate(-414.742 -137.985)" fill="#8b8d90"/>
      <path id="Path_4633" data-name="Path 4633" d="M496.731,153.3l.494.292-.337.673.022.022a1.362,1.362,0,0,1,1.436-.135,1.09,1.09,0,0,1,.337.292l-.426.471a.944.944,0,0,0-.314-.269c-.292-.179-.785-.179-1.391.292l-1.346,2.288-.606-.359Z" transform="translate(-431.341 -146.077)" fill="#8b8d90"/>
      <path id="Path_4634" data-name="Path 4634" d="M505.6,168.411l.449-.359a1.938,1.938,0,0,0,.2.247c.381.292.83.157,1.279-.135l.269-.179,1.189-4.285.583.426-.718,2.333c-.112.359-.269.785-.381,1.166l.022.022c.314-.224.673-.494.987-.718l1.974-1.368.539.4-3.948,2.6c-.718.471-1.436.718-2.109.2A1.007,1.007,0,0,1,505.6,168.411Z" transform="translate(-439.874 -154.144)" fill="#8b8d90"/>
      <path id="Path_4635" data-name="Path 4635" d="M533.3,185.226a1.954,1.954,0,0,1,2.8-.269,1.7,1.7,0,0,1,.471,1.166l.471-.516,1.122-1.122.493.494-4.285,4.262-.4-.4.314-.381-.022-.022a1.866,1.866,0,0,1-1.3-.471C532.247,187.222,532.337,186.19,533.3,185.226Zm1.346,2.782,1.525-1.525a1.448,1.448,0,0,0-.4-1.009c-.471-.471-1.279-.381-1.952.269-.7.7-.83,1.413-.314,1.907A1.416,1.416,0,0,0,534.648,188.007Z" transform="translate(-460.733 -170.263)" fill="#8b8d90"/>
      <path id="Path_4636" data-name="Path 4636" d="M550.9,206.836c.718-.538,1.548-.179,2.759,1.1.426-.314.718-.763.314-1.3a2.293,2.293,0,0,0-1.1-.718l.224-.516a3.2,3.2,0,0,1,1.413.965c.606.808.314,1.548-.494,2.154L552,210.043l-.336-.471.359-.337-.022-.022a2.247,2.247,0,0,1-1.3-.74A1.069,1.069,0,0,1,550.9,206.836Zm1.458,2.064.92-.7c-.964-1.009-1.5-1.189-1.929-.852a.616.616,0,0,0-.09.965A1.682,1.682,0,0,0,552.355,208.9Z" transform="translate(-474.628 -186.49)" fill="#8b8d90"/>
      <path id="Path_4637" data-name="Path 4637" d="M556.7,228.484l.561-.157a2.281,2.281,0,0,0,.09.314c.224.4.7.471,1.234.381l.314-.067,2.8-3.455.359.628-1.593,1.862c-.247.292-.561.606-.807.92l.022.022c.381-.09.808-.179,1.189-.269l2.355-.471.336.606-4.666.83c-.852.157-1.615.067-2.019-.65A1.482,1.482,0,0,1,556.7,228.484Z" transform="translate(-479.511 -202.081)" fill="#8b8d90"/>
    </g>
  </g>
  <g id="Group_77" data-name="Group 77" transform="translate(95 108.821)">
    <circle id="Ellipse_46" data-name="Ellipse 46" cx="2.064" cy="2.064" r="2.064" fill="none" stroke="#5f6266" stroke-miterlimit="10" stroke-width="0.4"/>
    <text id="TM" transform="translate(0.487 1.821)" fill="#5f6266" font-size="1" font-family="TimesNewRomanPSMT, Times New Roman"><tspan x="0" y="0">TM</tspan></text>
  </g>
  <path id="Path_4638" data-name="Path 4638" d="M428.9,670.04a3.176,3.176,0,0,1,1.279-2.557.937.937,0,0,1,1.57.785,2.666,2.666,0,0,1-.987,2.378,1.51,1.51,0,0,1-1.256.269C429.214,670.8,429.057,670.242,428.9,670.04Z" transform="translate(-366.381 -535.31)" fill="#5f6266"/>
  <g id="Group_78" data-name="Group 78" transform="translate(28.388 131.053)">
    <path id="Path_4639" data-name="Path 4639" d="M284.973,664.181l-.067.942v.022a46.74,46.74,0,0,1-1.323,5.877c-1.144,3.769-1.3,4.756-2.019,4.823a8.565,8.565,0,0,1-1.054.112c.247-.471.292-.494.359-.628,1.032-1.974,1.974-6.191,2.512-9.489.045-.247.112-.628.045-.65-.112-.045,0,0-.022,0a8.964,8.964,0,0,0-6.573-.561.061.061,0,0,1-.045-.112,8.038,8.038,0,0,1,2.512-1.077,7.49,7.49,0,0,1,3.208.09,12.734,12.734,0,0,0,1.279.292C285.444,664.181,284.973,664.181,284.973,664.181Z" transform="translate(-276.752 -663.309)" fill="#5f6266" stroke="#5f6266" stroke-miterlimit="10" stroke-width="1.5"/>
    <path id="Path_4640" data-name="Path 4640" d="M312.7,666.817l.157-1.391c1.436.426,2.423.314,6.169-.381a1.254,1.254,0,0,1,.224-.045c.022,0,.067.045,0,.09a11.975,11.975,0,0,1-5.541,1.795A4.975,4.975,0,0,1,312.7,666.817Z" transform="translate(-304.636 -664.62)" fill="#5f6266" stroke="#5f6266" stroke-miterlimit="10" stroke-width="1.5"/>
  </g>
  <g id="Group_79" data-name="Group 79" transform="translate(33.895 52.893)">
    <path id="Path_4641" data-name="Path 4641" d="M301.3,345.662c.045-.381.09-.763.157-1.144a10.184,10.184,0,0,1,4.419-6.775,10.271,10.271,0,0,1,15.949,8.345,8.417,8.417,0,0,1-.965,3.948,35.155,35.155,0,0,1-2.647,4.307c-1.3,1.929-2.58,3.858-3.679,5.9a33.7,33.7,0,0,0-2.894,7.246,2.1,2.1,0,0,1-.067.2c-.067-.337-.135-.628-.2-.92a28.523,28.523,0,0,0-3.612-8.749c-1.144-1.862-2.445-3.589-3.7-5.384A21.223,21.223,0,0,1,301.906,349a7.1,7.1,0,0,1-.561-2.154c0-.022-.023-.067-.023-.09C301.3,346.425,301.3,346.044,301.3,345.662Zm15.7.628a5.429,5.429,0,1,0-5.406,5.451A5.433,5.433,0,0,0,317,346.291Z" transform="translate(-301.3 -331.279)" fill="url(#linear-gradient-3)"/>
    <path id="Path_4642" data-name="Path 4642" d="M354.8,418.747c.83-2.221,1.413-4.487,2.019-6.775l1.054.067a79.276,79.276,0,0,0,8.636.135,7.575,7.575,0,0,0,2.737-.494,4.155,4.155,0,0,0,.965-.561,1.272,1.272,0,0,0,.359-1.57,2.248,2.248,0,0,0-.763-1.009c-.426-.314-.852-.583-1.3-.875a10.556,10.556,0,0,1-1.974-1.48,3.237,3.237,0,0,1-.493-.606,1.683,1.683,0,0,1-.022-2,4.556,4.556,0,0,1,2.2-1.75,9.492,9.492,0,0,1,3.051-.628,17.046,17.046,0,0,1,4.4.336c-.4.022-.808.022-1.234.045a20.3,20.3,0,0,0-4.015.516,5.362,5.362,0,0,0-1.5.583,1.44,1.44,0,0,0-.292.224,1.057,1.057,0,0,0-.269,1.391,2.142,2.142,0,0,0,.92.92c.808.426,1.615.852,2.445,1.256a12.4,12.4,0,0,1,2.714,1.66,5.671,5.671,0,0,1,1.391,1.7,3.9,3.9,0,0,1-.157,4.172,7.941,7.941,0,0,1-2.939,2.647,13.153,13.153,0,0,1-5,1.638,71.754,71.754,0,0,1-8.5.449c-1.413,0-2.849-.023-4.262-.045C354.935,418.769,354.867,418.747,354.8,418.747Z" transform="translate(-342.799 -381.82)" fill="url(#linear-gradient-4)"/>
    <path id="Path_4643" data-name="Path 4643" d="M429,333.55a19.852,19.852,0,0,0-.987-3.163,21.977,21.977,0,0,0-2.109-3.746c-.651-.942-1.324-1.884-1.974-2.849a5.534,5.534,0,0,1-.9-2,5.17,5.17,0,0,1,.4-3.23,6.077,6.077,0,0,1,11.53,1.144,5.17,5.17,0,0,1-.628,3.813c-.651,1.1-1.368,2.154-2.064,3.23a24.233,24.233,0,0,0-2.871,5.63A6.508,6.508,0,0,0,429,333.55Zm-.022-15.815a3.219,3.219,0,1,0,3.208,3.23A3.2,3.2,0,0,0,428.977,317.735Z" transform="translate(-395.642 -314.882)" fill="url(#linear-gradient-5)"/>
  </g>
</svg>
